# MagicaVoxel @ Ephtracy

# group
o 

# material
mtllib Chest3-2.mtl
usemtl palette

# normals
vn -1 0 0
vn 1 0 0
vn 0 0 1
vn 0 0 -1
vn 0 -1 0
vn 0 1 0

# texcoords
vt 0.0488281 0.5
vt 0.0527344 0.5
vt 0.162109 0.5

# verts
v -0.6 0 0.4
v -0.6 0 -0.4
v -0.6 0.1 0.3
v -0.6 0.1 -0.3
v -0.6 0.5 0.3
v -0.6 0.5 -0.3
v -0.6 0.6 0.4
v -0.6 0.6 -0.4
v -0.5 0.1 0.3
v -0.5 0.1 -0.3
v -0.5 0.5 0.3
v -0.5 0.5 -0.3
v -0.4 0.5 -0.4
v -0.4 0.5 -0.5
v -0.4 0.6 -0.4
v -0.4 0.6 -0.5
v 0.1 0.5 0.4
v 0.1 0.5 0.3
v 0.1 0.6 0.4
v 0.1 0.6 0.3
v 0.2 0.5 -0.4
v 0.2 0.5 -0.5
v 0.2 0.6 -0.4
v 0.2 0.6 -0.5
v 0.4 0.1 0.3
v 0.4 0.1 -0.3
v 0.4 0.5 0.3
v 0.4 0.5 -0.3
v 0.5 0.5 0.3
v 0.5 0.5 -0.3
v 0.5 0.6 0.3
v 0.5 0.6 -0.3
v -0.5 0.5 0.3
v -0.5 0.5 -0.3
v -0.5 0.6 0.3
v -0.5 0.6 -0.3
v -0.4 0.1 0.3
v -0.4 0.1 -0.3
v -0.4 0.5 0.3
v -0.4 0.5 -0.3
v -0.2 0.5 -0.4
v -0.2 0.5 -0.5
v -0.2 0.6 -0.4
v -0.2 0.6 -0.5
v -0.0999999 0.5 0.4
v -0.0999999 0.5 0.3
v -0.0999999 0.6 0.4
v -0.0999999 0.6 0.3
v 0.4 0.5 -0.4
v 0.4 0.5 -0.5
v 0.4 0.6 -0.4
v 0.4 0.6 -0.5
v 0.5 0.1 0.3
v 0.5 0.1 -0.3
v 0.5 0.5 0.3
v 0.5 0.5 -0.3
v 0.6 0 0.4
v 0.6 0 -0.4
v 0.6 0.1 0.3
v 0.6 0.1 -0.3
v 0.6 0.5 0.3
v 0.6 0.5 -0.3
v 0.6 0.6 0.4
v 0.6 0.6 -0.4
v -0.6 0 0.4
v -0.6 0.6 0.4
v -0.5 0.1 0.4
v -0.5 0.5 0.4
v -0.0999999 0.5 0.4
v -0.0999999 0.6 0.4
v 0.1 0.5 0.4
v 0.1 0.6 0.4
v 0.5 0.1 0.4
v 0.5 0.5 0.4
v 0.6 0 0.4
v 0.6 0.6 0.4
v -0.6 0.1 -0.3
v -0.6 0.5 -0.3
v -0.5 0.1 -0.3
v -0.5 0.5 -0.3
v -0.5 0.6 -0.3
v -0.4 0.1 -0.3
v -0.4 0.5 -0.3
v 0.4 0.1 -0.3
v 0.4 0.5 -0.3
v 0.5 0.1 -0.3
v 0.5 0.5 -0.3
v 0.5 0.6 -0.3
v 0.6 0.1 -0.3
v 0.6 0.5 -0.3
v -0.6 0.1 0.3
v -0.6 0.5 0.3
v -0.5 0.1 0.3
v -0.5 0.5 0.3
v -0.5 0.6 0.3
v -0.4 0.1 0.3
v -0.4 0.5 0.3
v -0.0999999 0.5 0.3
v -0.0999999 0.6 0.3
v 0.1 0.5 0.3
v 0.1 0.6 0.3
v 0.4 0.1 0.3
v 0.4 0.5 0.3
v 0.5 0.1 0.3
v 0.5 0.5 0.3
v 0.5 0.6 0.3
v 0.6 0.1 0.3
v 0.6 0.5 0.3
v -0.6 0 -0.4
v -0.6 0.6 -0.4
v -0.5 0.1 -0.4
v -0.5 0.5 -0.4
v -0.4 0.5 -0.4
v -0.4 0.6 -0.4
v -0.2 0.5 -0.4
v -0.2 0.6 -0.4
v 0.2 0.5 -0.4
v 0.2 0.6 -0.4
v 0.4 0.5 -0.4
v 0.4 0.6 -0.4
v 0.5 0.1 -0.4
v 0.5 0.5 -0.4
v 0.6 0 -0.4
v 0.6 0.6 -0.4
v -0.4 0.5 -0.5
v -0.4 0.6 -0.5
v -0.2 0.5 -0.5
v -0.2 0.6 -0.5
v 0.2 0.5 -0.5
v 0.2 0.6 -0.5
v 0.4 0.5 -0.5
v 0.4 0.6 -0.5
v -0.6 0 0.4
v 0.6 0 0.4
v -0.5 0 0.3
v 0.5 0 0.3
v -0.5 0 -0.3
v 0.5 0 -0.3
v -0.6 0 -0.4
v 0.6 0 -0.4
v -0.6 0.5 0.3
v -0.5 0.5 0.3
v 0.5 0.5 0.3
v 0.6 0.5 0.3
v -0.6 0.5 -0.3
v -0.5 0.5 -0.3
v 0.5 0.5 -0.3
v 0.6 0.5 -0.3
v -0.4 0.5 -0.4
v -0.2 0.5 -0.4
v 0.2 0.5 -0.4
v 0.4 0.5 -0.4
v -0.4 0.5 -0.5
v -0.2 0.5 -0.5
v 0.2 0.5 -0.5
v 0.4 0.5 -0.5
v -0.6 0.1 0.3
v -0.5 0.1 0.3
v -0.4 0.1 0.3
v 0.4 0.1 0.3
v 0.5 0.1 0.3
v 0.6 0.1 0.3
v -0.6 0.1 -0.3
v -0.5 0.1 -0.3
v -0.4 0.1 -0.3
v 0.4 0.1 -0.3
v 0.5 0.1 -0.3
v 0.6 0.1 -0.3
v -0.0999999 0.5 0.4
v 0.1 0.5 0.4
v -0.5 0.5 0.3
v -0.4 0.5 0.3
v -0.0999999 0.5 0.3
v 0.1 0.5 0.3
v 0.4 0.5 0.3
v 0.5 0.5 0.3
v -0.5 0.5 -0.3
v -0.4 0.5 -0.3
v 0.4 0.5 -0.3
v 0.5 0.5 -0.3
v -0.6 0.6 0.4
v -0.0999999 0.6 0.4
v 0.1 0.6 0.4
v 0.6 0.6 0.4
v -0.5 0.6 0.3
v -0.0999999 0.6 0.3
v 0.1 0.6 0.3
v 0.5 0.6 0.3
v -0.5 0.6 -0.3
v 0.5 0.6 -0.3
v -0.6 0.6 -0.4
v -0.4 0.6 -0.4
v -0.2 0.6 -0.4
v 0.2 0.6 -0.4
v 0.4 0.6 -0.4
v 0.6 0.6 -0.4
v -0.4 0.6 -0.5
v -0.2 0.6 -0.5
v 0.2 0.6 -0.5
v 0.4 0.6 -0.5

# faces
f 3/3/1 2/3/1 1/3/1
f 4/3/1 2/3/1 3/3/1
f 5/3/1 3/3/1 1/3/1
f 6/3/1 2/3/1 4/3/1
f 7/3/1 5/3/1 1/3/1
f 7/3/1 6/3/1 5/3/1
f 8/3/1 2/3/1 6/3/1
f 8/3/1 6/3/1 7/3/1
f 11/2/1 10/2/1 9/2/1
f 12/2/1 10/2/1 11/2/1
f 15/3/1 14/3/1 13/3/1
f 16/3/1 14/3/1 15/3/1
f 19/3/1 18/3/1 17/3/1
f 20/3/1 18/3/1 19/3/1
f 23/3/1 22/3/1 21/3/1
f 24/3/1 22/3/1 23/3/1
f 27/2/1 26/2/1 25/2/1
f 28/2/1 26/2/1 27/2/1
f 31/3/1 30/3/1 29/3/1
f 32/3/1 30/3/1 31/3/1
f 33/3/2 34/3/2 35/3/2
f 35/3/2 34/3/2 36/3/2
f 37/2/2 38/2/2 39/2/2
f 39/2/2 38/2/2 40/2/2
f 41/3/2 42/3/2 43/3/2
f 43/3/2 42/3/2 44/3/2
f 45/3/2 46/3/2 47/3/2
f 47/3/2 46/3/2 48/3/2
f 49/3/2 50/3/2 51/3/2
f 51/3/2 50/3/2 52/3/2
f 53/2/2 54/2/2 55/2/2
f 55/2/2 54/2/2 56/2/2
f 57/3/2 58/3/2 59/3/2
f 59/3/2 58/3/2 60/3/2
f 57/3/2 59/3/2 61/3/2
f 60/3/2 58/3/2 62/3/2
f 57/3/2 61/3/2 63/3/2
f 61/3/2 62/3/2 63/3/2
f 62/3/2 58/3/2 64/3/2
f 63/3/2 62/3/2 64/3/2
f 67/3/3 66/3/3 65/3/3
f 68/3/3 66/3/3 67/3/3
f 69/2/3 68/2/3 67/2/3
f 69/3/3 66/3/3 68/3/3
f 70/3/3 66/3/3 69/3/3
f 71/2/3 69/2/3 67/2/3
f 73/3/3 67/3/3 65/3/3
f 73/2/3 71/2/3 67/2/3
f 74/3/3 72/3/3 71/3/3
f 74/2/3 71/2/3 73/2/3
f 75/3/3 73/3/3 65/3/3
f 75/3/3 74/3/3 73/3/3
f 76/3/3 72/3/3 74/3/3
f 76/3/3 74/3/3 75/3/3
f 79/3/3 78/3/3 77/3/3
f 80/3/3 78/3/3 79/3/3
f 83/3/3 81/3/3 80/3/3
f 84/2/3 83/2/3 82/2/3
f 85/3/3 81/3/3 83/3/3
f 85/2/3 83/2/3 84/2/3
f 87/3/3 81/3/3 85/3/3
f 88/3/3 81/3/3 87/3/3
f 89/3/3 87/3/3 86/3/3
f 90/3/3 87/3/3 89/3/3
f 91/3/4 92/3/4 93/3/4
f 93/3/4 92/3/4 94/3/4
f 94/3/4 95/3/4 97/3/4
f 97/3/4 95/3/4 98/3/4
f 96/2/4 97/2/4 98/2/4
f 98/3/4 95/3/4 99/3/4
f 96/2/4 98/2/4 100/2/4
f 96/2/4 100/2/4 102/2/4
f 100/3/4 101/3/4 103/3/4
f 102/2/4 100/2/4 103/2/4
f 103/3/4 101/3/4 105/3/4
f 105/3/4 101/3/4 106/3/4
f 104/3/4 105/3/4 107/3/4
f 107/3/4 105/3/4 108/3/4
f 109/3/4 110/3/4 111/3/4
f 111/3/4 110/3/4 112/3/4
f 111/2/4 112/2/4 113/2/4
f 112/3/4 110/3/4 113/3/4
f 113/3/4 110/3/4 114/3/4
f 111/2/4 113/2/4 115/2/4
f 111/2/4 115/2/4 117/2/4
f 115/3/4 116/3/4 117/3/4
f 117/3/4 116/3/4 118/3/4
f 111/2/4 117/2/4 119/2/4
f 109/3/4 111/3/4 121/3/4
f 111/2/4 119/2/4 121/2/4
f 119/3/4 120/3/4 122/3/4
f 121/2/4 119/2/4 122/2/4
f 109/3/4 121/3/4 123/3/4
f 121/3/4 122/3/4 123/3/4
f 122/3/4 120/3/4 124/3/4
f 123/3/4 122/3/4 124/3/4
f 125/3/4 126/3/4 127/3/4
f 127/3/4 126/3/4 128/3/4
f 129/3/4 130/3/4 131/3/4
f 131/3/4 130/3/4 132/3/4
f 135/3/5 134/3/5 133/3/5
f 136/3/5 134/3/5 135/3/5
f 137/3/5 135/3/5 133/3/5
f 137/1/5 136/1/5 135/1/5
f 138/3/5 134/3/5 136/3/5
f 138/1/5 136/1/5 137/1/5
f 139/3/5 137/3/5 133/3/5
f 139/3/5 138/3/5 137/3/5
f 140/3/5 134/3/5 138/3/5
f 140/3/5 138/3/5 139/3/5
f 145/3/5 142/3/5 141/3/5
f 146/3/5 142/3/5 145/3/5
f 147/3/5 144/3/5 143/3/5
f 148/3/5 144/3/5 147/3/5
f 153/3/5 150/3/5 149/3/5
f 154/3/5 150/3/5 153/3/5
f 155/3/5 152/3/5 151/3/5
f 156/3/5 152/3/5 155/3/5
f 157/3/6 158/3/6 163/3/6
f 163/3/6 158/3/6 164/3/6
f 159/1/6 160/1/6 165/1/6
f 165/1/6 160/1/6 166/1/6
f 161/3/6 162/3/6 167/3/6
f 167/3/6 162/3/6 168/3/6
f 169/2/6 170/2/6 173/2/6
f 173/2/6 170/2/6 174/2/6
f 171/2/6 172/2/6 177/2/6
f 177/2/6 172/2/6 178/2/6
f 175/2/6 176/2/6 179/2/6
f 179/2/6 176/2/6 180/2/6
f 181/3/6 182/3/6 185/3/6
f 185/3/6 182/3/6 186/3/6
f 183/3/6 184/3/6 187/3/6
f 187/3/6 184/3/6 188/3/6
f 181/3/6 185/3/6 189/3/6
f 188/3/6 184/3/6 190/3/6
f 181/3/6 189/3/6 191/3/6
f 189/3/6 190/3/6 191/3/6
f 191/3/6 190/3/6 192/3/6
f 192/3/6 190/3/6 193/3/6
f 193/3/6 190/3/6 194/3/6
f 194/3/6 190/3/6 195/3/6
f 190/3/6 184/3/6 196/3/6
f 195/3/6 190/3/6 196/3/6
f 192/3/6 193/3/6 197/3/6
f 197/3/6 193/3/6 198/3/6
f 194/3/6 195/3/6 199/3/6
f 199/3/6 195/3/6 200/3/6
