# MagicaVoxel @ Ephtracy

# group
o 

# material
mtllib Dungeon_Pillar.mtl
usemtl palette

# normals
vn -1 0 0
vn 1 0 0
vn 0 0 1
vn 0 0 -1
vn 0 -1 0
vn 0 1 0

# texcoords
vt 0.162109 0.5
vt 0.166016 0.5

# verts
v -0.4 0 0.4
v -0.4 0 -0.4
v -0.4 0.3 0.4
v -0.4 0.3 -0.4
v -0.4 2.9 0.4
v -0.4 2.9 -0.4
v -0.4 3.1 0.4
v -0.4 3.1 -0.4
v -0.3 0.3 0.3
v -0.3 0.3 -0.3
v -0.3 0.5 0.3
v -0.3 0.5 -0.3
v -0.3 2.7 0.3
v -0.3 2.7 -0.3
v -0.3 2.9 0.3
v -0.3 2.9 -0.3
v -0.2 0.5 0.2
v -0.2 0.5 -0.2
v -0.2 2.7 0.2
v -0.2 2.7 -0.2
v 0.2 0.5 0.2
v 0.2 0.5 -0.2
v 0.2 2.7 0.2
v 0.2 2.7 -0.2
v 0.3 0.3 0.3
v 0.3 0.3 -0.3
v 0.3 0.5 0.3
v 0.3 0.5 -0.3
v 0.3 2.7 0.3
v 0.3 2.7 -0.3
v 0.3 2.9 0.3
v 0.3 2.9 -0.3
v 0.4 0 0.4
v 0.4 0 -0.4
v 0.4 0.3 0.4
v 0.4 0.3 -0.4
v 0.4 2.9 0.4
v 0.4 2.9 -0.4
v 0.4 3.1 0.4
v 0.4 3.1 -0.4
v -0.4 0 0.4
v -0.4 0.3 0.4
v -0.4 2.9 0.4
v -0.4 3.1 0.4
v 0.4 0 0.4
v 0.4 0.3 0.4
v 0.4 2.9 0.4
v 0.4 3.1 0.4
v -0.3 0.3 0.3
v -0.3 0.5 0.3
v -0.3 2.7 0.3
v -0.3 2.9 0.3
v 0.3 0.3 0.3
v 0.3 0.5 0.3
v 0.3 2.7 0.3
v 0.3 2.9 0.3
v -0.2 0.5 0.2
v -0.2 2.7 0.2
v 0.2 0.5 0.2
v 0.2 2.7 0.2
v -0.2 0.5 -0.2
v -0.2 2.7 -0.2
v 0.2 0.5 -0.2
v 0.2 2.7 -0.2
v -0.3 0.3 -0.3
v -0.3 0.5 -0.3
v -0.3 2.7 -0.3
v -0.3 2.9 -0.3
v 0.3 0.3 -0.3
v 0.3 0.5 -0.3
v 0.3 2.7 -0.3
v 0.3 2.9 -0.3
v -0.4 0 -0.4
v -0.4 0.3 -0.4
v -0.4 2.9 -0.4
v -0.4 3.1 -0.4
v 0.4 0 -0.4
v 0.4 0.3 -0.4
v 0.4 2.9 -0.4
v 0.4 3.1 -0.4
v -0.4 0 0.4
v 0.4 0 0.4
v -0.4 0 -0.4
v 0.4 0 -0.4
v -0.3 2.7 0.3
v 0.3 2.7 0.3
v -0.2 2.7 0.2
v 0.2 2.7 0.2
v -0.2 2.7 -0.2
v 0.2 2.7 -0.2
v -0.3 2.7 -0.3
v 0.3 2.7 -0.3
v -0.4 2.9 0.4
v 0.4 2.9 0.4
v -0.3 2.9 0.3
v 0.3 2.9 0.3
v -0.3 2.9 -0.3
v 0.3 2.9 -0.3
v -0.4 2.9 -0.4
v 0.4 2.9 -0.4
v -0.4 0.3 0.4
v 0.4 0.3 0.4
v -0.3 0.3 0.3
v 0.3 0.3 0.3
v -0.3 0.3 -0.3
v 0.3 0.3 -0.3
v -0.4 0.3 -0.4
v 0.4 0.3 -0.4
v -0.3 0.5 0.3
v 0.3 0.5 0.3
v -0.2 0.5 0.2
v 0.2 0.5 0.2
v -0.2 0.5 -0.2
v 0.2 0.5 -0.2
v -0.3 0.5 -0.3
v 0.3 0.5 -0.3
v -0.4 3.1 0.4
v 0.4 3.1 0.4
v -0.4 3.1 -0.4
v 0.4 3.1 -0.4

# faces
f 3/2/1 2/2/1 1/2/1
f 4/2/1 2/2/1 3/2/1
f 7/2/1 6/2/1 5/2/1
f 8/2/1 6/2/1 7/2/1
f 11/1/1 10/1/1 9/1/1
f 12/1/1 10/1/1 11/1/1
f 15/1/1 14/1/1 13/1/1
f 16/1/1 14/1/1 15/1/1
f 19/1/1 18/1/1 17/1/1
f 20/1/1 18/1/1 19/1/1
f 21/1/2 22/1/2 23/1/2
f 23/1/2 22/1/2 24/1/2
f 25/1/2 26/1/2 27/1/2
f 27/1/2 26/1/2 28/1/2
f 29/1/2 30/1/2 31/1/2
f 31/1/2 30/1/2 32/1/2
f 33/2/2 34/2/2 35/2/2
f 35/2/2 34/2/2 36/2/2
f 37/2/2 38/2/2 39/2/2
f 39/2/2 38/2/2 40/2/2
f 45/2/3 42/2/3 41/2/3
f 46/2/3 42/2/3 45/2/3
f 47/2/3 44/2/3 43/2/3
f 48/2/3 44/2/3 47/2/3
f 53/1/3 50/1/3 49/1/3
f 54/1/3 50/1/3 53/1/3
f 55/1/3 52/1/3 51/1/3
f 56/1/3 52/1/3 55/1/3
f 59/1/3 58/1/3 57/1/3
f 60/1/3 58/1/3 59/1/3
f 61/1/4 62/1/4 63/1/4
f 63/1/4 62/1/4 64/1/4
f 65/1/4 66/1/4 69/1/4
f 69/1/4 66/1/4 70/1/4
f 67/1/4 68/1/4 71/1/4
f 71/1/4 68/1/4 72/1/4
f 73/2/4 74/2/4 77/2/4
f 77/2/4 74/2/4 78/2/4
f 75/2/4 76/2/4 79/2/4
f 79/2/4 76/2/4 80/2/4
f 83/2/5 82/2/5 81/2/5
f 84/2/5 82/2/5 83/2/5
f 87/1/5 86/1/5 85/1/5
f 88/1/5 86/1/5 87/1/5
f 89/1/5 87/1/5 85/1/5
f 90/1/5 86/1/5 88/1/5
f 91/1/5 89/1/5 85/1/5
f 91/1/5 90/1/5 89/1/5
f 92/1/5 86/1/5 90/1/5
f 92/1/5 90/1/5 91/1/5
f 95/2/5 94/2/5 93/2/5
f 96/2/5 94/2/5 95/2/5
f 97/2/5 95/2/5 93/2/5
f 98/2/5 94/2/5 96/2/5
f 99/2/5 97/2/5 93/2/5
f 99/2/5 98/2/5 97/2/5
f 100/2/5 94/2/5 98/2/5
f 100/2/5 98/2/5 99/2/5
f 101/2/6 102/2/6 103/2/6
f 103/2/6 102/2/6 104/2/6
f 101/2/6 103/2/6 105/2/6
f 104/2/6 102/2/6 106/2/6
f 101/2/6 105/2/6 107/2/6
f 105/2/6 106/2/6 107/2/6
f 106/2/6 102/2/6 108/2/6
f 107/2/6 106/2/6 108/2/6
f 109/1/6 110/1/6 111/1/6
f 111/1/6 110/1/6 112/1/6
f 109/1/6 111/1/6 113/1/6
f 112/1/6 110/1/6 114/1/6
f 109/1/6 113/1/6 115/1/6
f 113/1/6 114/1/6 115/1/6
f 114/1/6 110/1/6 116/1/6
f 115/1/6 114/1/6 116/1/6
f 117/2/6 118/2/6 119/2/6
f 119/2/6 118/2/6 120/2/6
