# MagicaVoxel @ Ephtracy

# group
o 

# material
mtllib Rubble.mtl
usemtl palette

# normals
vn -1 0 0
vn 1 0 0
vn 0 0 1
vn 0 0 -1
vn 0 -1 0
vn 0 1 0

# texcoords
vt 0.158203 0.5
vt 0.166016 0.5

# verts
v -0.4 0 0.1
v -0.4 0 0
v -0.4 0 -0.3
v -0.4 0 -0.6
v -0.4 0.1 0.1
v -0.4 0.1 0
v -0.4 0.1 -0.3
v -0.4 0.1 -0.6
v -0.3 0 -0.1
v -0.3 0 -0.2
v -0.3 0.1 -0.1
v -0.3 0.1 -0.2
v -0.3 0.1 -0.3
v -0.3 0.1 -0.5
v -0.3 0.2 -0.3
v -0.3 0.2 -0.5
v -0.1 0 0.2
v -0.1 0 0.1
v -0.1 0 -0.1
v -0.1 0 -0.2
v -0.1 0 -0.3
v -0.1 0.1 0.2
v -0.1 0.1 0.1
v -0.1 0.1 -0.1
v -0.1 0.1 -0.2
v -0.1 0.2 -0.2
v -0.1 0.2 -0.3
v -0.1 0.2 -0.4
v -0.1 0.2 -0.5
v -0.1 0.3 -0.4
v -0.1 0.3 -0.5
v 0 0 0.3
v 0 0 0.2
v 0 0 -0.5
v 0 0 -0.8
v 0 0.1 0.3
v 0 0.1 0.2
v 0 0.1 -0.5
v 0 0.1 -0.8
v 0.1 0 0.1
v 0.1 0 -0.1
v 0.1 0 -0.2
v 0.1 0 -0.3
v 0.1 0.1 -0.1
v 0.1 0.1 -0.2
v 0.1 0.1 -0.5
v 0.1 0.1 -0.7
v 0.1 0.2 0.1
v 0.1 0.2 -0.1
v 0.1 0.2 -0.2
v 0.1 0.2 -0.3
v 0.1 0.2 -0.5
v 0.1 0.2 -0.7
v 0.2 0 0.4
v 0.2 0 0.3
v 0.2 0.1 0.4
v 0.2 0.1 0.3
v 0.3 0 0.3
v 0.3 0 0.2
v 0.3 0 -0.1
v 0.3 0 -0.2
v 0.3 0.1 0.3
v 0.3 0.1 0.2
v 0.3 0.1 -0.1
v 0.3 0.1 -0.2
v 0.4 0 -0.5
v 0.4 0 -0.6
v 0.4 0.1 -0.5
v 0.4 0.1 -0.6
v 0.5 0 0.1
v 0.5 0 0
v 0.5 0 -0.2
v 0.5 0 -0.3
v 0.5 0 -0.4
v 0.5 0.1 0
v 0.5 0.1 -0.2
v 0.5 0.1 -0.3
v 0.5 0.1 -0.4
v 0.5 0.2 0.1
v 0.5 0.2 0
v 0.7 0 0.3
v 0.7 0 0.2
v 0.7 0 -0.2
v 0.7 0 -0.3
v 0.7 0.1 0.3
v 0.7 0.1 0.2
v 0.7 0.1 -0.2
v 0.7 0.1 -0.3
v 0.8 0 0
v 0.8 0 -0.1
v 0.8 0.1 0
v 0.8 0.1 -0.1
v -0.3 0 0.1
v -0.3 0 0
v -0.3 0.1 0.1
v -0.3 0.1 0
v -0.2 0 -0.1
v -0.2 0 -0.2
v -0.2 0.1 -0.1
v -0.2 0.1 -0.2
v -0.1 0 -0.5
v -0.1 0 -0.6
v -0.1 0.1 -0.5
v -0.1 0.1 -0.6
v 0 0 0.2
v 0 0 0.1
v 0 0 -0.2
v 0 0 -0.5
v 0 0.1 0.2
v 0 0.1 0.1
v 0 0.1 -0.2
v 0 0.1 -0.5
v 0 0.2 -0.2
v 0 0.2 -0.4
v 0 0.3 -0.4
v 0 0.3 -0.5
v 0.1 0 0.3
v 0.1 0 0.2
v 0.1 0.1 0.3
v 0.1 0.1 0.2
v 0.2 0 -0.1
v 0.2 0 -0.2
v 0.2 0.1 -0.1
v 0.2 0.1 -0.2
v 0.3 0 0.4
v 0.3 0 0.3
v 0.3 0 0
v 0.3 0 -0.1
v 0.3 0 -0.5
v 0.3 0 -0.8
v 0.3 0.1 0.4
v 0.3 0.1 0.3
v 0.3 0.1 0.1
v 0.3 0.1 0
v 0.3 0.1 -0.1
v 0.3 0.1 -0.2
v 0.3 0.1 -0.3
v 0.3 0.1 -0.7
v 0.3 0.1 -0.8
v 0.3 0.2 0.1
v 0.3 0.2 -0.1
v 0.3 0.2 -0.2
v 0.3 0.2 -0.3
v 0.3 0.2 -0.5
v 0.3 0.2 -0.7
v 0.4 0 0.1
v 0.4 0 0
v 0.4 0 -0.1
v 0.4 0 -0.2
v 0.4 0 -0.3
v 0.4 0.1 0.1
v 0.4 0.1 0
v 0.4 0.1 -0.1
v 0.4 0.1 -0.2
v 0.4 0.1 -0.3
v 0.5 0 0.3
v 0.5 0 0.2
v 0.5 0 -0.5
v 0.5 0 -0.6
v 0.5 0.1 0.3
v 0.5 0.1 0.2
v 0.5 0.1 -0.5
v 0.5 0.1 -0.6
v 0.6 0 0
v 0.6 0 -0.2
v 0.6 0 -0.3
v 0.6 0 -0.4
v 0.6 0.1 0
v 0.6 0.1 -0.2
v 0.6 0.1 -0.3
v 0.6 0.1 -0.4
v 0.7 0 0.1
v 0.7 0 0
v 0.7 0.2 0.1
v 0.7 0.2 0
v 0.8 0 0.3
v 0.8 0 0.2
v 0.8 0 -0.2
v 0.8 0 -0.3
v 0.8 0.1 0.3
v 0.8 0.1 0.2
v 0.8 0.1 -0.2
v 0.8 0.1 -0.3
v 0.9 0 0
v 0.9 0 -0.1
v 0.9 0.1 0
v 0.9 0.1 -0.1
v 0.2 0 0.4
v 0.2 0.1 0.4
v 0.3 0 0.4
v 0.3 0.1 0.4
v 0 0 0.3
v 0 0.1 0.3
v 0.1 0 0.3
v 0.1 0.1 0.3
v 0.3 0 0.3
v 0.3 0.1 0.3
v 0.5 0 0.3
v 0.5 0.1 0.3
v 0.7 0 0.3
v 0.7 0.1 0.3
v 0.8 0 0.3
v 0.8 0.1 0.3
v -0.1 0 0.2
v -0.1 0.1 0.2
v 0 0 0.2
v 0 0.1 0.2
v -0.4 0 0.1
v -0.4 0.1 0.1
v -0.3 0 0.1
v -0.3 0.1 0.1
v 0.1 0 0.1
v 0.1 0.2 0.1
v 0.3 0.1 0.1
v 0.3 0.2 0.1
v 0.4 0 0.1
v 0.4 0.1 0.1
v 0.5 0 0.1
v 0.5 0.2 0.1
v 0.7 0 0.1
v 0.7 0.2 0.1
v 0.8 0 0
v 0.8 0.1 0
v 0.9 0 0
v 0.9 0.1 0
v -0.3 0 -0.1
v -0.3 0.1 -0.1
v -0.2 0 -0.1
v -0.2 0.1 -0.1
v -0.1 0 -0.1
v -0.1 0.1 -0.1
v 0.1 0 -0.1
v 0.1 0.1 -0.1
v 0.3 0 -0.1
v 0.3 0.1 -0.1
v 0.4 0 -0.1
v 0.4 0.1 -0.1
v -0.1 0.1 -0.2
v -0.1 0.2 -0.2
v 0 0.1 -0.2
v 0 0.2 -0.2
v 0.1 0.1 -0.2
v 0.1 0.2 -0.2
v 0.2 0 -0.2
v 0.2 0.1 -0.2
v 0.3 0 -0.2
v 0.3 0.1 -0.2
v 0.3 0.2 -0.2
v 0.7 0 -0.2
v 0.7 0.1 -0.2
v 0.8 0 -0.2
v 0.8 0.1 -0.2
v -0.4 0 -0.3
v -0.4 0.1 -0.3
v -0.3 0.1 -0.3
v -0.3 0.2 -0.3
v -0.1 0 -0.3
v -0.1 0.2 -0.3
v 0.5 0 -0.3
v 0.5 0.1 -0.3
v 0.6 0 -0.3
v 0.6 0.1 -0.3
v -0.1 0.2 -0.4
v -0.1 0.3 -0.4
v 0 0.2 -0.4
v 0 0.3 -0.4
v 0 0 -0.5
v 0 0.1 -0.5
v 0.1 0.1 -0.5
v 0.1 0.2 -0.5
v 0.3 0 -0.5
v 0.3 0.2 -0.5
v 0.4 0 -0.5
v 0.4 0.1 -0.5
v 0.5 0 -0.5
v 0.5 0.1 -0.5
v 0.2 0 0.3
v 0.2 0.1 0.3
v 0.3 0 0.3
v 0.3 0.1 0.3
v 0 0 0.2
v 0 0.1 0.2
v 0.1 0 0.2
v 0.1 0.1 0.2
v 0.3 0 0.2
v 0.3 0.1 0.2
v 0.5 0 0.2
v 0.5 0.1 0.2
v 0.7 0 0.2
v 0.7 0.1 0.2
v 0.8 0 0.2
v 0.8 0.1 0.2
v -0.1 0 0.1
v -0.1 0.1 0.1
v 0 0 0.1
v 0 0.1 0.1
v -0.4 0 0
v -0.4 0.1 0
v -0.3 0 0
v -0.3 0.1 0
v 0.3 0 0
v 0.3 0.1 0
v 0.4 0 0
v 0.4 0.1 0
v 0.5 0.1 0
v 0.5 0.2 0
v 0.6 0 0
v 0.6 0.1 0
v 0.7 0 0
v 0.7 0.2 0
v 0.1 0.1 -0.1
v 0.1 0.2 -0.1
v 0.2 0 -0.1
v 0.2 0.1 -0.1
v 0.3 0 -0.1
v 0.3 0.1 -0.1
v 0.3 0.2 -0.1
v 0.8 0 -0.1
v 0.8 0.1 -0.1
v 0.9 0 -0.1
v 0.9 0.1 -0.1
v -0.3 0 -0.2
v -0.3 0.1 -0.2
v -0.2 0 -0.2
v -0.2 0.1 -0.2
v 0 0 -0.2
v 0 0.1 -0.2
v 0.1 0 -0.2
v 0.1 0.1 -0.2
v 0.5 0 -0.2
v 0.5 0.1 -0.2
v 0.6 0 -0.2
v 0.6 0.1 -0.2
v 0.1 0 -0.3
v 0.1 0.2 -0.3
v 0.3 0.1 -0.3
v 0.3 0.2 -0.3
v 0.4 0 -0.3
v 0.4 0.1 -0.3
v 0.7 0 -0.3
v 0.7 0.1 -0.3
v 0.8 0 -0.3
v 0.8 0.1 -0.3
v 0.5 0 -0.4
v 0.5 0.1 -0.4
v 0.6 0 -0.4
v 0.6 0.1 -0.4
v -0.3 0.1 -0.5
v -0.3 0.2 -0.5
v -0.1 0 -0.5
v -0.1 0.1 -0.5
v -0.1 0.2 -0.5
v -0.1 0.3 -0.5
v 0 0 -0.5
v 0 0.1 -0.5
v 0 0.3 -0.5
v -0.4 0 -0.6
v -0.4 0.1 -0.6
v -0.1 0 -0.6
v -0.1 0.1 -0.6
v 0.4 0 -0.6
v 0.4 0.1 -0.6
v 0.5 0 -0.6
v 0.5 0.1 -0.6
v 0.1 0.1 -0.7
v 0.1 0.2 -0.7
v 0.3 0.1 -0.7
v 0.3 0.2 -0.7
v 0 0 -0.8
v 0 0.1 -0.8
v 0.3 0 -0.8
v 0.3 0.1 -0.8
v 0.2 0 0.4
v 0.3 0 0.4
v 0 0 0.3
v 0.1 0 0.3
v 0.2 0 0.3
v 0.3 0 0.3
v 0.5 0 0.3
v 0.7 0 0.3
v 0.8 0 0.3
v -0.1 0 0.2
v 0 0 0.2
v 0.1 0 0.2
v 0.3 0 0.2
v 0.5 0 0.2
v 0.7 0 0.2
v 0.8 0 0.2
v -0.4 0 0.1
v -0.3 0 0.1
v -0.1 0 0.1
v 0 0 0.1
v 0.1 0 0.1
v 0.4 0 0.1
v 0.5 0 0.1
v 0.7 0 0.1
v -0.4 0 0
v -0.3 0 0
v 0.3 0 0
v 0.4 0 0
v 0.5 0 0
v 0.6 0 0
v 0.7 0 0
v 0.8 0 0
v 0.9 0 0
v -0.3 0 -0.1
v -0.2 0 -0.1
v -0.1 0 -0.1
v 0.1 0 -0.1
v 0.2 0 -0.1
v 0.3 0 -0.1
v 0.4 0 -0.1
v 0.8 0 -0.1
v 0.9 0 -0.1
v -0.3 0 -0.2
v -0.2 0 -0.2
v -0.1 0 -0.2
v 0 0 -0.2
v 0.1 0 -0.2
v 0.2 0 -0.2
v 0.3 0 -0.2
v 0.4 0 -0.2
v 0.5 0 -0.2
v 0.6 0 -0.2
v 0.7 0 -0.2
v 0.8 0 -0.2
v -0.4 0 -0.3
v -0.1 0 -0.3
v 0.1 0 -0.3
v 0.4 0 -0.3
v 0.5 0 -0.3
v 0.6 0 -0.3
v 0.7 0 -0.3
v 0.8 0 -0.3
v 0.5 0 -0.4
v 0.6 0 -0.4
v -0.1 0 -0.5
v 0 0 -0.5
v 0.3 0 -0.5
v 0.4 0 -0.5
v 0.5 0 -0.5
v -0.4 0 -0.6
v -0.1 0 -0.6
v 0.4 0 -0.6
v 0.5 0 -0.6
v 0 0 -0.8
v 0.3 0 -0.8
v 0.2 0.1 0.4
v 0.3 0.1 0.4
v 0 0.1 0.3
v 0.1 0.1 0.3
v 0.2 0.1 0.3
v 0.3 0.1 0.3
v 0.5 0.1 0.3
v 0.7 0.1 0.3
v 0.8 0.1 0.3
v -0.1 0.1 0.2
v 0 0.1 0.2
v 0.1 0.1 0.2
v 0.3 0.1 0.2
v 0.5 0.1 0.2
v 0.7 0.1 0.2
v 0.8 0.1 0.2
v -0.4 0.1 0.1
v -0.3 0.1 0.1
v -0.1 0.1 0.1
v 0 0.1 0.1
v 0.3 0.1 0.1
v 0.4 0.1 0.1
v -0.4 0.1 0
v -0.3 0.1 0
v 0.3 0.1 0
v 0.4 0.1 0
v 0.5 0.1 0
v 0.6 0.1 0
v 0.8 0.1 0
v 0.9 0.1 0
v -0.3 0.1 -0.1
v -0.2 0.1 -0.1
v -0.1 0.1 -0.1
v 0.1 0.1 -0.1
v 0.2 0.1 -0.1
v 0.3 0.1 -0.1
v 0.4 0.1 -0.1
v 0.8 0.1 -0.1
v 0.9 0.1 -0.1
v -0.3 0.1 -0.2
v -0.2 0.1 -0.2
v -0.1 0.1 -0.2
v 0 0.1 -0.2
v 0.1 0.1 -0.2
v 0.2 0.1 -0.2
v 0.3 0.1 -0.2
v 0.4 0.1 -0.2
v 0.5 0.1 -0.2
v 0.6 0.1 -0.2
v 0.7 0.1 -0.2
v 0.8 0.1 -0.2
v -0.4 0.1 -0.3
v -0.3 0.1 -0.3
v 0.3 0.1 -0.3
v 0.4 0.1 -0.3
v 0.5 0.1 -0.3
v 0.6 0.1 -0.3
v 0.7 0.1 -0.3
v 0.8 0.1 -0.3
v 0.5 0.1 -0.4
v 0.6 0.1 -0.4
v -0.3 0.1 -0.5
v -0.1 0.1 -0.5
v 0 0.1 -0.5
v 0.1 0.1 -0.5
v 0.4 0.1 -0.5
v 0.5 0.1 -0.5
v -0.4 0.1 -0.6
v -0.1 0.1 -0.6
v 0.4 0.1 -0.6
v 0.5 0.1 -0.6
v 0.1 0.1 -0.7
v 0.3 0.1 -0.7
v 0 0.1 -0.8
v 0.3 0.1 -0.8
v 0.1 0.2 0.1
v 0.3 0.2 0.1
v 0.5 0.2 0.1
v 0.7 0.2 0.1
v 0.5 0.2 0
v 0.7 0.2 0
v 0.1 0.2 -0.1
v 0.3 0.2 -0.1
v -0.1 0.2 -0.2
v 0 0.2 -0.2
v 0.1 0.2 -0.2
v 0.3 0.2 -0.2
v -0.3 0.2 -0.3
v -0.1 0.2 -0.3
v 0.1 0.2 -0.3
v 0.3 0.2 -0.3
v -0.1 0.2 -0.4
v 0 0.2 -0.4
v -0.3 0.2 -0.5
v -0.1 0.2 -0.5
v 0.1 0.2 -0.5
v 0.3 0.2 -0.5
v 0.1 0.2 -0.7
v 0.3 0.2 -0.7
v -0.1 0.3 -0.4
v 0 0.3 -0.4
v -0.1 0.3 -0.5
v 0 0.3 -0.5

# faces
f 5/1/1 2/1/1 1/1/1
f 6/1/1 2/1/1 5/1/1
f 7/1/1 4/1/1 3/1/1
f 8/1/1 4/1/1 7/1/1
f 11/2/1 10/2/1 9/2/1
f 12/2/1 10/2/1 11/2/1
f 15/1/1 14/1/1 13/1/1
f 16/1/1 14/1/1 15/1/1
f 22/1/1 18/1/1 17/1/1
f 23/1/1 18/1/1 22/1/1
f 24/1/1 20/1/1 19/1/1
f 25/2/1 21/2/1 20/2/1
f 25/1/1 20/1/1 24/1/1
f 26/2/1 21/2/1 25/2/1
f 27/2/1 21/2/1 26/2/1
f 30/2/1 29/2/1 28/2/1
f 31/2/1 29/2/1 30/2/1
f 36/2/1 33/2/1 32/2/1
f 37/2/1 33/2/1 36/2/1
f 38/1/1 35/1/1 34/1/1
f 39/1/1 35/1/1 38/1/1
f 44/1/1 41/1/1 40/1/1
f 45/1/1 43/1/1 42/1/1
f 48/1/1 44/1/1 40/1/1
f 49/1/1 44/1/1 48/1/1
f 50/1/1 43/1/1 45/1/1
f 51/1/1 43/1/1 50/1/1
f 52/1/1 47/1/1 46/1/1
f 53/1/1 47/1/1 52/1/1
f 56/1/1 55/1/1 54/1/1
f 57/1/1 55/1/1 56/1/1
f 62/1/1 59/1/1 58/1/1
f 63/1/1 59/1/1 62/1/1
f 64/2/1 61/2/1 60/2/1
f 65/2/1 61/2/1 64/2/1
f 68/1/1 67/1/1 66/1/1
f 69/1/1 67/1/1 68/1/1
f 75/2/1 71/2/1 70/2/1
f 75/1/1 72/1/1 71/1/1
f 76/1/1 72/1/1 75/1/1
f 77/2/1 74/2/1 73/2/1
f 78/2/1 74/2/1 77/2/1
f 79/2/1 75/2/1 70/2/1
f 80/2/1 75/2/1 79/2/1
f 85/1/1 82/1/1 81/1/1
f 86/1/1 82/1/1 85/1/1
f 87/2/1 84/2/1 83/2/1
f 88/2/1 84/2/1 87/2/1
f 91/1/1 90/1/1 89/1/1
f 92/1/1 90/1/1 91/1/1
f 93/1/2 94/1/2 95/1/2
f 95/1/2 94/1/2 96/1/2
f 97/2/2 98/2/2 99/2/2
f 99/2/2 98/2/2 100/2/2
f 101/1/2 102/1/2 103/1/2
f 103/1/2 102/1/2 104/1/2
f 105/1/2 106/1/2 109/1/2
f 109/1/2 106/1/2 110/1/2
f 107/2/2 108/2/2 111/2/2
f 111/2/2 108/2/2 112/2/2
f 111/2/2 112/2/2 113/2/2
f 113/2/2 112/2/2 114/2/2
f 114/2/2 112/2/2 115/2/2
f 115/2/2 112/2/2 116/2/2
f 117/2/2 118/2/2 119/2/2
f 119/2/2 118/2/2 120/2/2
f 121/1/2 122/1/2 123/1/2
f 123/1/2 122/1/2 124/1/2
f 125/1/2 126/1/2 131/1/2
f 131/1/2 126/1/2 132/1/2
f 127/1/2 128/1/2 134/1/2
f 134/1/2 128/1/2 135/1/2
f 129/1/2 130/1/2 138/1/2
f 138/1/2 130/1/2 139/1/2
f 133/1/2 134/1/2 140/1/2
f 134/1/2 135/1/2 140/1/2
f 140/1/2 135/1/2 141/1/2
f 136/1/2 137/1/2 142/1/2
f 142/1/2 137/1/2 143/1/2
f 129/1/2 138/1/2 144/1/2
f 144/1/2 138/1/2 145/1/2
f 146/1/2 147/1/2 151/1/2
f 151/1/2 147/1/2 152/1/2
f 148/2/2 149/2/2 153/2/2
f 149/1/2 150/1/2 154/1/2
f 153/2/2 149/2/2 154/2/2
f 154/1/2 150/1/2 155/1/2
f 156/1/2 157/1/2 160/1/2
f 160/1/2 157/1/2 161/1/2
f 158/1/2 159/1/2 162/1/2
f 162/1/2 159/1/2 163/1/2
f 164/1/2 165/1/2 168/1/2
f 168/1/2 165/1/2 169/1/2
f 166/2/2 167/2/2 170/2/2
f 170/2/2 167/2/2 171/2/2
f 172/2/2 173/2/2 174/2/2
f 174/2/2 173/2/2 175/2/2
f 176/1/2 177/1/2 180/1/2
f 180/1/2 177/1/2 181/1/2
f 178/2/2 179/2/2 182/2/2
f 182/2/2 179/2/2 183/2/2
f 184/1/2 185/1/2 186/1/2
f 186/1/2 185/1/2 187/1/2
f 190/1/3 189/1/3 188/1/3
f 191/1/3 189/1/3 190/1/3
f 194/2/3 193/2/3 192/2/3
f 195/2/3 193/2/3 194/2/3
f 198/1/3 197/1/3 196/1/3
f 199/1/3 197/1/3 198/1/3
f 202/1/3 201/1/3 200/1/3
f 203/1/3 201/1/3 202/1/3
f 206/1/3 205/1/3 204/1/3
f 207/1/3 205/1/3 206/1/3
f 210/1/3 209/1/3 208/1/3
f 211/1/3 209/1/3 210/1/3
f 214/1/3 213/1/3 212/1/3
f 215/1/3 213/1/3 214/1/3
f 216/1/3 214/1/3 212/1/3
f 217/1/3 214/1/3 216/1/3
f 220/2/3 219/2/3 218/2/3
f 221/2/3 219/2/3 220/2/3
f 224/1/3 223/1/3 222/1/3
f 225/1/3 223/1/3 224/1/3
f 228/2/3 227/2/3 226/2/3
f 229/2/3 227/2/3 228/2/3
f 232/1/3 231/1/3 230/1/3
f 233/1/3 231/1/3 232/1/3
f 236/2/3 235/2/3 234/2/3
f 237/2/3 235/2/3 236/2/3
f 240/2/3 239/2/3 238/2/3
f 241/2/3 239/2/3 240/2/3
f 245/1/3 243/1/3 242/1/3
f 246/1/3 245/1/3 244/1/3
f 247/1/3 243/1/3 245/1/3
f 247/1/3 245/1/3 246/1/3
f 248/1/3 243/1/3 247/1/3
f 251/2/3 250/2/3 249/2/3
f 252/2/3 250/2/3 251/2/3
f 255/1/3 254/1/3 253/1/3
f 257/1/3 255/1/3 253/1/3
f 257/1/3 256/1/3 255/1/3
f 258/1/3 256/1/3 257/1/3
f 261/2/3 260/2/3 259/2/3
f 262/2/3 260/2/3 261/2/3
f 265/2/3 264/2/3 263/2/3
f 266/2/3 264/2/3 265/2/3
f 269/1/3 268/1/3 267/1/3
f 271/1/3 269/1/3 267/1/3
f 271/1/3 270/1/3 269/1/3
f 272/1/3 270/1/3 271/1/3
f 275/1/3 274/1/3 273/1/3
f 276/1/3 274/1/3 275/1/3
f 277/1/4 278/1/4 279/1/4
f 279/1/4 278/1/4 280/1/4
f 281/2/4 282/2/4 283/2/4
f 283/2/4 282/2/4 284/2/4
f 285/1/4 286/1/4 287/1/4
f 287/1/4 286/1/4 288/1/4
f 289/1/4 290/1/4 291/1/4
f 291/1/4 290/1/4 292/1/4
f 293/1/4 294/1/4 295/1/4
f 295/1/4 294/1/4 296/1/4
f 297/1/4 298/1/4 299/1/4
f 299/1/4 298/1/4 300/1/4
f 301/1/4 302/1/4 303/1/4
f 303/1/4 302/1/4 304/1/4
f 305/2/4 306/2/4 308/2/4
f 307/2/4 308/2/4 309/2/4
f 308/2/4 306/2/4 310/2/4
f 309/2/4 308/2/4 310/2/4
f 311/1/4 312/1/4 314/1/4
f 313/1/4 314/1/4 315/1/4
f 314/1/4 312/1/4 316/1/4
f 315/1/4 314/1/4 316/1/4
f 316/1/4 312/1/4 317/1/4
f 318/1/4 319/1/4 320/1/4
f 320/1/4 319/1/4 321/1/4
f 322/2/4 323/2/4 324/2/4
f 324/2/4 323/2/4 325/2/4
f 326/1/4 327/1/4 328/1/4
f 328/1/4 327/1/4 329/1/4
f 330/1/4 331/1/4 332/1/4
f 332/1/4 331/1/4 333/1/4
f 334/1/4 335/1/4 336/1/4
f 336/1/4 335/1/4 337/1/4
f 334/1/4 336/1/4 338/1/4
f 338/1/4 336/1/4 339/1/4
f 340/2/4 341/2/4 342/2/4
f 342/2/4 341/2/4 343/2/4
f 344/2/4 345/2/4 346/2/4
f 346/2/4 345/2/4 347/2/4
f 348/1/4 349/1/4 351/1/4
f 351/1/4 349/1/4 352/1/4
f 350/2/4 351/2/4 354/2/4
f 352/2/4 353/2/4 354/2/4
f 351/2/4 352/2/4 354/2/4
f 354/2/4 353/2/4 355/2/4
f 355/2/4 353/2/4 356/2/4
f 357/1/4 358/1/4 359/1/4
f 359/1/4 358/1/4 360/1/4
f 361/1/4 362/1/4 363/1/4
f 363/1/4 362/1/4 364/1/4
f 365/1/4 366/1/4 367/1/4
f 367/1/4 366/1/4 368/1/4
f 369/1/4 370/1/4 371/1/4
f 371/1/4 370/1/4 372/1/4
f 377/1/5 374/1/5 373/1/5
f 378/1/5 374/1/5 377/1/5
f 383/2/5 376/2/5 375/2/5
f 384/2/5 376/2/5 383/2/5
f 385/1/5 379/1/5 378/1/5
f 386/1/5 379/1/5 385/1/5
f 387/1/5 381/1/5 380/1/5
f 388/1/5 381/1/5 387/1/5
f 391/1/5 383/1/5 382/1/5
f 392/1/5 383/1/5 391/1/5
f 397/1/5 390/1/5 389/1/5
f 398/1/5 390/1/5 397/1/5
f 399/1/5 394/1/5 393/1/5
f 400/1/5 394/1/5 399/1/5
f 401/2/5 396/2/5 395/2/5
f 402/2/5 396/2/5 401/2/5
f 403/2/5 396/2/5 402/2/5
f 409/1/5 399/1/5 393/1/5
f 410/1/5 399/1/5 409/1/5
f 411/1/5 399/1/5 410/1/5
f 413/1/5 405/1/5 404/1/5
f 414/1/5 405/1/5 413/1/5
f 415/2/5 407/2/5 406/2/5
f 416/2/5 407/2/5 415/2/5
f 417/1/5 409/1/5 408/1/5
f 417/1/5 410/1/5 409/1/5
f 418/1/5 410/1/5 417/1/5
f 419/1/5 410/1/5 418/1/5
f 420/1/5 410/1/5 419/1/5
f 421/2/5 412/2/5 411/2/5
f 422/2/5 412/2/5 421/2/5
f 423/1/5 402/1/5 401/1/5
f 424/1/5 402/1/5 423/1/5
f 428/2/5 418/2/5 417/2/5
f 429/1/5 420/1/5 419/1/5
f 429/1/5 422/1/5 421/1/5
f 429/1/5 421/1/5 420/1/5
f 430/1/5 422/1/5 429/1/5
f 433/2/5 426/2/5 425/2/5
f 434/2/5 426/2/5 433/2/5
f 435/2/5 432/2/5 431/2/5
f 436/2/5 432/2/5 435/2/5
f 437/1/5 428/1/5 427/1/5
f 437/2/5 418/2/5 428/2/5
f 438/2/5 418/2/5 437/2/5
f 442/1/5 437/1/5 427/1/5
f 443/1/5 437/1/5 442/1/5
f 444/1/5 441/1/5 440/1/5
f 445/1/5 441/1/5 444/1/5
f 446/1/5 439/1/5 438/1/5
f 447/1/5 439/1/5 446/1/5
f 448/1/6 449/1/6 452/1/6
f 452/1/6 449/1/6 453/1/6
f 450/2/6 451/2/6 458/2/6
f 458/2/6 451/2/6 459/2/6
f 453/1/6 454/1/6 460/1/6
f 460/1/6 454/1/6 461/1/6
f 455/1/6 456/1/6 462/1/6
f 462/1/6 456/1/6 463/1/6
f 457/1/6 458/1/6 466/1/6
f 466/1/6 458/1/6 467/1/6
f 464/1/6 465/1/6 470/1/6
f 470/1/6 465/1/6 471/1/6
f 468/1/6 469/1/6 472/1/6
f 472/1/6 469/1/6 473/1/6
f 476/1/6 477/1/6 485/1/6
f 485/1/6 477/1/6 486/1/6
f 478/2/6 479/2/6 487/2/6
f 487/2/6 479/2/6 488/2/6
f 480/1/6 481/1/6 489/1/6
f 481/1/6 482/1/6 489/1/6
f 489/1/6 482/1/6 490/1/6
f 490/1/6 482/1/6 491/1/6
f 491/1/6 482/1/6 492/1/6
f 483/2/6 484/2/6 493/2/6
f 493/2/6 484/2/6 494/2/6
f 474/1/6 475/1/6 495/1/6
f 495/1/6 475/1/6 496/1/6
f 493/1/6 494/1/6 501/1/6
f 501/1/6 494/1/6 502/1/6
f 497/2/6 498/2/6 505/2/6
f 505/2/6 498/2/6 506/2/6
f 503/2/6 504/2/6 507/2/6
f 507/2/6 504/2/6 508/2/6
f 499/1/6 500/1/6 509/1/6
f 499/1/6 509/1/6 515/1/6
f 509/1/6 510/1/6 515/1/6
f 515/1/6 510/1/6 516/1/6
f 513/1/6 514/1/6 517/1/6
f 517/1/6 514/1/6 518/1/6
f 511/1/6 512/1/6 519/1/6
f 511/1/6 519/1/6 521/1/6
f 519/1/6 520/1/6 521/1/6
f 521/1/6 520/1/6 522/1/6
f 525/2/6 526/2/6 527/2/6
f 527/2/6 526/2/6 528/2/6
f 523/1/6 524/1/6 529/1/6
f 529/1/6 524/1/6 530/1/6
f 531/2/6 532/2/6 536/2/6
f 533/1/6 534/1/6 537/1/6
f 537/1/6 534/1/6 538/1/6
f 535/1/6 536/1/6 539/1/6
f 536/2/6 532/2/6 539/2/6
f 539/2/6 532/2/6 540/2/6
f 535/1/6 539/1/6 541/1/6
f 541/1/6 539/1/6 542/1/6
f 543/1/6 544/1/6 545/1/6
f 545/1/6 544/1/6 546/1/6
f 547/2/6 548/2/6 549/2/6
f 549/2/6 548/2/6 550/2/6
