# Blender v3.2.2 OBJ File: 'Dungeon Voxel Assets.blend'
# www.blender.org
mtllib Lever_Lateral.mtl
o Lever_Lateral_Lever_Lateral.001
v -0.150000 -0.195000 -0.482500
v 0.050000 -0.095000 0.217500
v 0.050000 -0.095000 0.017500
v 0.050000 -0.195000 -0.482500
v 0.050000 -0.095000 -0.482500
v -0.050000 -0.195000 -0.082500
v -0.050000 -0.095000 -0.082500
v -0.050000 -0.195000 -0.482500
v 0.050000 0.105000 0.317500
v 0.050000 0.205000 0.417500
v 0.050000 0.205000 0.317500
v 0.050000 0.305000 0.217500
v 0.050000 0.405000 0.217500
v 0.150000 -0.295000 0.317500
v 0.150000 -0.195000 0.317500
v 0.150000 -0.195000 -0.582500
v 0.150000 -0.095000 0.017500
v 0.150000 -0.095000 -0.482500
v 0.050000 0.105000 0.417500
v -0.050000 0.305000 0.317500
v -0.050000 -0.095000 0.217500
v -0.050000 0.105000 0.217500
v -0.050000 0.405000 0.217500
v -0.050000 0.305000 0.217500
v 0.150000 -0.195000 0.217500
v 0.050000 -0.195000 0.217500
v -0.050000 0.105000 0.117500
v -0.050000 0.005000 0.117500
v -0.150000 -0.095000 0.017500
v 0.150000 0.005000 0.017500
v 0.050000 -0.095000 -0.082500
v -0.050000 0.105000 0.317500
v -0.050000 0.205000 0.217500
v 0.050000 0.205000 0.117500
v -0.050000 0.305000 0.117500
v -0.050000 0.405000 0.117500
v 0.050000 0.305000 0.117500
v 0.050000 0.405000 0.117500
v -0.050000 0.105000 0.017500
v 0.050000 0.005000 0.017500
v 0.050000 0.105000 0.017500
v -0.050000 0.005000 -0.082500
v 0.050000 0.005000 -0.082500
v -0.050000 -0.195000 -0.182500
v 0.050000 -0.195000 -0.182500
v 0.050000 -0.095000 -0.182500
v -0.050000 0.005000 -0.282500
v 0.150000 0.005000 -0.282500
v 0.150000 -0.295000 -0.582500
v -0.150000 -0.295000 0.317500
v -0.150000 -0.295000 -0.582500
v -0.050000 -0.095000 0.017500
v -0.050000 0.005000 0.017500
v 0.050000 0.005000 0.117500
v -0.050000 0.105000 0.417500
v 0.050000 0.105000 0.217500
v -0.050000 0.205000 0.317500
v -0.150000 -0.195000 0.317500
v -0.150000 -0.195000 0.217500
v -0.050000 -0.195000 0.217500
v 0.050000 -0.195000 -0.082500
v -0.150000 -0.195000 -0.582500
v 0.150000 -0.195000 -0.482500
v -0.150000 -0.095000 0.217500
v 0.150000 -0.095000 0.217500
v -0.050000 -0.095000 -0.182500
v -0.150000 -0.095000 -0.282500
v -0.050000 -0.095000 -0.282500
v -0.150000 -0.095000 -0.482500
v -0.050000 -0.095000 -0.482500
v 0.050000 -0.095000 -0.282500
v 0.150000 -0.095000 -0.282500
v -0.150000 0.005000 0.017500
v -0.150000 0.005000 -0.282500
v 0.050000 0.005000 -0.282500
v 0.050000 0.105000 0.117500
v -0.050000 0.205000 0.417500
v 0.050000 0.205000 0.217500
v -0.050000 0.205000 0.117500
v 0.050000 0.305000 0.317500
vt 0.666264 0.266195
vt 0.666264 0.066678
vt 0.599759 0.066678
vt 0.599759 0.000173
vt 0.799275 0.000173
vt 0.799275 0.066678
vt 0.732770 0.066678
vt 0.732770 0.266195
vt 0.067023 0.798931
vt 0.133529 0.798931
vt 0.133529 0.865437
vt 0.067023 0.865437
vt 0.799621 0.999483
vt 0.733115 0.999483
vt 0.733115 0.932977
vt 0.799621 0.932977
vt 0.067023 0.999138
vt 0.067023 0.932632
vt 0.133529 0.932632
vt 0.133529 0.999138
vt 0.399897 0.000173
vt 0.599414 0.000173
vt 0.599414 0.598724
vt 0.399897 0.598724
vt 0.866471 0.000173
vt 0.932977 0.000173
vt 0.932977 0.066678
vt 0.866471 0.066678
vt 0.866817 0.800311
vt 0.933322 0.800311
vt 0.933322 0.866817
vt 0.866817 0.866817
vt 0.599759 0.532563
vt 0.599759 0.466057
vt 0.666264 0.466057
vt 0.666264 0.266541
vt 0.732770 0.266541
vt 0.732770 0.466057
vt 0.799275 0.466057
vt 0.799275 0.532563
vt 0.399897 0.932632
vt 0.399897 0.999138
vt 0.333391 0.999138
vt 0.333391 0.932632
vt 0.932977 0.333391
vt 0.932977 0.399896
vt 0.866471 0.399896
vt 0.866471 0.333391
vt 0.400242 0.999138
vt 0.400242 0.932632
vt 0.466747 0.932632
vt 0.466747 0.999138
vt 0.866126 0.066678
vt 0.866126 0.133184
vt 0.866126 0.199689
vt 0.799621 0.199689
vt 0.799621 0.133184
vt 0.799621 0.066678
vt 0.799621 0.000173
vt 0.866126 0.000173
vt 0.533598 0.599069
vt 0.533598 0.798586
vt 0.467093 0.798586
vt 0.467093 0.599069
vt 0.999827 0.067023
vt 0.999827 0.133529
vt 0.933322 0.133529
vt 0.933322 0.067023
vt 0.933322 0.733460
vt 0.933322 0.799966
vt 0.866817 0.799966
vt 0.866817 0.733460
vt 0.599759 0.665920
vt 0.666264 0.665920
vt 0.666264 0.532908
vt 0.732770 0.532908
vt 0.732770 0.732425
vt 0.666264 0.732425
vt 0.666264 0.798931
vt 0.599759 0.798931
vt 0.799620 0.466402
vt 0.799620 0.333391
vt 0.866126 0.333391
vt 0.866126 0.466402
vt 0.933322 0.599759
vt 0.933322 0.666265
vt 0.866817 0.666265
vt 0.866817 0.599759
vt 0.200035 0.865436
vt 0.266540 0.865436
vt 0.266540 0.931942
vt 0.200035 0.931942
vt 0.000173 0.798931
vt 0.066678 0.798931
vt 0.066678 0.865437
vt 0.000173 0.865437
vt 0.999827 0.000173
vt 0.999827 0.066678
vt 0.933322 0.066678
vt 0.933322 0.000173
vt 0.467093 0.798931
vt 0.533598 0.798931
vt 0.533598 0.865436
vt 0.467093 0.865436
vt 0.799966 0.799966
vt 0.866471 0.799966
vt 0.866471 0.866472
vt 0.799966 0.866472
vt 0.133184 0.199690
vt 0.199690 0.199690
vt 0.199690 0.399207
vt 0.133184 0.399207
vt 0.133184 0.532218
vt 0.066678 0.532218
vt 0.066678 0.598724
vt 0.000173 0.598724
vt 0.000173 0.000173
vt 0.066678 0.000173
vt 0.066678 0.066678
vt 0.133184 0.066678
vt 0.333391 0.798931
vt 0.399897 0.798931
vt 0.399897 0.865436
vt 0.333391 0.865436
vt 0.866471 0.400241
vt 0.932977 0.400241
vt 0.932977 0.466747
vt 0.866471 0.466747
vt 0.333391 0.865781
vt 0.399897 0.865781
vt 0.399897 0.932287
vt 0.333391 0.932287
vt 0.866471 0.266540
vt 0.932977 0.266540
vt 0.932977 0.333046
vt 0.866471 0.333046
vt 0.866817 0.666610
vt 0.933322 0.666610
vt 0.933322 0.733115
vt 0.866817 0.733115
vt 0.799621 0.866126
vt 0.799621 0.932632
vt 0.733115 0.932632
vt 0.733115 0.866126
vt 0.000173 0.932632
vt 0.066678 0.932632
vt 0.066678 0.999138
vt 0.000173 0.999138
vt 0.333046 0.199689
vt 0.399552 0.199689
vt 0.399552 0.399207
vt 0.333046 0.399207
vt 0.333046 0.532218
vt 0.266540 0.532218
vt 0.266540 0.598724
vt 0.200035 0.598724
vt 0.200035 0.000173
vt 0.266540 0.000173
vt 0.266540 0.066678
vt 0.333046 0.066678
vt 0.400242 0.798931
vt 0.466747 0.798931
vt 0.466747 0.865436
vt 0.400242 0.865436
vt 0.666264 0.866127
vt 0.666264 0.932632
vt 0.599759 0.932632
vt 0.599759 0.866127
vt 0.933322 0.867162
vt 0.933322 0.933668
vt 0.866817 0.933668
vt 0.866817 0.867162
vt 0.799620 0.333046
vt 0.799620 0.200034
vt 0.866126 0.200034
vt 0.866126 0.333046
vt 0.866471 0.133874
vt 0.932977 0.133874
vt 0.932977 0.200380
vt 0.866471 0.200380
vt 0.799966 0.666264
vt 0.866471 0.666264
vt 0.866471 0.732770
vt 0.799966 0.732770
vt 0.866472 0.866817
vt 0.866472 0.933322
vt 0.799966 0.933322
vt 0.799966 0.866817
vt 0.467093 0.932287
vt 0.467093 0.865781
vt 0.533598 0.865781
vt 0.533598 0.932287
vt 0.933322 0.532908
vt 0.933322 0.599414
vt 0.866817 0.599414
vt 0.866817 0.532908
vt 0.799966 0.665919
vt 0.799966 0.532908
vt 0.866472 0.532908
vt 0.866472 0.665919
vt 0.000173 0.865782
vt 0.066678 0.865782
vt 0.066678 0.932287
vt 0.000173 0.932287
vt 0.933322 0.133874
vt 0.999827 0.133874
vt 0.999827 0.200379
vt 0.933322 0.200379
vt 0.266540 0.732080
vt 0.333046 0.732080
vt 0.333046 0.865091
vt 0.266540 0.865091
vt 0.266540 0.798586
vt 0.200035 0.798586
vt 0.200035 0.599069
vt 0.266540 0.599069
vt 0.799966 0.733115
vt 0.866471 0.733115
vt 0.866471 0.799621
vt 0.799966 0.799621
vt 0.466747 0.865782
vt 0.466747 0.932287
vt 0.400242 0.932287
vt 0.400242 0.865782
vt 0.399897 0.665574
vt 0.399897 0.798586
vt 0.333391 0.798586
vt 0.333391 0.599069
vt 0.399897 0.599069
vt 0.866471 0.067023
vt 0.932977 0.067023
vt 0.932977 0.133529
vt 0.866471 0.133529
vt 0.467093 0.999138
vt 0.467093 0.932632
vt 0.533598 0.932632
vt 0.533598 0.999138
vt 0.466748 0.599069
vt 0.466748 0.798586
vt 0.400242 0.798586
vt 0.400242 0.665574
vt 0.400242 0.599069
vt 0.266540 0.932287
vt 0.266540 0.998793
vt 0.200035 0.998793
vt 0.200035 0.932287
vt 0.067023 0.865782
vt 0.133529 0.865782
vt 0.133529 0.932287
vt 0.067023 0.932287
vt 0.733115 0.732425
vt 0.733115 0.532908
vt 0.799621 0.532908
vt 0.799621 0.732425
vt 0.599759 0.999483
vt 0.599759 0.932978
vt 0.666265 0.932978
vt 0.666265 0.999483
vt 0.599759 0.799276
vt 0.666265 0.799276
vt 0.666265 0.865782
vt 0.599759 0.865782
vt 0.199689 0.599069
vt 0.199689 0.798586
vt 0.133184 0.798586
vt 0.066678 0.798586
vt 0.000173 0.798586
vt 0.000173 0.599069
vt 0.066678 0.599069
vt 0.066678 0.732080
vt 0.133184 0.732080
vt 0.133184 0.599069
vt 0.733116 0.865781
vt 0.733116 0.732770
vt 0.799621 0.732770
vt 0.799621 0.865781
vn 0.0000 1.0000 0.0000
vn 1.0000 -0.0000 0.0000
vn 0.0000 -1.0000 -0.0000
vn 0.0000 0.0000 -1.0000
vn -1.0000 0.0000 0.0000
vn 0.0000 -0.0000 1.0000
usemtl Lever_Lateral
s off
f 45/1/1 4/2/1 63/3/1 16/4/1 62/5/1 1/6/1 8/7/1 44/8/1
f 78/9/2 12/10/2 80/11/2 11/12/2
f 9/13/3 19/14/3 55/15/3 32/16/3
f 31/17/1 46/18/1 66/19/1 7/20/1
f 51/21/3 49/22/3 14/23/3 50/24/3
f 57/25/4 11/26/4 9/27/4 32/28/4
f 36/29/4 38/30/4 37/31/4 35/32/4
f 15/33/1 25/34/1 26/35/1 61/36/1 6/37/1 60/38/1 59/39/1 58/40/1
f 40/41/3 54/42/3 28/43/3 53/44/3
f 57/45/5 32/46/5 55/47/5 77/48/5
f 13/49/1 38/50/1 36/51/1 23/52/1
f 40/53/6 53/54/6 73/55/6 29/56/6 52/57/6 3/58/6 17/59/6 30/60/6
f 15/61/6 58/62/6 50/63/6 14/64/6
f 37/65/3 12/66/3 24/67/3 35/68/3
f 76/69/2 34/70/2 78/71/2 56/72/2
f 75/73/5 71/74/5 5/75/5 4/76/5 45/77/5 46/78/5 31/79/5 43/80/5
f 65/81/1 17/82/1 3/83/1 2/84/1
f 40/85/2 41/86/2 76/87/2 54/88/2
f 42/89/4 43/90/4 31/91/4 7/92/4
f 24/93/5 33/94/5 57/95/5 20/96/5
f 76/97/3 56/98/3 22/99/3 27/100/3
f 5/101/4 18/102/4 63/103/4 4/104/4
f 69/105/4 70/106/4 8/107/4 1/108/4
f 72/109/2 48/110/2 30/111/2 17/112/2 65/113/2 25/114/2 15/115/2 14/116/2 49/117/2 16/118/2 63/119/2 18/120/2
f 65/121/6 2/122/6 26/123/6 25/124/6
f 10/125/6 77/126/6 55/127/6 19/128/6
f 80/129/6 20/130/6 57/131/6 11/132/6
f 76/133/6 27/134/6 28/135/6 54/136/6
f 78/137/6 33/138/6 22/139/6 56/140/6
f 31/141/3 3/142/3 52/143/3 7/144/3
f 13/145/6 23/146/6 24/147/6 12/148/6
f 29/149/5 73/150/5 74/151/5 67/152/5 69/153/5 1/154/5 62/155/5 51/156/5 50/157/5 58/158/5 59/159/5 64/160/5
f 66/161/4 46/162/4 45/163/4 44/164/4
f 39/165/5 53/166/5 28/167/5 27/168/5
f 37/169/2 38/170/2 13/171/2 12/172/2
f 68/173/1 70/174/1 69/175/1 67/176/1
f 79/177/4 34/178/4 76/179/4 27/180/4
f 75/181/4 48/182/4 72/183/4 71/184/4
f 9/185/2 11/186/2 10/187/2 19/188/2
f 80/189/1 12/190/1 24/191/1 20/192/1
f 79/193/5 27/194/5 22/195/5 33/196/5
f 21/197/1 52/198/1 29/199/1 64/200/1
f 21/201/6 64/202/6 59/203/6 60/204/6
f 10/205/1 11/206/1 57/207/1 77/208/1
f 68/209/2 47/210/2 42/211/2 7/212/2 66/213/2 44/214/2 8/215/2 70/216/2
f 74/217/4 47/218/4 68/219/4 67/220/4
f 78/221/3 11/222/3 57/223/3 33/224/3
f 52/225/2 21/226/2 60/227/2 6/228/2 7/229/2
f 39/230/4 41/231/4 40/232/4 53/233/4
f 78/234/1 34/235/1 79/236/1 33/237/1
f 61/238/5 26/239/5 2/240/5 3/241/5 31/242/5
f 36/243/5 35/244/5 24/245/5 23/246/5
f 24/247/4 12/248/4 78/249/4 33/250/4
f 49/251/4 51/252/4 62/253/4 16/254/4
f 76/255/1 41/256/1 39/257/1 27/258/1
f 31/259/6 7/260/6 6/261/6 61/262/6
f 74/263/1 73/264/1 53/265/1 40/266/1 30/267/1 48/268/1 75/269/1 43/270/1 42/271/1 47/272/1
f 72/273/1 18/274/1 5/275/1 71/276/1
