# Blender v3.2.2 OBJ File: 'Dungeon Voxel Assets.blend'
# www.blender.org
mtllib Trap_Wall_Small_Active.mtl
o Trap_Wall_Small_Active_Trap_Wall_Small_Active.001
v -0.400000 -0.200000 -1.290909
v -0.400000 -0.200000 -1.190909
v -0.300000 -0.400000 -1.190909
v -0.300000 0.300000 -1.290909
v -0.300000 0.200000 -1.290909
v -0.300000 -0.100000 1.409091
v -0.300000 -0.200000 1.609091
v -0.200000 0.100000 -1.190909
v -0.200000 0.100000 -1.290909
v -0.200000 0.300000 -1.190909
v -0.200000 0.400000 -1.290909
v -0.200000 0.300000 -1.290909
v -0.200000 0.100000 1.509091
v -0.200000 0.200000 1.509091
v -0.200000 0.300000 1.509091
v -0.200000 0.400000 1.509091
v -0.200000 0.300000 1.609091
v -0.000000 -0.300000 1.509091
v -0.000000 -0.300000 1.409091
v 0.100000 -0.100000 -1.290909
v 0.100000 -0.100000 -1.190909
v 0.100000 -0.300000 1.409091
v 0.100000 0.200000 1.509091
v 0.100000 0.300000 1.509091
v 0.100000 -0.300000 1.509091
v 0.200000 0.400000 -1.190909
v 0.200000 0.300000 1.409091
v -0.200000 -0.300000 -1.290909
v -0.200000 -0.100000 1.409091
v -0.200000 -0.300000 1.509091
v -0.200000 -0.200000 1.609091
v -0.100000 -0.300000 -1.290909
v -0.100000 -0.300000 -1.190909
v -0.100000 -0.200000 -1.190909
v -0.100000 0.200000 -1.190909
v -0.100000 0.300000 -1.290909
v -0.000000 0.200000 -1.190909
v 0.200000 -0.100000 -1.290909
v 0.200000 -0.200000 -1.190909
v 0.200000 -0.300000 1.409091
v 0.200000 -0.200000 1.409091
v 0.200000 -0.300000 1.509091
v 0.300000 -0.200000 -1.190909
v 0.300000 0.200000 -1.290909
v 0.300000 0.200000 -1.190909
v 0.300000 0.400000 -1.290909
v 0.300000 0.300000 -1.190909
v 0.300000 -0.200000 1.509091
v 0.300000 0.200000 1.509091
v 0.300000 0.200000 1.609091
v 0.400000 0.300000 -1.190909
v 0.400000 0.200000 1.509091
v 0.400000 0.300000 1.509091
v -0.200000 -0.400000 -1.290909
v -0.300000 -0.400000 -1.290909
v -0.200000 -0.400000 -1.190909
v -0.300000 -0.400000 1.409091
v 0.200000 -0.400000 -1.290909
v 0.100000 -0.400000 -1.290909
v 0.200000 -0.400000 -1.190909
v -0.400000 -0.300000 -1.290909
v -0.300000 -0.300000 -1.190909
v -0.200000 -0.300000 -1.190909
v -0.300000 -0.300000 1.409091
v -0.200000 -0.300000 1.409091
v -0.300000 -0.300000 1.609091
v -0.200000 -0.300000 1.609091
v 0.100000 -0.300000 -1.290909
v -0.000000 -0.300000 -1.190909
v 0.200000 -0.300000 1.609091
v 0.200000 -0.300000 -1.290909
v 0.300000 -0.300000 -1.190909
v 0.300000 -0.300000 1.409091
v -0.100000 0.100000 -1.290909
v 0.300000 0.100000 -1.290909
v 0.200000 0.100000 -1.190909
v 0.300000 0.100000 -1.190909
v -0.200000 0.200000 1.409091
v -0.100000 0.200000 1.409091
v -0.000000 0.200000 -1.290909
v -0.100000 0.200000 -1.290909
v 0.100000 0.200000 -1.190909
v 0.100000 0.200000 -1.290909
v 0.100000 0.200000 1.409091
v 0.400000 0.200000 -1.290909
v -0.200000 -0.200000 -1.190909
v -0.200000 -0.200000 1.509091
v -0.000000 -0.200000 -1.290909
v -0.000000 -0.200000 1.409091
v -0.000000 -0.200000 1.509091
v 0.100000 -0.200000 1.409091
v 0.200000 -0.200000 1.609091
v 0.300000 -0.200000 -1.290909
v 0.300000 -0.200000 1.409091
v -0.300000 -0.100000 -1.190909
v -0.300000 -0.100000 1.509091
v -0.200000 0.300000 1.409091
v -0.100000 0.300000 1.409091
v -0.000000 0.300000 -1.190909
v 0.100000 0.300000 -1.290909
v 0.200000 0.300000 -1.290909
v 0.200000 0.300000 -1.190909
v 0.200000 0.300000 1.509091
v 0.300000 0.300000 1.409091
v 0.300000 0.300000 1.509091
v 0.400000 0.300000 1.409091
v -0.100000 0.400000 -1.290909
v -0.200000 0.400000 1.409091
v -0.100000 0.400000 1.409091
v 0.200000 0.400000 -1.290909
v -0.300000 -0.300000 -1.290909
v -0.300000 -0.200000 -1.290909
v -0.200000 -0.200000 -1.290909
v -0.100000 -0.200000 -1.290909
v 0.300000 -0.300000 -1.290909
v -0.000000 -0.300000 -1.290909
v 0.100000 -0.200000 -1.290909
v 0.200000 -0.200000 -1.290909
v -0.300000 -0.100000 -1.290909
v -0.200000 -0.100000 -1.290909
v -0.200000 0.200000 -1.290909
v 0.200000 0.200000 -1.290909
v 0.200000 0.100000 -1.290909
v -0.000000 0.300000 -1.290909
v 0.300000 0.300000 -1.290909
v 0.400000 0.300000 -1.290909
v -0.200000 -0.400000 1.409091
v -0.200000 -0.200000 1.409091
v -0.300000 -0.200000 1.409091
v -0.100000 0.100000 1.409091
v -0.200000 0.100000 1.409091
v 0.100000 0.300000 1.409091
v 0.200000 0.200000 1.409091
v 0.400000 0.200000 1.409091
v 0.300000 0.200000 1.409091
v 0.100000 -0.400000 -1.190909
v 0.100000 -0.300000 -1.190909
v 0.200000 -0.300000 -1.190909
v -0.400000 -0.300000 -1.190909
v -0.300000 -0.200000 -1.190909
v -0.000000 -0.200000 -1.190909
v 0.100000 -0.200000 -1.190909
v -0.200000 -0.100000 -1.190909
v 0.200000 -0.100000 -1.190909
v -0.100000 0.100000 -1.190909
v -0.200000 0.200000 -1.190909
v 0.200000 0.200000 -1.190909
v -0.300000 0.200000 -1.190909
v -0.300000 0.300000 -1.190909
v -0.100000 0.300000 -1.190909
v 0.100000 0.300000 -1.190909
v 0.400000 0.200000 -1.190909
v -0.200000 0.400000 -1.190909
v -0.100000 0.400000 -1.190909
v 0.300000 0.400000 -1.190909
v -0.300000 -0.400000 1.509091
v -0.200000 -0.400000 1.509091
v -0.300000 -0.300000 1.509091
v 0.100000 -0.200000 1.509091
v 0.300000 -0.300000 1.509091
v 0.200000 -0.200000 1.509091
v -0.300000 -0.200000 1.509091
v -0.200000 -0.100000 1.509091
v -0.100000 0.100000 1.509091
v -0.100000 0.200000 1.509091
v 0.200000 0.200000 1.509091
v -0.100000 0.300000 1.509091
v -0.100000 0.400000 1.509091
v 0.100000 -0.300000 1.609091
v 0.100000 -0.200000 1.609091
v -0.200000 0.200000 1.609091
v -0.100000 0.200000 1.609091
v -0.100000 0.300000 1.609091
v 0.200000 0.200000 1.609091
v 0.200000 0.300000 1.609091
v 0.300000 0.300000 1.609091
vt 0.030663 0.976113
vt 0.000204 0.976113
vt 0.000204 0.945654
vt 0.030663 0.945654
vt 0.542503 0.945655
vt 0.512044 0.945655
vt 0.512044 0.915196
vt 0.542503 0.915196
vt 0.243161 0.896537
vt 0.264699 0.918075
vt 0.243161 0.939612
vt 0.221623 0.918075
vt 0.200086 0.939612
vt 0.178548 0.918075
vt 0.200086 0.896537
vt 0.178548 0.874999
vt 0.200086 0.853461
vt 0.221623 0.874999
vt 0.243161 0.853461
vt 0.264699 0.874999
vt 0.857545 0.909970
vt 0.857545 0.940429
vt 0.827086 0.940429
vt 0.827086 0.909970
vt 0.357709 0.884329
vt 0.388168 0.884329
vt 0.388168 0.914788
vt 0.357709 0.914788
vt 0.765351 0.000204
vt 0.795811 0.000204
vt 0.795811 0.792135
vt 0.765351 0.792135
vt 0.573371 0.945655
vt 0.542912 0.945655
vt 0.542912 0.915196
vt 0.573371 0.915196
vt 0.950146 0.940429
vt 0.919687 0.940429
vt 0.919687 0.909970
vt 0.950146 0.909970
vt 0.030663 0.000204
vt 0.061122 0.000204
vt 0.061122 0.792135
vt 0.091581 0.792135
vt 0.091581 0.822594
vt 0.061122 0.822594
vt 0.061122 0.853053
vt 0.030663 0.853053
vt 0.030663 0.822594
vt 0.000204 0.822594
vt 0.000204 0.792135
vt 0.030663 0.792135
vt 0.919279 0.909970
vt 0.919279 0.940429
vt 0.888820 0.940429
vt 0.888820 0.909970
vt 0.734076 0.945655
vt 0.703617 0.945655
vt 0.703617 0.915196
vt 0.734076 0.915196
vt 0.642699 0.822594
vt 0.642699 0.792135
vt 0.673158 0.792135
vt 0.673158 0.000204
vt 0.703617 0.000204
vt 0.703617 0.792135
vt 0.734076 0.792135
vt 0.734076 0.822594
vt 0.703617 0.822594
vt 0.703617 0.853053
vt 0.673158 0.853053
vt 0.673158 0.822594
vt 0.581373 0.000204
vt 0.611832 0.000204
vt 0.611832 0.792135
vt 0.642291 0.792135
vt 0.642291 0.822594
vt 0.611832 0.822594
vt 0.611832 0.853053
vt 0.581373 0.853053
vt 0.581373 0.822594
vt 0.550914 0.822594
vt 0.550914 0.792135
vt 0.581373 0.792135
vt 0.489588 0.000204
vt 0.520047 0.000204
vt 0.520047 0.792135
vt 0.550506 0.792135
vt 0.550506 0.822594
vt 0.520047 0.822594
vt 0.520047 0.853053
vt 0.489588 0.853053
vt 0.489588 0.822594
vt 0.459129 0.822594
vt 0.459129 0.792135
vt 0.489588 0.792135
vt 0.919687 0.909561
vt 0.919687 0.879102
vt 0.950146 0.879102
vt 0.950146 0.909561
vt 0.666380 0.915196
vt 0.696839 0.915196
vt 0.696839 0.945655
vt 0.666380 0.945655
vt 0.450310 0.946063
vt 0.480769 0.946063
vt 0.480769 0.976522
vt 0.450310 0.976522
vt 0.938470 0.853869
vt 0.938470 0.823411
vt 0.968928 0.823411
vt 0.968928 0.853869
vt 0.419035 0.914787
vt 0.388576 0.914787
vt 0.388576 0.884328
vt 0.419035 0.884328
vt 0.981013 0.971296
vt 0.950555 0.971296
vt 0.950555 0.940837
vt 0.981013 0.940837
vt 0.419443 0.884328
vt 0.449902 0.884328
vt 0.449902 0.914787
vt 0.419443 0.914787
vt 0.153315 0.940020
vt 0.153315 0.970479
vt 0.122856 0.970479
vt 0.122856 0.940020
vt 0.265107 0.914379
vt 0.265107 0.883920
vt 0.295566 0.883920
vt 0.295566 0.914379
vt 0.857953 0.879103
vt 0.888412 0.879103
vt 0.888412 0.909562
vt 0.857953 0.909562
vt 0.826677 0.940837
vt 0.826677 0.971296
vt 0.796219 0.971296
vt 0.796219 0.940837
vt 0.665972 0.976522
vt 0.635513 0.976522
vt 0.635513 0.946063
vt 0.665972 0.946063
vt 0.604647 0.945655
vt 0.604647 0.915196
vt 0.635105 0.915196
vt 0.635105 0.945655
vt 0.796219 0.940429
vt 0.796219 0.909970
vt 0.826678 0.909970
vt 0.826678 0.940429
vt 0.919687 0.971296
vt 0.919687 0.940837
vt 0.950146 0.940837
vt 0.950146 0.971296
vt 0.888820 0.940837
vt 0.919279 0.940837
vt 0.919279 0.971296
vt 0.888820 0.971296
vt 0.061530 0.976113
vt 0.031072 0.976113
vt 0.031072 0.945654
vt 0.061530 0.945654
vt 0.511636 0.945655
vt 0.481177 0.945655
vt 0.481177 0.915196
vt 0.511636 0.915196
vt 0.796219 0.792135
vt 0.796219 0.000204
vt 0.826678 0.000204
vt 0.826678 0.792135
vt 0.666381 0.853461
vt 0.696840 0.853461
vt 0.696840 0.883921
vt 0.666381 0.883921
vt 0.703617 0.853461
vt 0.734076 0.853461
vt 0.734076 0.883921
vt 0.703617 0.883921
vt 0.265107 0.945654
vt 0.295566 0.945654
vt 0.295566 0.976113
vt 0.265107 0.976113
vt 0.734485 0.000204
vt 0.764944 0.000204
vt 0.764944 0.792135
vt 0.734485 0.792135
vt 0.635513 0.915196
vt 0.665972 0.915196
vt 0.665972 0.945655
vt 0.635513 0.945655
vt 0.061530 0.914379
vt 0.031071 0.914379
vt 0.031071 0.883920
vt 0.061530 0.883920
vt 0.419443 0.946063
vt 0.449902 0.946063
vt 0.449902 0.976522
vt 0.419443 0.976522
vt 0.796219 0.909562
vt 0.796219 0.879103
vt 0.826678 0.879103
vt 0.826678 0.909562
vt 0.265107 0.914787
vt 0.295566 0.914787
vt 0.295566 0.945246
vt 0.265107 0.945246
vt 0.481178 0.914787
vt 0.481178 0.884328
vt 0.511636 0.884328
vt 0.511636 0.914787
vt 0.458721 0.792135
vt 0.458721 0.822594
vt 0.428262 0.822594
vt 0.428262 0.853053
vt 0.397803 0.853053
vt 0.397803 0.822594
vt 0.367344 0.822594
vt 0.367345 0.792135
vt 0.397803 0.792135
vt 0.397803 0.000204
vt 0.428262 0.000204
vt 0.428262 0.792135
vt 0.857953 0.971296
vt 0.857953 0.940837
vt 0.888412 0.940837
vt 0.888412 0.971296
vt 0.635104 0.976522
vt 0.604646 0.976522
vt 0.604646 0.946063
vt 0.635104 0.946063
vt 0.696839 0.976522
vt 0.666381 0.976522
vt 0.666381 0.946063
vt 0.696839 0.946063
vt 0.450310 0.915196
vt 0.480769 0.915196
vt 0.480769 0.945655
vt 0.450310 0.945655
vt 0.357709 0.853461
vt 0.388168 0.853461
vt 0.388168 0.883921
vt 0.357709 0.883921
vt 0.512045 0.883921
vt 0.512045 0.853461
vt 0.542504 0.853461
vt 0.542504 0.883921
vt 0.215049 0.970479
vt 0.184590 0.970479
vt 0.184590 0.940020
vt 0.215049 0.940020
vt 0.795810 0.909562
vt 0.765351 0.909562
vt 0.765351 0.879103
vt 0.795810 0.879103
vt 0.635513 0.914787
vt 0.635513 0.884328
vt 0.665972 0.884328
vt 0.665972 0.914787
vt 0.666381 0.914787
vt 0.666381 0.884328
vt 0.696840 0.884328
vt 0.696840 0.914787
vt 0.153724 0.970479
vt 0.153724 0.940020
vt 0.184182 0.940020
vt 0.184182 0.970479
vt 0.919688 0.792135
vt 0.919688 0.000204
vt 0.950147 0.000204
vt 0.950147 0.792135
vt 0.857954 0.792135
vt 0.857954 0.000204
vt 0.888413 0.000204
vt 0.888412 0.792135
vt 0.419443 0.853461
vt 0.449902 0.853461
vt 0.449902 0.883921
vt 0.419443 0.883921
vt 0.511636 0.883921
vt 0.481178 0.883921
vt 0.481178 0.853461
vt 0.511636 0.853461
vt 0.703617 0.914788
vt 0.703617 0.884329
vt 0.734076 0.884329
vt 0.734076 0.914788
vt 0.573779 0.914787
vt 0.573779 0.884328
vt 0.604238 0.884328
vt 0.604238 0.914787
vt 0.734484 0.879103
vt 0.764943 0.879103
vt 0.764943 0.909562
vt 0.734484 0.909562
vt 0.857545 0.000204
vt 0.857545 0.792135
vt 0.827086 0.792135
vt 0.827086 0.000204
vt 0.511636 0.976522
vt 0.481177 0.976522
vt 0.481177 0.946063
vt 0.511636 0.946063
vt 0.366937 0.822594
vt 0.336477 0.822594
vt 0.336477 0.853053
vt 0.306019 0.853053
vt 0.306019 0.822594
vt 0.275559 0.822594
vt 0.275559 0.792135
vt 0.306019 0.792135
vt 0.306019 0.000204
vt 0.336477 0.000204
vt 0.336477 0.792135
vt 0.366937 0.792135
vt 0.388576 0.853461
vt 0.419035 0.853461
vt 0.419035 0.883921
vt 0.388576 0.883921
vt 0.512045 0.914787
vt 0.512045 0.884328
vt 0.542504 0.884328
vt 0.542504 0.914787
vt 0.734076 0.976522
vt 0.703617 0.976522
vt 0.703617 0.946063
vt 0.734076 0.946063
vt 0.827086 0.909562
vt 0.827086 0.879103
vt 0.857545 0.879103
vt 0.857545 0.909562
vt 0.030663 0.914787
vt 0.030663 0.945246
vt 0.000204 0.945246
vt 0.000204 0.914787
vt 0.542912 0.914787
vt 0.542912 0.884328
vt 0.573371 0.884328
vt 0.573371 0.914787
vt 0.295975 0.914379
vt 0.295975 0.883920
vt 0.326433 0.883920
vt 0.326433 0.914379
vt 0.244692 0.792135
vt 0.275151 0.792135
vt 0.275151 0.822594
vt 0.244692 0.822594
vt 0.244692 0.853053
vt 0.214233 0.853053
vt 0.214233 0.822594
vt 0.183774 0.822594
vt 0.183774 0.792135
vt 0.214233 0.792135
vt 0.214233 0.000204
vt 0.244692 0.000204
vt 0.326842 0.884328
vt 0.357301 0.884328
vt 0.357301 0.914787
vt 0.326842 0.914787
vt 0.326433 0.976522
vt 0.295974 0.976522
vt 0.295974 0.946063
vt 0.326433 0.946063
vt 0.388168 0.945655
vt 0.357709 0.945655
vt 0.357709 0.915196
vt 0.388168 0.915196
vt 0.888820 0.909562
vt 0.888820 0.879103
vt 0.919279 0.879103
vt 0.919279 0.909562
vt 0.573370 0.976522
vt 0.542912 0.976522
vt 0.542912 0.946063
vt 0.573370 0.946063
vt 0.765351 0.940430
vt 0.765351 0.909970
vt 0.795810 0.909970
vt 0.795810 0.940430
vt 0.604238 0.976522
vt 0.573779 0.976522
vt 0.573779 0.946063
vt 0.604238 0.946063
vt 0.950555 0.000204
vt 0.981013 0.000204
vt 0.981013 0.792135
vt 0.950555 0.792135
vt 0.635513 0.853461
vt 0.665972 0.853461
vt 0.665972 0.883921
vt 0.635513 0.883921
vt 0.604646 0.853461
vt 0.635105 0.853461
vt 0.635105 0.883921
vt 0.604646 0.883921
vt 0.450310 0.914787
vt 0.450310 0.884328
vt 0.480769 0.884328
vt 0.480769 0.914787
vt 0.734484 0.940430
vt 0.734484 0.909970
vt 0.764943 0.909970
vt 0.764943 0.940430
vt 0.512044 0.976522
vt 0.512044 0.946063
vt 0.542502 0.946063
vt 0.542502 0.976522
vt 0.326842 0.853461
vt 0.357301 0.853461
vt 0.357301 0.883921
vt 0.326842 0.883921
vt 0.031071 0.945246
vt 0.031071 0.914787
vt 0.061530 0.914787
vt 0.061530 0.945246
vt 0.981012 0.909561
vt 0.950554 0.909561
vt 0.950554 0.879102
vt 0.981012 0.879102
vt 0.734484 0.940837
vt 0.764943 0.940837
vt 0.764943 0.971296
vt 0.734484 0.971296
vt 0.000204 0.883921
vt 0.030663 0.883921
vt 0.030663 0.914380
vt 0.000204 0.914380
vt 0.907603 0.853869
vt 0.907603 0.823410
vt 0.938062 0.823410
vt 0.938062 0.853869
vt 0.030663 0.883512
vt 0.061122 0.883512
vt 0.999795 0.823002
vt 0.969337 0.823002
vt 0.969337 0.792543
vt 0.999795 0.792543
vt 0.795810 0.940837
vt 0.795810 0.971296
vt 0.765351 0.971296
vt 0.765351 0.940837
vt 0.857953 0.940429
vt 0.857953 0.909970
vt 0.888412 0.909970
vt 0.888412 0.940429
vt 0.573779 0.945655
vt 0.573779 0.915196
vt 0.604238 0.915196
vt 0.604238 0.945655
vt 0.295975 0.853461
vt 0.326433 0.853461
vt 0.419443 0.945655
vt 0.419443 0.915196
vt 0.449902 0.915196
vt 0.449902 0.945655
vt 0.981013 0.940429
vt 0.950555 0.940429
vt 0.950555 0.909970
vt 0.981013 0.909970
vt 0.245917 0.970479
vt 0.215458 0.970479
vt 0.215458 0.940020
vt 0.245917 0.940020
vt 0.907603 0.823003
vt 0.907603 0.792543
vt 0.938062 0.792543
vt 0.938062 0.823003
vt 0.604646 0.914787
vt 0.604646 0.884328
vt 0.635105 0.884328
vt 0.635105 0.914787
vt 0.938470 0.792543
vt 0.968929 0.792543
vt 0.968929 0.823002
vt 0.938470 0.823002
vt 0.265107 0.853461
vt 0.295566 0.853461
vt 0.756022 0.835619
vt 0.734485 0.814081
vt 0.756022 0.792543
vt 0.777560 0.814081
vt 0.799098 0.792544
vt 0.820636 0.814081
vt 0.799098 0.835619
vt 0.820636 0.857157
vt 0.799098 0.878695
vt 0.777560 0.857157
vt 0.756022 0.878695
vt 0.734485 0.857157
vt 0.152907 0.000204
vt 0.152907 0.792135
vt 0.183367 0.792135
vt 0.183367 0.822594
vt 0.152907 0.822594
vt 0.152907 0.853053
vt 0.122449 0.853053
vt 0.122449 0.822594
vt 0.091990 0.822594
vt 0.091990 0.792135
vt 0.122449 0.792135
vt 0.122449 0.000204
vt 0.864120 0.857157
vt 0.842582 0.878695
vt 0.821044 0.857157
vt 0.842582 0.835619
vt 0.821044 0.814081
vt 0.842582 0.792543
vt 0.864120 0.814081
vt 0.885657 0.792543
vt 0.907195 0.814081
vt 0.885657 0.835619
vt 0.907195 0.857157
vt 0.885657 0.878695
vt 0.113527 0.896537
vt 0.091990 0.874999
vt 0.113527 0.853461
vt 0.135065 0.874999
vt 0.156603 0.853461
vt 0.178140 0.874999
vt 0.156603 0.896537
vt 0.178141 0.918075
vt 0.156603 0.939612
vt 0.135065 0.918075
vt 0.113527 0.939612
vt 0.091990 0.918075
vt 0.122448 0.970479
vt 0.091989 0.970479
vt 0.091989 0.940020
vt 0.122448 0.940020
vt 0.573779 0.883921
vt 0.573779 0.853461
vt 0.604238 0.853461
vt 0.604238 0.883921
vt 0.388168 0.976522
vt 0.357709 0.976522
vt 0.357709 0.946063
vt 0.388168 0.946063
vt 0.388576 0.976522
vt 0.388576 0.946063
vt 0.419034 0.946063
vt 0.419034 0.976522
vt 0.827086 0.940837
vt 0.857545 0.940837
vt 0.857545 0.971296
vt 0.827086 0.971296
vt 0.419035 0.945655
vt 0.388576 0.945655
vt 0.388576 0.915196
vt 0.419035 0.915196
vt 0.542912 0.853461
vt 0.573371 0.853461
vt 0.573371 0.883921
vt 0.542912 0.883921
vt 0.357301 0.945655
vt 0.326842 0.945655
vt 0.326842 0.915196
vt 0.357301 0.915196
vt 0.888821 0.000204
vt 0.919280 0.000204
vt 0.919280 0.792135
vt 0.888821 0.792135
vt 0.326842 0.946063
vt 0.357301 0.946063
vt 0.357301 0.976522
vt 0.326842 0.976522
vt 0.480769 0.883921
vt 0.450310 0.883921
vt 0.450310 0.853461
vt 0.480769 0.853461
vn 1.0000 0.0000 0.0000
vn 0.0000 0.0000 -1.0000
vn 0.0000 0.0000 1.0000
vn 0.0000 1.0000 0.0000
vn -1.0000 0.0000 0.0000
vn 0.0000 -1.0000 -0.0000
usemtl Trap_Wall_Small_Active
s off
f 114/1/1 34/2/1 33/3/1 32/4/1
f 81/5/1 35/6/1 145/7/1 74/8/1
f 122/9/2 83/10/2 100/11/2 101/12/2 110/13/2 46/14/2 125/15/2 126/16/2 85/17/2 44/18/2 75/19/2 123/20/2
f 161/21/1 92/22/1 70/23/1 42/24/1
f 152/25/3 51/26/3 47/27/3 45/28/3
f 150/29/4 10/30/4 97/31/4 98/32/4
f 46/33/1 155/34/1 47/35/1 125/36/1
f 28/37/1 63/38/1 56/39/1 54/40/1
f 39/41/4 142/42/4 91/43/4 89/44/4 90/45/4 159/46/4 170/47/4 92/48/4 161/49/4 48/50/4 94/51/4 41/52/4
f 94/53/1 48/54/1 160/55/1 73/56/1
f 71/57/1 138/58/1 60/59/1 58/60/1
f 96/61/5 6/62/5 129/63/5 140/64/5 62/65/5 64/66/5 57/67/5 156/68/5 158/69/5 66/70/5 7/71/5 162/72/5
f 63/73/1 86/74/1 128/75/1 29/76/1 163/77/1 87/78/1 31/79/1 67/80/1 30/81/1 157/82/1 127/83/1 65/84/1
f 10/85/5 146/86/5 78/87/5 131/88/5 13/89/5 14/90/5 171/91/5 17/92/5 15/93/5 16/94/5 108/95/5 97/96/5
f 72/97/3 43/98/3 39/99/3 138/100/3
f 2/101/5 1/102/5 61/103/5 139/104/5
f 149/105/5 4/106/5 5/107/5 148/108/5
f 56/109/3 63/110/3 62/111/3 3/112/3
f 106/113/2 134/114/2 135/115/2 104/116/2
f 77/117/6 76/118/6 123/119/6 75/120/6
f 172/121/3 173/122/3 17/123/3 171/124/3
f 29/125/2 128/126/2 129/127/2 6/128/2
f 67/129/3 31/130/3 7/131/3 66/132/3
f 166/133/3 103/134/3 24/135/3 23/136/3
f 94/137/2 73/138/2 40/139/2 41/140/2
f 56/141/6 3/142/6 55/143/6 54/144/6
f 47/145/3 155/146/3 26/147/3 102/148/3
f 170/149/5 159/150/5 25/151/5 169/152/5
f 157/153/3 30/154/3 158/155/3 156/156/3
f 95/157/5 119/158/5 112/159/5 140/160/5
f 157/161/6 156/162/6 57/163/6 127/164/6
f 44/165/1 45/166/1 77/167/1 75/168/1
f 91/169/5 142/170/5 137/171/5 22/172/5
f 25/173/3 159/174/3 90/175/3 18/176/3
f 137/177/3 142/178/3 141/179/3 69/180/3
f 62/181/5 111/182/5 55/183/5 3/184/5
f 146/185/6 35/186/6 79/187/6 78/188/6
f 153/189/5 11/190/5 12/191/5 10/192/5
f 27/193/2 133/194/2 84/195/2 132/196/2
f 151/197/5 100/198/5 83/199/5 82/200/5
f 164/201/6 13/202/6 131/203/6 130/204/6
f 24/205/5 132/206/5 84/207/5 23/208/5
f 60/209/6 136/210/6 59/211/6 58/212/6
f 109/213/1 168/214/1 167/215/1 173/216/1 172/217/1 165/218/1 164/219/1 130/220/1 79/221/1 35/222/1 150/223/1 98/224/1
f 86/225/3 143/226/3 95/227/3 140/228/3
f 146/229/6 148/230/6 5/231/6 121/232/6
f 39/233/4 43/234/4 93/235/4 118/236/4
f 26/237/5 110/238/5 101/239/5 102/240/5
f 145/241/3 35/242/3 146/243/3 8/244/3
f 17/245/4 173/246/4 167/247/4 15/248/4
f 67/249/6 66/250/6 158/251/6 30/252/6
f 91/253/2 22/254/2 19/255/2 89/256/2
f 137/257/6 69/258/6 116/259/6 68/260/6
f 86/261/4 34/262/4 114/263/4 113/264/4
f 160/265/3 48/266/3 161/267/3 42/268/3
f 64/269/6 62/270/6 63/271/6 65/272/6
f 135/273/1 45/274/1 47/275/1 104/276/1
f 150/277/3 154/278/3 153/279/3 10/280/3
f 109/281/2 98/282/2 97/283/2 108/284/2
f 47/285/4 51/286/4 126/287/4 125/288/4
f 62/289/6 139/290/6 61/291/6 111/292/6
f 33/293/3 34/294/3 86/295/3 63/296/3
f 39/297/1 41/298/1 40/299/1 138/300/1
f 126/301/1 51/302/1 152/303/1 85/304/1
f 160/305/6 42/306/6 70/307/6 169/308/6 25/309/6 18/310/6 19/311/6 22/312/6 137/313/6 138/314/6 40/315/6 73/316/6
f 167/317/3 168/318/3 16/319/3 15/320/3
f 2/321/4 140/322/4 112/323/4 1/324/4
f 26/325/4 155/326/4 46/327/4 110/328/4
f 16/329/4 168/330/4 109/331/4 108/332/4
f 105/333/1 176/334/1 50/335/1 49/336/1
f 152/337/6 45/338/6 44/339/6 85/340/6
f 87/341/3 163/342/3 96/343/3 162/344/3
f 135/345/6 134/346/6 52/347/6 49/348/6 50/349/6 174/350/6 166/351/6 23/352/6 84/353/6 133/354/6 147/355/6 45/356/6
f 147/357/3 102/358/3 151/359/3 82/360/3
f 93/361/1 43/362/1 72/363/1 115/364/1
f 146/365/5 121/366/5 9/367/5 8/368/5
f 151/369/4 102/370/4 101/371/4 100/372/4
f 37/373/6 35/374/6 81/375/6 80/376/6
f 141/377/4 142/378/4 117/379/4 88/380/4
f 72/381/6 138/382/6 71/383/6 115/384/6
f 86/385/4 140/386/4 129/387/4 128/388/4
f 60/389/3 138/390/3 137/391/3 136/392/3
f 39/393/3 144/394/3 21/395/3 142/396/3
f 145/397/6 8/398/6 9/399/6 74/400/6
f 153/401/4 154/402/4 107/403/4 11/404/4
f 37/405/3 99/406/3 150/407/3 35/408/3
f 164/409/3 165/410/3 14/411/3 13/412/3
f 175/413/5 103/414/5 166/415/5 174/416/5
f 149/417/4 10/418/4 12/419/4 4/420/4
f 137/421/5 68/422/5 59/423/5 136/424/5
f 52/425/3 53/426/3 105/427/3 49/428/3
f 33/429/6 63/430/6 28/431/6 32/432/6
f 70/433/3 92/48/3 170/47/3 169/434/3
f 150/435/4 99/436/4 124/437/4 36/438/4
f 65/439/2 127/440/2 57/441/2 64/442/2
f 90/443/5 89/444/5 19/445/5 18/446/5
f 77/447/3 45/448/3 147/449/3 76/450/3
f 96/343/4 163/342/4 29/451/4 6/452/4
f 146/453/3 10/454/3 149/455/3 148/456/3
f 95/457/4 143/458/4 120/459/4 119/460/4
f 120/461/1 143/462/1 86/463/1 113/464/1
f 147/465/6 82/466/6 83/467/6 122/468/6
f 21/469/4 144/470/4 38/471/4 20/472/4
f 141/473/5 88/474/5 116/475/5 69/476/5
f 7/131/4 31/130/4 87/477/4 162/478/4
f 117/479/2 20/480/2 38/481/2 118/482/2 93/483/2 115/484/2 71/485/2 58/486/2 59/487/2 68/488/2 116/489/2 88/490/2
f 102/491/4 27/492/4 132/493/4 24/494/4 103/495/4 175/496/4 176/497/4 105/498/4 53/499/4 106/500/4 104/501/4 47/502/4
f 111/503/2 61/504/2 1/505/2 112/506/2 119/507/2 120/508/2 113/509/2 114/510/2 32/511/2 28/512/2 54/513/2 55/514/2
f 12/515/2 11/516/2 107/517/2 36/518/2 124/519/2 80/520/2 81/521/2 74/522/2 9/523/2 121/524/2 5/525/2 4/526/2
f 38/527/1 144/528/1 39/529/1 118/530/1
f 172/531/6 171/532/6 14/533/6 165/534/6
f 124/535/1 99/536/1 37/537/1 80/538/1
f 50/539/3 176/540/3 175/541/3 174/542/3
f 21/543/5 20/544/5 117/545/5 142/546/5
f 107/547/1 154/548/1 150/549/1 36/550/1
f 62/551/3 140/552/3 2/553/3 139/554/3
f 106/555/1 53/556/1 52/557/1 134/558/1
f 102/559/5 147/560/5 133/561/5 27/562/5
f 147/563/5 122/564/5 123/565/5 76/566/5
f 79/567/2 130/568/2 131/569/2 78/570/2
