# Blender v3.2.2 OBJ File: 'Dungeon Voxel Assets.blend'
# www.blender.org
mtllib Shield_1.mtl
o Shield_1_Shield_1.001
v -0.350000 0.228125 -0.006250
v -0.250000 -0.171875 -0.006250
v -0.250000 -0.171875 -0.106250
v -0.250000 0.228125 0.093750
v -0.250000 -0.171875 0.093750
v -0.150000 -0.271875 -0.106250
v 0.150000 0.128125 0.093750
v -0.150000 0.128125 0.093750
v -0.150000 0.128125 -0.006250
v -0.150000 0.228125 -0.106250
v -0.150000 0.328125 -0.106250
v 0.050000 0.028125 0.093750
v 0.150000 -0.371875 -0.106250
v 0.150000 -0.171875 -0.006250
v 0.250000 -0.271875 -0.006250
v 0.250000 -0.171875 -0.106250
v 0.250000 0.328125 -0.006250
v 0.350000 0.228125 -0.106250
v 0.050000 -0.071875 0.193750
v -0.050000 0.028125 0.193750
v 0.050000 0.028125 0.193750
v -0.150000 -0.171875 0.093750
v -0.050000 -0.071875 0.093750
v 0.150000 -0.171875 0.093750
v -0.350000 -0.171875 -0.006250
v -0.250000 0.228125 -0.006250
v -0.150000 -0.271875 -0.006250
v -0.250000 -0.271875 -0.006250
v -0.150000 0.228125 -0.006250
v -0.250000 0.328125 -0.006250
v -0.150000 0.328125 -0.006250
v 0.150000 -0.371875 -0.006250
v -0.150000 -0.371875 -0.006250
v 0.150000 0.228125 -0.006250
v 0.250000 0.228125 -0.006250
v 0.350000 0.228125 -0.006250
v -0.250000 0.228125 -0.106250
v -0.250000 -0.271875 -0.106250
v -0.150000 -0.371875 -0.106250
v 0.150000 -0.271875 -0.106250
v 0.250000 0.228125 -0.106250
v 0.150000 -0.271875 0.093750
v -0.150000 -0.271875 0.093750
v 0.150000 -0.271875 -0.006250
v 0.250000 -0.271875 -0.106250
v -0.150000 -0.171875 -0.006250
v 0.250000 -0.171875 0.093750
v 0.250000 -0.171875 -0.006250
v -0.350000 -0.171875 -0.106250
v 0.350000 -0.171875 -0.006250
v 0.350000 -0.171875 -0.106250
v -0.050000 -0.071875 0.193750
v 0.050000 -0.071875 0.093750
v -0.050000 0.028125 0.093750
v 0.150000 0.128125 -0.006250
v -0.150000 0.228125 0.093750
v 0.150000 0.228125 0.093750
v 0.250000 0.228125 0.093750
v -0.350000 0.228125 -0.106250
v 0.150000 0.228125 -0.106250
v -0.250000 0.328125 -0.106250
v 0.150000 0.328125 -0.006250
v 0.150000 0.328125 -0.106250
v 0.250000 0.328125 -0.106250
vt 0.308301 0.923041
vt 0.308301 0.999845
vt 0.231498 0.999845
vt 0.231498 0.923041
vt 0.614895 0.307369
vt 0.614895 0.076960
vt 0.768502 0.153762
vt 0.691698 0.153762
vt 0.691698 0.230566
vt 0.846237 0.614894
vt 0.769434 0.614894
vt 0.769434 0.384484
vt 0.846237 0.384484
vt 0.692009 0.692009
vt 0.692009 0.768813
vt 0.615205 0.768813
vt 0.615205 0.692009
vt 0.308301 0.768812
vt 0.308301 0.845616
vt 0.231498 0.845616
vt 0.231498 0.768812
vt 0.846237 0.923040
vt 0.846237 0.999843
vt 0.769434 0.999843
vt 0.769434 0.923040
vt 0.154073 0.538092
vt 0.154073 0.845306
vt 0.077270 0.845306
vt 0.077270 0.538092
vt 0.999223 0.077269
vt 0.999223 0.154073
vt 0.922420 0.154073
vt 0.922420 0.077269
vt 0.076959 0.922731
vt 0.076959 0.999534
vt 0.000155 0.999534
vt 0.000155 0.922731
vt 0.614894 0.922729
vt 0.614894 0.999533
vt 0.538091 0.999533
vt 0.538091 0.922729
vt 0.538091 0.000155
vt 0.845305 0.000155
vt 0.845305 0.076960
vt 0.922109 0.076960
vt 0.922109 0.307369
vt 0.845305 0.307369
vt 0.845305 0.384173
vt 0.538091 0.384173
vt 0.538091 0.307369
vt 0.768502 0.230566
vt 0.538091 0.076960
vt 0.923351 0.692941
vt 0.923351 0.769745
vt 0.846548 0.769745
vt 0.846548 0.692941
vt 0.999223 0.154384
vt 0.999223 0.231187
vt 0.922420 0.231187
vt 0.922420 0.154384
vt 0.076959 0.537781
vt 0.076959 0.460978
vt 0.000155 0.460978
vt 0.000155 0.384173
vt 0.076959 0.384173
vt 0.076959 0.153763
vt 0.000155 0.153763
vt 0.000155 0.076960
vt 0.076959 0.076960
vt 0.076959 0.000155
vt 0.384173 0.000155
vt 0.384173 0.076960
vt 0.460977 0.076960
vt 0.460977 0.153763
vt 0.537780 0.153763
vt 0.537780 0.384173
vt 0.460977 0.384173
vt 0.460977 0.460978
vt 0.384173 0.460978
vt 0.384173 0.537781
vt 0.462529 0.768812
vt 0.462529 0.845616
vt 0.385726 0.845616
vt 0.385726 0.768812
vt 0.231187 0.538092
vt 0.231187 0.845306
vt 0.154384 0.845306
vt 0.154384 0.538092
vt 0.538091 0.384484
vt 0.614895 0.384484
vt 0.614895 0.691698
vt 0.538091 0.691698
vt 0.923351 0.847170
vt 0.923351 0.923973
vt 0.846548 0.923973
vt 0.846548 0.847170
vt 0.769123 0.384484
vt 0.769123 0.691698
vt 0.692320 0.691698
vt 0.692320 0.384484
vt 0.076959 0.538092
vt 0.076959 0.845306
vt 0.000155 0.845306
vt 0.000155 0.538092
vt 0.385726 0.538092
vt 0.462529 0.538092
vt 0.462529 0.768501
vt 0.385726 0.768501
vt 0.231187 0.922731
vt 0.231187 0.999534
vt 0.154384 0.999534
vt 0.154384 0.922731
vt 0.769434 0.615205
vt 0.846237 0.615205
vt 0.846237 0.845614
vt 0.769434 0.845614
vt 0.999223 0.000155
vt 0.999223 0.076959
vt 0.922420 0.076959
vt 0.922420 0.000155
vt 0.769123 0.692009
vt 0.769123 0.768813
vt 0.692320 0.768813
vt 0.692320 0.692009
vt 0.846237 0.922729
vt 0.769434 0.922729
vt 0.769434 0.845925
vt 0.846237 0.845925
vt 0.154073 0.922731
vt 0.154073 0.999534
vt 0.077270 0.999534
vt 0.077270 0.922731
vt 0.923351 0.770055
vt 0.923351 0.846859
vt 0.846548 0.846859
vt 0.846548 0.770055
vt 0.614894 0.922419
vt 0.538091 0.922419
vt 0.538091 0.692009
vt 0.614894 0.692009
vt 0.615206 0.846238
vt 0.692009 0.846238
vt 0.692009 0.923042
vt 0.615206 0.923042
vt 0.615206 0.384484
vt 0.692010 0.384484
vt 0.692010 0.691698
vt 0.615206 0.691698
vt 0.999223 0.231498
vt 0.999223 0.308301
vt 0.922420 0.308301
vt 0.922420 0.231498
vt 0.923351 0.615827
vt 0.923351 0.692631
vt 0.846548 0.692631
vt 0.846548 0.615827
vt 0.385415 0.768812
vt 0.385415 0.845616
vt 0.308612 0.845616
vt 0.308612 0.768812
vt 0.385415 0.538092
vt 0.385415 0.768501
vt 0.308612 0.768501
vt 0.308612 0.538092
vt 0.308301 0.538092
vt 0.308301 0.768501
vt 0.231497 0.768501
vt 0.231497 0.538092
vt 0.308612 0.845927
vt 0.385415 0.845927
vt 0.385415 0.922731
vt 0.308612 0.922731
vt 0.308301 0.922731
vt 0.231498 0.922731
vt 0.231498 0.845927
vt 0.308301 0.845927
vt 0.154073 0.922421
vt 0.077270 0.922421
vt 0.077270 0.845616
vt 0.154073 0.845616
vt 0.769123 0.845927
vt 0.692320 0.845927
vt 0.692320 0.769123
vt 0.769123 0.769123
vt 0.923351 0.615517
vt 0.846548 0.615517
vt 0.846548 0.538713
vt 0.923351 0.538713
vt 0.615206 0.769123
vt 0.692009 0.769123
vt 0.692009 0.845927
vt 0.615206 0.845927
vt 0.000155 0.845616
vt 0.076959 0.845616
vt 0.076959 0.922421
vt 0.000155 0.922421
vt 0.385726 0.845927
vt 0.462529 0.845927
vt 0.462529 0.922731
vt 0.385726 0.922731
vt 0.769123 0.923042
vt 0.692320 0.923042
vt 0.692320 0.846238
vt 0.769123 0.846238
vt 0.846548 0.384484
vt 0.923351 0.384484
vt 0.923351 0.461288
vt 0.846548 0.461288
vt 0.923351 0.538403
vt 0.846548 0.538403
vt 0.846548 0.461598
vt 0.923351 0.461598
vt 0.154384 0.845616
vt 0.231187 0.845616
vt 0.231187 0.922421
vt 0.154384 0.922421
vn -1.0000 -0.0000 0.0000
vn 0.0000 -0.0000 1.0000
vn 0.0000 -1.0000 -0.0000
vn 1.0000 -0.0000 0.0000
vn -0.0000 0.0000 -1.0000
vn 0.0000 1.0000 0.0000
usemtl Shield_1
s off
f 61/1/1 37/2/1 26/3/1 30/4/1
f 7/5/2 8/6/2 23/7/2 54/8/2 12/9/2
f 44/10/3 42/11/3 43/12/3 27/13/3
f 46/14/2 2/15/2 28/16/2 27/17/2
f 31/18/2 30/19/2 26/20/2 29/21/2
f 54/22/1 23/23/1 52/24/1 20/25/1
f 59/26/1 49/27/1 25/28/1 1/29/1
f 45/30/4 16/31/4 48/32/4 15/33/4
f 63/34/1 60/35/1 34/36/1 62/37/1
f 10/38/4 11/39/4 31/40/4 29/41/4
f 4/42/2 5/43/2 22/44/2 43/45/2 42/46/2 24/47/2 47/48/2 58/49/2 57/50/2 7/5/2 12/9/2 53/51/2 23/7/2 8/6/2 56/52/2
f 44/53/4 14/54/4 24/55/4 42/56/4
f 41/57/4 64/58/4 17/59/4 35/60/4
f 59/61/5 37/62/5 61/63/5 11/64/5 10/65/5 60/66/5 63/67/5 64/68/5 41/69/5 18/70/5 51/71/5 16/72/5 45/73/5 40/74/5 13/75/5 39/76/5 6/77/5 38/78/5 3/79/5 49/80/5
f 17/81/2 62/82/2 34/83/2 35/84/2
f 51/85/4 18/86/4 36/87/4 50/88/4
f 36/89/2 35/90/2 48/91/2 50/92/2
f 3/93/1 38/94/1 28/95/1 2/96/1
f 26/97/1 2/98/1 5/99/1 4/100/1
f 48/101/4 35/102/4 58/103/4 47/104/4
f 34/105/6 60/106/6 10/107/6 29/108/6
f 9/109/4 29/110/4 56/111/4 8/112/4
f 7/113/6 55/114/6 9/115/6 8/116/6
f 6/117/1 39/118/1 33/119/1 27/120/1
f 48/121/2 14/122/2 44/123/2 15/124/2
f 51/125/3 50/126/3 48/127/3 16/128/3
f 34/129/1 55/130/1 7/131/1 57/132/1
f 46/133/1 27/134/1 43/135/1 22/136/1
f 13/137/3 32/138/3 33/139/3 39/140/3
f 58/141/6 35/142/6 34/143/6 57/144/6
f 26/145/2 1/146/2 25/147/2 2/148/2
f 53/149/4 12/150/4 21/151/4 19/152/4
f 13/153/4 40/154/4 44/155/4 32/156/4
f 21/157/2 20/158/2 52/159/2 19/160/2
f 34/161/2 29/162/2 9/163/2 55/164/2
f 44/165/2 27/166/2 33/167/2 32/168/2
f 26/169/6 37/170/6 59/171/6 1/172/6
f 3/173/3 2/174/3 25/175/3 49/176/3
f 53/177/3 19/178/3 52/179/3 23/180/3
f 45/181/3 15/182/3 44/183/3 40/184/3
f 6/185/3 27/186/3 28/187/3 38/188/3
f 36/189/6 18/190/6 41/191/6 35/192/6
f 21/193/6 12/194/6 54/195/6 20/196/6
f 56/197/6 29/198/6 26/199/6 4/200/6
f 48/201/3 47/202/3 24/203/3 14/204/3
f 17/205/6 64/206/6 63/207/6 62/208/6
f 46/209/3 22/210/3 5/211/3 2/212/3
f 31/213/6 11/214/6 61/215/6 30/216/6
