# Blender v3.2.2 OBJ File: 'Dungeon Voxel Assets.blend'
# www.blender.org
mtllib Coins_1_Gold.mtl
o Coins_1_Gold_Coins_1_Gold.001
v -0.300000 0.092857 0.100000
v -0.300000 -0.107143 -0.100000
v -0.300000 -0.107143 0.100000
v -0.200000 0.092857 0.200000
v -0.200000 0.092857 0.100000
v -0.200000 -0.107143 -0.100000
v -0.100000 -0.107143 0.300000
v -0.100000 -0.007143 -0.100000
v -0.100000 0.092857 -0.100000
v 0.100000 -0.007143 -0.200000
v -0.200000 0.092857 -0.100000
v -0.100000 0.092857 0.200000
v 0.100000 -0.107143 0.200000
v 0.100000 0.092857 0.100000
v 0.100000 -0.107143 -0.300000
v 0.200000 -0.107143 0.200000
v 0.200000 0.092857 0.100000
v 0.200000 -0.107143 -0.200000
v 0.300000 -0.107143 0.100000
v 0.100000 -0.107143 0.300000
v 0.100000 0.092857 0.300000
v -0.100000 -0.107143 0.200000
v 0.200000 -0.107143 0.100000
v 0.300000 0.092857 0.100000
v 0.100000 0.092857 -0.100000
v 0.100000 -0.007143 -0.100000
v -0.100000 -0.007143 -0.200000
v -0.100000 -0.007143 0.100000
v -0.300000 0.092857 -0.100000
v 0.200000 0.092857 -0.100000
v 0.300000 -0.107143 -0.100000
v 0.100000 -0.107143 -0.200000
v 0.100000 0.092857 -0.200000
v -0.100000 -0.107143 -0.300000
v -0.100000 0.092857 -0.300000
v -0.200000 -0.107143 0.100000
v -0.200000 -0.107143 0.200000
v 0.200000 -0.107143 -0.100000
v -0.200000 -0.107143 -0.200000
v -0.100000 -0.107143 -0.200000
v -0.100000 -0.007143 0.200000
v 0.100000 -0.007143 0.200000
v 0.100000 -0.007143 0.100000
v -0.200000 -0.007143 0.100000
v -0.200000 -0.007143 -0.100000
v 0.200000 -0.007143 0.100000
v 0.200000 -0.007143 -0.100000
v -0.100000 0.092857 0.300000
v 0.100000 0.092857 0.200000
v -0.100000 0.092857 0.100000
v 0.200000 0.092857 0.200000
v 0.300000 0.092857 -0.100000
v -0.200000 0.092857 -0.200000
v -0.100000 0.092857 -0.200000
v 0.200000 0.092857 -0.200000
v 0.100000 0.092857 -0.300000
vt 0.887811 0.500000
vt 0.887811 0.666243
vt 0.804690 0.666243
vt 0.804690 0.500000
vt 0.167152 0.637358
vt 0.250273 0.637358
vt 0.250273 0.803600
vt 0.167152 0.803600
vt 0.637720 0.666606
vt 0.720842 0.666606
vt 0.720842 0.832849
vt 0.637720 0.832849
vt 0.470751 0.833213
vt 0.553872 0.833213
vt 0.553872 0.916334
vt 0.470751 0.916334
vt 0.636993 0.166788
vt 0.636993 0.333031
vt 0.470751 0.333031
vt 0.470751 0.166788
vt 0.720841 0.000182
vt 0.803964 0.000182
vt 0.803964 0.166424
vt 0.720841 0.166424
vt 0.083303 0.637358
vt 0.083303 0.803600
vt 0.000182 0.803600
vt 0.000182 0.637358
vt 0.083667 0.637358
vt 0.166788 0.637358
vt 0.166788 0.803600
vt 0.083667 0.803600
vt 0.334122 0.637358
vt 0.417243 0.637358
vt 0.417243 0.803600
vt 0.334122 0.803600
vt 0.637357 0.500000
vt 0.637357 0.666243
vt 0.554236 0.666243
vt 0.554236 0.500000
vt 0.720478 0.333394
vt 0.720478 0.499637
vt 0.637357 0.499637
vt 0.637357 0.333394
vt 0.637720 0.833212
vt 0.720842 0.833212
vt 0.720842 0.916333
vt 0.637720 0.916333
vt 0.720478 0.166788
vt 0.720478 0.333031
vt 0.637357 0.333031
vt 0.637357 0.166788
vt 0.166786 0.636994
vt 0.166786 0.470751
vt 0.333029 0.470751
vt 0.333029 0.636994
vt 0.720842 0.916697
vt 0.720842 0.999819
vt 0.637720 0.999819
vt 0.637720 0.916697
vt 0.636993 0.000182
vt 0.636993 0.166424
vt 0.470751 0.166424
vt 0.470751 0.000182
vt 0.721205 0.500000
vt 0.804327 0.500000
vt 0.804327 0.666243
vt 0.721205 0.666243
vt 0.887448 0.166787
vt 0.887448 0.333030
vt 0.804326 0.333030
vt 0.804326 0.166787
vt 0.888175 0.500000
vt 0.971296 0.500000
vt 0.971296 0.583122
vt 0.888175 0.583122
vt 0.167151 0.803964
vt 0.250273 0.803964
vt 0.250273 0.970206
vt 0.167151 0.970206
vt 0.804690 0.833212
vt 0.887812 0.833212
vt 0.887812 0.916333
vt 0.804690 0.916333
vt 0.720478 0.000182
vt 0.720478 0.166424
vt 0.637357 0.166424
vt 0.637357 0.000182
vt 0.553872 0.500000
vt 0.553872 0.666243
vt 0.470751 0.666243
vt 0.470751 0.500000
vt 0.250636 0.803964
vt 0.333757 0.803964
vt 0.333757 0.970206
vt 0.250636 0.970206
vt 0.470750 0.333394
vt 0.636992 0.333394
vt 0.636992 0.499637
vt 0.470750 0.499637
vt 0.083666 0.803964
vt 0.166787 0.803964
vt 0.166787 0.970206
vt 0.083666 0.970206
vt 0.334121 0.803964
vt 0.417242 0.803964
vt 0.417242 0.970206
vt 0.334121 0.970206
vt 0.971297 0.750091
vt 0.971297 0.833213
vt 0.888175 0.833213
vt 0.888175 0.750091
vt 0.887812 0.666606
vt 0.887812 0.832849
vt 0.804690 0.832849
vt 0.804690 0.666606
vt 0.720841 0.166788
vt 0.803964 0.166788
vt 0.803964 0.333031
vt 0.720841 0.333031
vt 0.083303 0.803963
vt 0.083303 0.970205
vt 0.000182 0.970205
vt 0.000182 0.803963
vt 0.804327 0.916697
vt 0.804327 0.999819
vt 0.721205 0.999819
vt 0.721205 0.916697
vt 0.721205 0.833212
vt 0.804327 0.833212
vt 0.804327 0.916333
vt 0.721205 0.916333
vt 0.470750 0.832849
vt 0.470750 0.666607
vt 0.553872 0.666607
vt 0.553872 0.832849
vt 0.804326 0.000181
vt 0.887448 0.000181
vt 0.887448 0.166424
vt 0.804326 0.166424
vt 0.176510 0.058958
vt 0.235286 0.000182
vt 0.294061 0.058958
vt 0.352836 0.000183
vt 0.470387 0.117734
vt 0.411612 0.176509
vt 0.470387 0.235285
vt 0.411612 0.294061
vt 0.470387 0.352836
vt 0.352836 0.470387
vt 0.294060 0.411612
vt 0.235284 0.470387
vt 0.176509 0.411612
vt 0.117733 0.470387
vt 0.000181 0.352836
vt 0.058957 0.294060
vt 0.000182 0.235285
vt 0.058957 0.176509
vt 0.000182 0.117733
vt 0.117734 0.000182
vt 0.721205 0.666606
vt 0.804327 0.666606
vt 0.804327 0.832849
vt 0.721205 0.832849
vt 0.250637 0.637358
vt 0.333758 0.637358
vt 0.333758 0.803600
vt 0.250637 0.803600
vt 0.888175 0.666606
vt 0.971297 0.666606
vt 0.971297 0.749728
vt 0.888175 0.749728
vt 0.000181 0.470751
vt 0.166424 0.470751
vt 0.166424 0.636994
vt 0.000181 0.636994
vt 0.416514 0.470751
vt 0.416514 0.636994
vt 0.333393 0.636994
vt 0.333393 0.470751
vt 0.720840 0.333394
vt 0.803963 0.333394
vt 0.803963 0.499637
vt 0.720840 0.499637
vt 0.887811 0.166787
vt 0.970933 0.166787
vt 0.970933 0.249909
vt 0.887811 0.249909
vt 0.804326 0.333394
vt 0.887447 0.333394
vt 0.887447 0.499637
vt 0.804326 0.499637
vt 0.971297 0.833575
vt 0.971297 0.916698
vt 0.888175 0.916698
vt 0.888175 0.833575
vt 0.887810 0.499637
vt 0.887810 0.333394
vt 0.970931 0.333394
vt 0.970931 0.499637
vt 0.554235 0.832849
vt 0.554235 0.666607
vt 0.637357 0.666607
vt 0.637357 0.832849
vt 0.720842 0.500000
vt 0.720842 0.666243
vt 0.637720 0.666243
vt 0.637720 0.500000
vt 0.554236 0.833212
vt 0.637357 0.833212
vt 0.637357 0.916334
vt 0.554236 0.916334
vt 0.887811 0.166424
vt 0.887811 0.000182
vt 0.970932 0.000182
vt 0.970932 0.166424
vn 0.0000 0.0000 -1.0000
vn 1.0000 0.0000 0.0000
vn 0.0000 1.0000 0.0000
vn -1.0000 0.0000 0.0000
vn 0.0000 -0.0000 1.0000
vn -0.0000 -1.0000 -0.0000
usemtl Coins_1_Gold
s off
f 12/1/1 49/2/1 42/3/1 41/4/1
f 45/5/2 11/6/2 5/7/2 44/8/2
f 33/9/3 56/10/3 35/11/3 54/12/3
f 28/13/2 50/14/2 12/15/2 41/16/2
f 29/17/4 2/18/4 3/19/4 1/20/4
f 51/21/5 49/22/5 13/23/5 16/24/5
f 53/25/4 39/26/4 6/27/4 11/28/4
f 30/29/4 47/30/4 46/31/4 17/32/4
f 26/33/2 25/34/2 14/35/2 43/36/2
f 12/37/4 22/38/4 7/39/4 48/40/4
f 13/41/2 49/42/2 21/43/2 20/44/2
f 27/45/2 54/46/2 9/47/2 8/48/2
f 5/49/4 36/50/4 37/51/4 4/52/4
f 14/53/3 25/54/3 9/55/3 50/56/3
f 9/57/5 11/58/5 45/59/5 8/60/5
f 31/61/2 52/62/2 24/63/2 19/64/2
f 12/65/5 4/66/5 37/67/5 22/68/5
f 9/69/1 25/70/1 26/71/1 8/72/1
f 51/73/3 17/74/3 14/75/3 49/76/3
f 5/77/5 1/78/5 3/79/5 36/80/5
f 33/81/4 10/82/4 26/83/4 25/84/4
f 18/85/2 55/86/2 30/87/2 38/88/2
f 35/89/4 34/90/4 40/91/4 54/92/4
f 24/93/5 17/94/5 23/95/5 19/96/5
f 35/97/1 56/98/1 15/99/1 34/100/1
f 30/101/1 52/102/1 31/103/1 38/104/1
f 29/105/1 11/106/1 6/107/1 2/108/1
f 14/109/1 17/110/1 46/111/1 43/112/1
f 14/113/5 50/114/5 28/115/5 43/116/5
f 33/117/1 55/118/1 18/119/1 32/120/1
f 33/121/5 54/122/5 27/123/5 10/124/5
f 30/125/5 25/126/5 26/127/5 47/128/5
f 14/129/4 43/130/4 42/131/4 49/132/4
f 28/133/3 8/134/3 45/135/3 44/136/3
f 42/137/3 43/138/3 28/139/3 41/140/3
f 32/141/6 18/142/6 38/143/6 31/144/6 19/145/6 23/146/6 16/147/6 13/148/6 20/149/6 7/150/6 22/151/6 37/152/6 36/153/6 3/154/6 2/155/6 6/156/6 39/157/6 40/158/6 34/159/6 15/160/6
f 26/161/3 10/162/3 27/163/3 8/164/3
f 9/165/4 8/166/4 28/167/4 50/168/4
f 12/169/3 50/170/3 5/171/3 4/172/3
f 21/173/5 48/174/5 7/175/5 20/176/5
f 23/177/2 17/178/2 51/179/2 16/180/2
f 53/181/1 54/182/1 40/183/1 39/184/1
f 9/185/3 54/186/3 53/187/3 11/188/3
f 21/189/3 49/190/3 12/191/3 48/192/3
f 5/193/1 50/194/1 28/195/1 44/196/1
f 5/197/3 11/198/3 29/199/3 1/200/3
f 46/201/3 47/202/3 26/203/3 43/204/3
f 15/205/2 56/206/2 33/207/2 32/208/2
f 30/209/3 55/210/3 33/211/3 25/212/3
f 24/213/3 52/214/3 30/215/3 17/216/3
