# Blender v3.2.2 OBJ File: 'Dungeon Voxel Assets.blend'
# www.blender.org
mtllib Coins_1_Copper.mtl
o Coins_1_Copper_Coins_1_Copper.001
v -0.300000 0.092857 0.100000
v -0.300000 -0.107143 -0.100000
v -0.300000 -0.107143 0.100000
v -0.200000 0.092857 0.200000
v -0.200000 0.092857 0.100000
v -0.200000 -0.107143 -0.100000
v -0.100000 -0.107143 0.300000
v -0.100000 -0.007143 -0.100000
v -0.100000 0.092857 -0.100000
v 0.100000 -0.007143 -0.200000
v -0.200000 0.092857 -0.100000
v -0.100000 0.092857 0.200000
v 0.100000 -0.107143 0.200000
v 0.100000 0.092857 0.100000
v 0.100000 -0.107143 -0.300000
v 0.200000 -0.107143 0.200000
v 0.200000 0.092857 0.100000
v 0.200000 -0.107143 -0.200000
v 0.300000 -0.107143 0.100000
v 0.100000 -0.107143 0.300000
v 0.100000 0.092857 0.300000
v -0.100000 -0.107143 0.200000
v 0.200000 -0.107143 0.100000
v 0.300000 0.092857 0.100000
v 0.100000 0.092857 -0.100000
v 0.100000 -0.007143 -0.100000
v -0.100000 -0.007143 -0.200000
v -0.100000 -0.007143 0.100000
v -0.300000 0.092857 -0.100000
v 0.200000 0.092857 -0.100000
v 0.300000 -0.107143 -0.100000
v 0.100000 -0.107143 -0.200000
v 0.100000 0.092857 -0.200000
v -0.100000 -0.107143 -0.300000
v -0.100000 0.092857 -0.300000
v -0.200000 -0.107143 0.100000
v -0.200000 -0.107143 0.200000
v 0.200000 -0.107143 -0.100000
v -0.200000 -0.107143 -0.200000
v -0.100000 -0.107143 -0.200000
v -0.100000 -0.007143 0.200000
v 0.100000 -0.007143 0.200000
v 0.100000 -0.007143 0.100000
v -0.200000 -0.007143 0.100000
v -0.200000 -0.007143 -0.100000
v 0.200000 -0.007143 0.100000
v 0.200000 -0.007143 -0.100000
v -0.100000 0.092857 0.300000
v 0.100000 0.092857 0.200000
v -0.100000 0.092857 0.100000
v 0.200000 0.092857 0.200000
v 0.300000 0.092857 -0.100000
v -0.200000 0.092857 -0.200000
v -0.100000 0.092857 -0.200000
v 0.200000 0.092857 -0.200000
v 0.100000 0.092857 -0.300000
vt 0.916319 0.166841
vt 0.916319 0.333159
vt 0.833160 0.333159
vt 0.833160 0.166841
vt 0.832812 0.000174
vt 0.832812 0.166493
vt 0.749653 0.166493
vt 0.749653 0.000174
vt 0.833160 0.500174
vt 0.916319 0.500174
vt 0.916319 0.666492
vt 0.833160 0.666492
vt 0.916667 0.583681
vt 0.999826 0.583681
vt 0.999826 0.666841
vt 0.916667 0.666841
vt 0.499479 0.166840
vt 0.665798 0.166840
vt 0.665798 0.333160
vt 0.499479 0.333160
vt 0.666145 0.166840
vt 0.749306 0.166840
vt 0.749306 0.333160
vt 0.666145 0.333160
vt 0.832812 0.333507
vt 0.832812 0.499826
vt 0.749653 0.499826
vt 0.749653 0.333507
vt 0.749653 0.166840
vt 0.832812 0.166840
vt 0.832812 0.333160
vt 0.749653 0.333160
vt 0.167188 0.666146
vt 0.250348 0.666146
vt 0.250348 0.832465
vt 0.167188 0.832465
vt 0.832812 0.666840
vt 0.832812 0.833160
vt 0.749653 0.833160
vt 0.749653 0.666840
vt 0.916319 0.000174
vt 0.916319 0.166493
vt 0.833160 0.166493
vt 0.833160 0.000174
vt 0.999826 0.834202
vt 0.999826 0.917362
vt 0.916667 0.917362
vt 0.916667 0.834202
vt 0.250695 0.666146
vt 0.333855 0.666146
vt 0.333855 0.832465
vt 0.250695 0.832465
vt 0.000174 0.665798
vt 0.000174 0.499479
vt 0.166492 0.499479
vt 0.166492 0.665798
vt 0.999826 0.500174
vt 0.999826 0.583334
vt 0.916667 0.583334
vt 0.916667 0.500174
vt 0.499479 0.000174
vt 0.665798 0.000174
vt 0.665798 0.166493
vt 0.499479 0.166493
vt 0.000174 0.666146
vt 0.083334 0.666146
vt 0.083334 0.832465
vt 0.000174 0.832465
vt 0.916319 0.333507
vt 0.916319 0.499825
vt 0.833160 0.499825
vt 0.833160 0.333507
vt 0.916667 0.250347
vt 0.999826 0.250347
vt 0.999826 0.333508
vt 0.916667 0.333508
vt 0.250694 0.832812
vt 0.333854 0.832812
vt 0.333854 0.999132
vt 0.250694 0.999132
vt 0.916667 0.750695
vt 0.999826 0.750695
vt 0.999826 0.833855
vt 0.916667 0.833855
vt 0.832812 0.500174
vt 0.832812 0.666493
vt 0.749653 0.666493
vt 0.749653 0.500174
vt 0.582638 0.666840
vt 0.582638 0.833160
vt 0.499479 0.833160
vt 0.499479 0.666840
vt 0.334201 0.832812
vt 0.417360 0.832812
vt 0.417360 0.999132
vt 0.334201 0.999132
vt 0.499478 0.500174
vt 0.665797 0.500174
vt 0.665797 0.666493
vt 0.499478 0.666493
vt 0.415972 0.000174
vt 0.499131 0.000174
vt 0.499131 0.166493
vt 0.415972 0.166493
vt 0.000174 0.000174
vt 0.083333 0.000174
vt 0.083333 0.166493
vt 0.000174 0.166493
vt 0.582638 0.833507
vt 0.582638 0.916667
vt 0.499479 0.916667
vt 0.499479 0.833507
vt 0.916319 0.666841
vt 0.916319 0.833159
vt 0.833160 0.833159
vt 0.833160 0.666841
vt 0.333507 0.499479
vt 0.416667 0.499479
vt 0.416667 0.665798
vt 0.333507 0.665798
vt 0.499478 0.333507
vt 0.665797 0.333507
vt 0.665797 0.416667
vt 0.499478 0.416667
vt 0.666145 0.833507
vt 0.666145 0.916667
vt 0.582986 0.916667
vt 0.582986 0.833507
vt 0.916667 0.667188
vt 0.999826 0.667188
vt 0.999826 0.750348
vt 0.916667 0.750348
vt 0.666145 0.166493
vt 0.666145 0.000174
vt 0.749306 0.000174
vt 0.749306 0.166493
vt 0.083681 0.832812
vt 0.166841 0.832812
vt 0.166841 0.999131
vt 0.083681 0.999131
vt 0.499478 0.499826
vt 0.665797 0.499826
vt 0.083681 0.666146
vt 0.166841 0.666146
vt 0.166841 0.832465
vt 0.083681 0.832465
vt 0.833160 0.833507
vt 0.916319 0.833507
vt 0.916319 0.916667
vt 0.833160 0.916667
vt 0.166841 0.499479
vt 0.333159 0.499479
vt 0.333159 0.665798
vt 0.166841 0.665798
vt 0.417362 0.666146
vt 0.417362 0.832465
vt 0.334202 0.832465
vt 0.334202 0.666146
vt 0.666145 0.333507
vt 0.749306 0.333507
vt 0.749306 0.499826
vt 0.666145 0.499826
vt 0.916667 0.166841
vt 0.999826 0.166841
vt 0.999826 0.250001
vt 0.916667 0.250001
vt 0.000174 0.832812
vt 0.083333 0.832812
vt 0.083333 0.999131
vt 0.000174 0.999131
vt 0.332812 0.415972
vt 0.332812 0.499132
vt 0.166492 0.499132
vt 0.166492 0.415972
vt 0.083333 0.415972
vt 0.083333 0.332812
vt 0.000174 0.332812
vt 0.083333 0.083333
vt 0.166492 0.083333
vt 0.166492 0.000174
vt 0.332812 0.000174
vt 0.332812 0.083333
vt 0.415972 0.083333
vt 0.499131 0.332812
vt 0.415972 0.332812
vt 0.415972 0.415972
vt 0.999826 0.333855
vt 0.999826 0.417015
vt 0.916667 0.417015
vt 0.916667 0.333855
vt 0.167188 0.999132
vt 0.167188 0.832812
vt 0.250347 0.832812
vt 0.250347 0.999132
vt 0.666145 0.666493
vt 0.666145 0.500174
vt 0.749306 0.500174
vt 0.749306 0.666493
vt 0.749305 0.666840
vt 0.749305 0.833160
vt 0.666145 0.833160
vt 0.666145 0.666840
vt 0.749653 0.833507
vt 0.832812 0.833507
vt 0.832812 0.916667
vt 0.749653 0.916667
vt 0.916667 0.166493
vt 0.916667 0.000174
vt 0.999826 0.000174
vt 0.999826 0.166493
vn 0.0000 0.0000 -1.0000
vn 1.0000 0.0000 0.0000
vn 0.0000 1.0000 0.0000
vn -1.0000 0.0000 0.0000
vn 0.0000 -0.0000 1.0000
vn -0.0000 -1.0000 -0.0000
usemtl Coins_1_Copper
s off
f 12/1/1 49/2/1 42/3/1 41/4/1
f 23/5/2 17/6/2 51/7/2 16/8/2
f 33/9/3 56/10/3 35/11/3 54/12/3
f 28/13/2 50/14/2 12/15/2 41/16/2
f 29/17/4 2/18/4 3/19/4 1/20/4
f 51/21/5 49/22/5 13/23/5 16/24/5
f 53/25/4 39/26/4 6/27/4 11/28/4
f 30/29/4 47/30/4 46/31/4 17/32/4
f 26/33/2 25/34/2 14/35/2 43/36/2
f 12/37/4 22/38/4 7/39/4 48/40/4
f 13/41/2 49/42/2 21/43/2 20/44/2
f 27/45/2 54/46/2 9/47/2 8/48/2
f 45/49/2 11/50/2 5/51/2 44/52/2
f 14/53/3 25/54/3 9/55/3 50/56/3
f 9/57/5 11/58/5 45/59/5 8/60/5
f 31/61/2 52/62/2 24/63/2 19/64/2
f 12/65/5 4/66/5 37/67/5 22/68/5
f 9/69/1 25/70/1 26/71/1 8/72/1
f 51/73/3 17/74/3 14/75/3 49/76/3
f 5/77/5 1/78/5 3/79/5 36/80/5
f 33/81/4 10/82/4 26/83/4 25/84/4
f 18/85/2 55/86/2 30/87/2 38/88/2
f 35/89/4 34/90/4 40/91/4 54/92/4
f 24/93/5 17/94/5 23/95/5 19/96/5
f 35/97/1 56/98/1 15/99/1 34/100/1
f 30/101/1 52/102/1 31/103/1 38/104/1
f 29/105/1 11/106/1 6/107/1 2/108/1
f 14/109/1 17/110/1 46/111/1 43/112/1
f 14/113/5 50/114/5 28/115/5 43/116/5
f 33/117/1 55/118/1 18/119/1 32/120/1
f 33/121/5 54/122/5 27/123/5 10/124/5
f 30/125/5 25/126/5 26/127/5 47/128/5
f 14/129/4 43/130/4 42/131/4 49/132/4
f 28/133/3 8/134/3 45/135/3 44/136/3
f 42/137/3 43/138/3 28/139/3 41/140/3
f 26/141/3 10/124/3 27/123/3 8/142/3
f 9/143/4 8/144/4 28/145/4 50/146/4
f 12/147/3 50/148/3 5/149/3 4/150/3
f 21/151/5 48/152/5 7/153/5 20/154/5
f 5/155/4 36/156/4 37/157/4 4/158/4
f 53/159/1 54/160/1 40/161/1 39/162/1
f 9/163/3 54/164/3 53/165/3 11/166/3
f 21/167/3 49/168/3 12/169/3 48/170/3
f 13/171/6 20/172/6 7/173/6 22/174/6 37/175/6 36/176/6 3/177/6 2/108/6 6/107/6 39/178/6 40/179/6 34/180/6 15/181/6 32/182/6 18/183/6 38/104/6 31/103/6 19/184/6 23/185/6 16/186/6
f 5/187/1 50/188/1 28/189/1 44/190/1
f 5/191/3 11/192/3 29/193/3 1/194/3
f 46/195/3 47/196/3 26/197/3 43/198/3
f 15/199/2 56/200/2 33/201/2 32/202/2
f 30/203/3 55/204/3 33/205/3 25/206/3
f 24/207/3 52/208/3 30/209/3 17/210/3
