# Blender v3.2.2 OBJ File: 'Dungeon Voxel Assets.blend'
# www.blender.org
mtllib Chest_Small_Open.mtl
o Chest_Small_Open_Chest_Small_Open.001
v -0.400001 0.100000 -0.146154
v -0.400001 0.100000 -0.046154
v -0.099999 -0.100000 0.353846
v -0.099999 -0.300000 0.253846
v -0.099999 -0.100000 0.253846
v 0.300000 -0.300000 0.153846
v 0.300000 -0.300000 -0.246154
v -0.300000 -0.300000 -0.246154
v -0.300000 -0.100000 -0.246154
v 0.099999 -0.300000 0.353846
v 0.099999 -0.100000 0.353846
v 0.400001 -0.400000 0.253846
v 0.400001 0.100000 -0.046154
v 0.400001 0.200000 -0.146154
v 0.400001 0.200000 0.053846
v 0.400001 0.400000 0.153846
v -0.099999 -0.300000 0.353846
v -0.400001 -0.100000 0.253846
v -0.400001 0.300000 0.153846
v -0.400001 0.200000 0.053846
v 0.400001 0.100000 -0.146154
v -0.400001 -0.100000 -0.246154
v 0.300000 -0.100000 -0.246154
v 0.400001 -0.100000 -0.246154
v -0.300000 -0.300000 0.153846
v -0.300000 -0.100000 0.153846
v 0.300000 -0.100000 0.153846
v -0.400001 0.400000 0.053846
v -0.400001 0.200000 -0.146154
v 0.400001 0.100000 -0.246154
v -0.400001 -0.400000 0.253846
v -0.400001 -0.400000 -0.346154
v 0.400001 -0.400000 -0.346154
v 0.099999 -0.300000 0.253846
v -0.400001 0.000000 -0.146154
v 0.400001 0.000000 -0.146154
v 0.400001 0.000000 -0.246154
v 0.400001 0.300000 0.153846
v 0.400001 0.300000 0.053846
v 0.099999 -0.100000 0.253846
v 0.400001 -0.100000 0.253846
v -0.400001 0.000000 -0.246154
v -0.400001 0.000000 -0.346154
v 0.400001 0.000000 -0.346154
v -0.400001 0.100000 -0.246154
v -0.400001 0.200000 -0.046154
v 0.400001 0.200000 -0.046154
v -0.400001 0.300000 0.053846
v -0.400001 0.300000 -0.046154
v 0.400001 0.300000 -0.046154
v -0.400001 0.400000 0.153846
v 0.400001 0.400000 0.053846
vt 0.564310 0.954975
vt 0.520936 0.954975
vt 0.520936 0.607985
vt 0.564310 0.607985
vt 0.000150 0.694734
vt 0.086898 0.694734
vt 0.086898 0.868229
vt 0.000150 0.868229
vt 0.651658 0.390816
vt 0.608284 0.390816
vt 0.608284 0.607685
vt 0.478163 0.607685
vt 0.478163 0.347442
vt 0.651658 0.347442
vt 0.782380 0.260693
vt 0.782380 0.304067
vt 0.739007 0.304067
vt 0.739007 0.260693
vt 0.651658 0.260693
vt 0.695032 0.260693
vt 0.695032 0.304067
vt 0.651658 0.304067
vt 0.868828 0.000151
vt 0.868828 0.347141
vt 0.825454 0.347141
vt 0.825454 0.000151
vt 0.826055 0.781782
vt 0.826055 0.825156
vt 0.782681 0.825156
vt 0.782681 0.781782
vt 0.826055 0.694433
vt 0.782681 0.694433
vt 0.782681 0.347443
vt 0.826055 0.347443
vt 0.607984 0.607985
vt 0.607984 0.954975
vt 0.564610 0.954975
vt 0.564610 0.607985
vt 0.087198 0.868229
vt 0.087198 0.694734
vt 0.173946 0.694734
vt 0.173946 0.868229
vt 0.173946 0.347443
vt 0.217320 0.347443
vt 0.217320 0.390816
vt 0.304067 0.390816
vt 0.304067 0.651060
vt 0.217320 0.651060
vt 0.217320 0.694433
vt 0.173946 0.694433
vt 0.217620 0.868529
vt 0.174246 0.868529
vt 0.174246 0.781782
vt 0.217620 0.781782
vt 0.826355 0.694433
vt 0.826355 0.347443
vt 0.869729 0.347443
vt 0.869729 0.694433
vt 0.826055 0.825456
vt 0.826055 0.868830
vt 0.782681 0.868830
vt 0.782681 0.825456
vt 0.870029 0.347443
vt 0.913404 0.347443
vt 0.913404 0.694433
vt 0.870029 0.694433
vt 0.738706 0.954977
vt 0.695333 0.954977
vt 0.695333 0.607986
vt 0.738706 0.607986
vt 0.912502 0.000151
vt 0.912502 0.347141
vt 0.869128 0.347141
vt 0.869128 0.000151
vt 0.261294 0.825456
vt 0.261294 0.868830
vt 0.217920 0.868830
vt 0.217920 0.825456
vt 0.174246 0.694734
vt 0.260992 0.694734
vt 0.260992 0.781482
vt 0.174246 0.781481
vt 0.738706 0.607685
vt 0.651959 0.607685
vt 0.651959 0.347443
vt 0.738706 0.347443
vt 0.000150 0.694433
vt 0.000150 0.347443
vt 0.173645 0.347443
vt 0.173645 0.694433
vt 0.826055 0.694734
vt 0.826055 0.781481
vt 0.782681 0.781481
vt 0.782681 0.694734
vt 0.260694 0.000151
vt 0.520936 0.000151
vt 0.520936 0.347141
vt 0.260694 0.347141
vt 0.347741 0.954977
vt 0.304368 0.954977
vt 0.304368 0.607986
vt 0.347741 0.607986
vt 0.782381 0.781481
vt 0.739007 0.781481
vt 0.739007 0.694735
vt 0.782381 0.694735
vt 0.651358 0.347141
vt 0.521236 0.347141
vt 0.521236 0.000151
vt 0.651358 0.000151
vt 0.651358 0.130272
vt 0.564610 0.130272
vt 0.564610 0.217020
vt 0.651358 0.217020
vt 0.782380 0.694433
vt 0.739007 0.694433
vt 0.739007 0.347443
vt 0.782380 0.347443
vt 0.478764 0.954977
vt 0.435390 0.954977
vt 0.435390 0.607986
vt 0.478764 0.607986
vt 0.956476 0.347141
vt 0.956476 0.000151
vt 0.999850 0.000151
vt 0.999850 0.347141
vt 0.304368 0.607685
vt 0.304368 0.347443
vt 0.477863 0.347443
vt 0.477863 0.607685
vt 0.913703 0.694433
vt 0.913703 0.347443
vt 0.957077 0.347443
vt 0.957077 0.694433
vt 0.912802 0.000151
vt 0.956176 0.000151
vt 0.956176 0.347141
vt 0.912802 0.347141
vt 0.782380 0.781782
vt 0.782380 0.825156
vt 0.739007 0.825156
vt 0.739007 0.781782
vt 0.825153 0.000150
vt 0.825153 0.260393
vt 0.695032 0.260393
vt 0.695032 0.043524
vt 0.651658 0.043524
vt 0.651658 0.000150
vt 0.261294 0.781782
vt 0.261294 0.825156
vt 0.217920 0.825156
vt 0.217920 0.781782
vt 0.000150 0.043524
vt 0.000150 0.000151
vt 0.217019 0.000151
vt 0.217019 0.130272
vt 0.260393 0.130272
vt 0.260393 0.217020
vt 0.217019 0.217020
vt 0.217019 0.347141
vt 0.000150 0.347141
vt 0.000150 0.303768
vt 0.173645 0.303768
vt 0.173645 0.043524
vt 0.695332 0.260693
vt 0.738706 0.260693
vt 0.738706 0.304067
vt 0.695332 0.304067
vt 0.651658 0.954975
vt 0.608284 0.954975
vt 0.608284 0.607985
vt 0.651658 0.607985
vt 0.391716 0.607986
vt 0.435090 0.607986
vt 0.435090 0.954977
vt 0.391716 0.954977
vt 0.391416 0.954977
vt 0.348042 0.954977
vt 0.348042 0.607986
vt 0.391416 0.607986
vn 0.0000 0.0000 -1.0000
vn -1.0000 -0.0000 0.0000
vn 1.0000 0.0000 0.0000
vn 0.0000 1.0000 0.0000
vn 0.0000 -0.0000 1.0000
vn 0.0000 -1.0000 -0.0000
usemtl Chest_Small_Open
s off
f 50/1/1 47/2/1 46/3/1 49/4/1
f 23/5/2 7/6/2 6/7/2 27/8/2
f 37/9/3 24/10/3 41/11/3 12/12/3 33/13/3 44/14/3
f 29/15/2 1/16/2 2/17/2 46/18/2
f 45/19/2 42/20/2 35/21/2 1/22/2
f 30/23/4 45/24/4 1/25/4 21/26/4
f 28/27/2 48/28/2 19/29/2 51/30/2
f 46/31/5 2/32/5 13/33/5 47/34/5
f 16/35/5 51/36/5 19/37/5 38/38/5
f 25/39/3 8/40/3 9/41/3 26/42/3
f 42/43/5 22/44/5 9/45/5 8/46/5 7/47/5 23/48/5 24/49/5 37/50/5
f 40/51/3 11/52/3 10/53/3 34/54/3
f 39/55/1 48/56/1 28/57/1 52/58/1
f 49/59/2 46/60/2 20/61/2 48/62/2
f 35/63/6 42/64/6 37/65/6 36/66/6
f 29/67/4 46/68/4 47/69/4 14/70/4
f 29/71/1 14/72/1 21/73/1 1/74/1
f 47/75/3 50/76/3 39/77/3 15/78/3
f 11/79/5 3/80/5 17/81/5 10/82/5
f 25/83/1 26/84/1 27/85/1 6/86/1
f 33/87/1 32/88/1 43/89/1 44/90/1
f 5/91/2 4/92/2 17/93/2 3/94/2
f 31/95/6 32/96/6 33/97/6 12/98/6
f 48/99/5 20/100/5 15/101/5 39/102/5
f 34/103/6 10/104/6 17/105/6 4/106/6
f 18/107/5 31/108/5 12/109/5 41/110/5 40/111/5 34/112/5 4/113/5 5/114/5
f 30/115/1 37/116/1 42/117/1 45/118/1
f 47/119/6 15/120/6 20/121/6 46/122/6
f 42/123/4 37/124/4 44/125/4 43/126/4
f 25/127/4 6/128/4 7/129/4 8/130/4
f 13/131/6 2/132/6 1/133/6 21/134/6
f 19/135/6 48/136/6 39/137/6 38/138/6
f 39/139/3 52/140/3 16/141/3 38/142/3
f 32/143/2 31/144/2 18/145/2 22/146/2 42/147/2 43/148/2
f 21/149/3 14/150/3 47/151/3 13/152/3
f 9/153/4 22/154/4 18/155/4 5/156/4 3/157/4 11/158/4 40/159/4 41/160/4 24/161/4 23/162/4 27/163/4 26/164/4
f 37/165/3 30/166/3 21/167/3 36/168/3
f 1/169/5 35/170/5 36/171/5 21/172/5
f 39/173/4 50/174/4 49/175/4 48/176/4
f 28/177/4 51/178/4 16/179/4 52/180/4
