# MagicaVoxel @ Ephtracy

# group
o 

# material
mtllib Chest3-0.mtl
usemtl palette

# normals
vn -1 0 0
vn 1 0 0
vn 0 0 1
vn 0 0 -1
vn 0 -1 0
vn 0 1 0

# texcoords
vt 0.0527344 0.5
vt 0.150391 0.5
vt 0.162109 0.5

# verts
v -0.6 -1.49012e-08 0.8
v -0.6 -1.49012e-08 0.7
v -0.6 -1.49012e-08 0.1
v -0.6 -1.49012e-08 5.96046e-08
v -0.6 0.2 0.8
v -0.6 0.2 0.7
v -0.6 0.2 0.1
v -0.6 0.2 5.96046e-08
v -0.6 0.3 0.7
v -0.6 0.3 0.1
v -0.5 -1.49012e-08 0.7
v -0.5 -1.49012e-08 0.1
v -0.5 0.2 0.7
v -0.5 0.2 0.1
v -0.0999999 -0.1 0.8
v -0.0999999 -0.1 0.7
v -0.0999999 -1.49012e-08 0.8
v -0.0999999 -1.49012e-08 0.7
v 0.4 -1.49012e-08 0.7
v 0.4 -1.49012e-08 0.1
v 0.4 0.2 0.7
v 0.4 0.2 0.1
v -0.4 -1.49012e-08 0.7
v -0.4 -1.49012e-08 0.1
v -0.4 0.2 0.7
v -0.4 0.2 0.1
v 0.1 -0.1 0.8
v 0.1 -0.1 0.7
v 0.1 -1.49012e-08 0.8
v 0.1 -1.49012e-08 0.7
v 0.5 -1.49012e-08 0.7
v 0.5 -1.49012e-08 0.1
v 0.5 0.2 0.7
v 0.5 0.2 0.1
v 0.6 -1.49012e-08 0.8
v 0.6 -1.49012e-08 0.7
v 0.6 -1.49012e-08 0.1
v 0.6 -1.49012e-08 5.96046e-08
v 0.6 0.2 0.8
v 0.6 0.2 0.7
v 0.6 0.2 0.1
v 0.6 0.2 5.96046e-08
v 0.6 0.3 0.7
v 0.6 0.3 0.1
v -0.6 -1.49012e-08 0.8
v -0.6 0.2 0.8
v -0.5 -1.49012e-08 0.8
v -0.5 0.2 0.8
v -0.0999999 -0.1 0.8
v -0.0999999 -1.49012e-08 0.8
v 0.1 -0.1 0.8
v 0.1 -1.49012e-08 0.8
v 0.5 -1.49012e-08 0.8
v 0.5 0.2 0.8
v 0.6 -1.49012e-08 0.8
v 0.6 0.2 0.8
v -0.6 0.2 0.7
v -0.6 0.3 0.7
v -0.5 0.2 0.7
v -0.5 0.3 0.7
v 0.5 0.2 0.7
v 0.5 0.3 0.7
v 0.6 0.2 0.7
v 0.6 0.3 0.7
v -0.6 -1.49012e-08 0.1
v -0.6 0.2 0.1
v -0.5 -1.49012e-08 0.1
v -0.5 0.2 0.1
v -0.4 -1.49012e-08 0.1
v -0.4 0.2 0.1
v 0.4 -1.49012e-08 0.1
v 0.4 0.2 0.1
v 0.5 -1.49012e-08 0.1
v 0.5 0.2 0.1
v 0.6 -1.49012e-08 0.1
v 0.6 0.2 0.1
v -0.6 -1.49012e-08 0.7
v -0.6 0.2 0.7
v -0.5 -1.49012e-08 0.7
v -0.5 0.2 0.7
v -0.4 -1.49012e-08 0.7
v -0.4 0.2 0.7
v -0.0999999 -0.1 0.7
v -0.0999999 -1.49012e-08 0.7
v 0.1 -0.1 0.7
v 0.1 -1.49012e-08 0.7
v 0.4 -1.49012e-08 0.7
v 0.4 0.2 0.7
v 0.5 -1.49012e-08 0.7
v 0.5 0.2 0.7
v 0.6 -1.49012e-08 0.7
v 0.6 0.2 0.7
v -0.6 0.2 0.1
v -0.6 0.3 0.1
v -0.5 0.2 0.1
v -0.5 0.3 0.1
v 0.5 0.2 0.1
v 0.5 0.3 0.1
v 0.6 0.2 0.1
v 0.6 0.3 0.1
v -0.6 -1.49012e-08 5.96046e-08
v -0.6 0.2 5.96046e-08
v -0.5 -1.49012e-08 5.96046e-08
v -0.5 0.2 5.96046e-08
v 0.5 -1.49012e-08 5.96046e-08
v 0.5 0.2 5.96046e-08
v 0.6 -1.49012e-08 5.96046e-08
v 0.6 0.2 5.96046e-08
v -0.0999999 -0.1 0.8
v 0.1 -0.1 0.8
v -0.0999999 -0.1 0.7
v 0.1 -0.1 0.7
v -0.6 -1.49012e-08 0.8
v -0.5 -1.49012e-08 0.8
v -0.0999999 -1.49012e-08 0.8
v 0.1 -1.49012e-08 0.8
v 0.5 -1.49012e-08 0.8
v 0.6 -1.49012e-08 0.8
v -0.6 -1.49012e-08 0.7
v -0.5 -1.49012e-08 0.7
v -0.4 -1.49012e-08 0.7
v -0.0999999 -1.49012e-08 0.7
v 0.1 -1.49012e-08 0.7
v 0.4 -1.49012e-08 0.7
v 0.5 -1.49012e-08 0.7
v 0.6 -1.49012e-08 0.7
v -0.6 -1.49012e-08 0.1
v -0.5 -1.49012e-08 0.1
v -0.4 -1.49012e-08 0.1
v 0.4 -1.49012e-08 0.1
v 0.5 -1.49012e-08 0.1
v 0.6 -1.49012e-08 0.1
v -0.6 -1.49012e-08 5.96046e-08
v -0.5 -1.49012e-08 5.96046e-08
v 0.5 -1.49012e-08 5.96046e-08
v 0.6 -1.49012e-08 5.96046e-08
v -0.6 0.2 0.7
v -0.5 0.2 0.7
v -0.4 0.2 0.7
v 0.4 0.2 0.7
v 0.5 0.2 0.7
v 0.6 0.2 0.7
v -0.6 0.2 0.1
v -0.5 0.2 0.1
v -0.4 0.2 0.1
v 0.4 0.2 0.1
v 0.5 0.2 0.1
v 0.6 0.2 0.1
v -0.6 0.2 0.8
v -0.5 0.2 0.8
v 0.5 0.2 0.8
v 0.6 0.2 0.8
v -0.6 0.2 0.7
v -0.5 0.2 0.7
v 0.5 0.2 0.7
v 0.6 0.2 0.7
v -0.6 0.2 0.1
v -0.5 0.2 0.1
v 0.5 0.2 0.1
v 0.6 0.2 0.1
v -0.6 0.2 5.96046e-08
v -0.5 0.2 5.96046e-08
v 0.5 0.2 5.96046e-08
v 0.6 0.2 5.96046e-08
v -0.6 0.3 0.7
v -0.5 0.3 0.7
v 0.5 0.3 0.7
v 0.6 0.3 0.7
v -0.6 0.3 0.1
v -0.5 0.3 0.1
v 0.5 0.3 0.1
v 0.6 0.3 0.1

# faces
f 5/3/1 2/3/1 1/3/1
f 6/3/1 2/3/1 5/3/1
f 7/3/1 4/3/1 3/3/1
f 8/3/1 4/3/1 7/3/1
f 9/3/1 7/3/1 6/3/1
f 10/3/1 7/3/1 9/3/1
f 13/1/1 12/1/1 11/1/1
f 14/1/1 12/1/1 13/1/1
f 17/2/1 16/2/1 15/2/1
f 18/2/1 16/2/1 17/2/1
f 21/1/1 20/1/1 19/1/1
f 22/1/1 20/1/1 21/1/1
f 23/1/2 24/1/2 25/1/2
f 25/1/2 24/1/2 26/1/2
f 27/2/2 28/2/2 29/2/2
f 29/2/2 28/2/2 30/2/2
f 31/1/2 32/1/2 33/1/2
f 33/1/2 32/1/2 34/1/2
f 35/3/2 36/3/2 39/3/2
f 39/3/2 36/3/2 40/3/2
f 37/3/2 38/3/2 41/3/2
f 41/3/2 38/3/2 42/3/2
f 40/3/2 41/3/2 43/3/2
f 43/3/2 41/3/2 44/3/2
f 47/3/3 46/3/3 45/3/3
f 48/3/3 46/3/3 47/3/3
f 50/1/3 48/1/3 47/1/3
f 51/2/3 50/2/3 49/2/3
f 52/1/3 48/1/3 50/1/3
f 52/2/3 50/2/3 51/2/3
f 53/1/3 48/1/3 52/1/3
f 54/1/3 48/1/3 53/1/3
f 55/3/3 54/3/3 53/3/3
f 56/3/3 54/3/3 55/3/3
f 59/3/3 58/3/3 57/3/3
f 60/3/3 58/3/3 59/3/3
f 61/1/3 60/1/3 59/1/3
f 62/1/3 60/1/3 61/1/3
f 63/3/3 62/3/3 61/3/3
f 64/3/3 62/3/3 63/3/3
f 67/3/3 66/3/3 65/3/3
f 68/3/3 66/3/3 67/3/3
f 71/1/3 70/1/3 69/1/3
f 72/1/3 70/1/3 71/1/3
f 75/3/3 74/3/3 73/3/3
f 76/3/3 74/3/3 75/3/3
f 77/3/4 78/3/4 79/3/4
f 79/3/4 78/3/4 80/3/4
f 81/1/4 82/1/4 84/1/4
f 83/2/4 84/2/4 85/2/4
f 84/1/4 82/1/4 86/1/4
f 85/2/4 84/2/4 86/2/4
f 86/1/4 82/1/4 87/1/4
f 87/1/4 82/1/4 88/1/4
f 89/3/4 90/3/4 91/3/4
f 91/3/4 90/3/4 92/3/4
f 93/3/4 94/3/4 95/3/4
f 95/3/4 94/3/4 96/3/4
f 95/1/4 96/1/4 97/1/4
f 97/1/4 96/1/4 98/1/4
f 97/3/4 98/3/4 99/3/4
f 99/3/4 98/3/4 100/3/4
f 101/3/4 102/3/4 103/3/4
f 103/3/4 102/3/4 104/3/4
f 103/1/4 104/1/4 105/1/4
f 105/1/4 104/1/4 106/1/4
f 105/3/4 106/3/4 107/3/4
f 107/3/4 106/3/4 108/3/4
f 111/2/5 110/2/5 109/2/5
f 112/2/5 110/2/5 111/2/5
f 119/3/5 114/3/5 113/3/5
f 120/1/5 115/1/5 114/1/5
f 120/3/5 114/3/5 119/3/5
f 121/1/5 115/1/5 120/1/5
f 122/1/5 115/1/5 121/1/5
f 123/1/5 117/1/5 116/1/5
f 124/1/5 117/1/5 123/1/5
f 125/3/5 118/3/5 117/3/5
f 125/1/5 117/1/5 124/1/5
f 126/3/5 118/3/5 125/3/5
f 128/1/5 121/1/5 120/1/5
f 129/1/5 121/1/5 128/1/5
f 130/1/5 125/1/5 124/1/5
f 131/1/5 125/1/5 130/1/5
f 133/3/5 128/3/5 127/3/5
f 134/1/5 129/1/5 128/1/5
f 134/3/5 128/3/5 133/3/5
f 134/1/5 130/1/5 129/1/5
f 134/1/5 131/1/5 130/1/5
f 135/3/5 132/3/5 131/3/5
f 135/1/5 131/1/5 134/1/5
f 136/3/5 132/3/5 135/3/5
f 143/3/5 138/3/5 137/3/5
f 144/3/5 138/3/5 143/3/5
f 145/1/5 140/1/5 139/1/5
f 146/1/5 140/1/5 145/1/5
f 147/3/5 142/3/5 141/3/5
f 148/3/5 142/3/5 147/3/5
f 149/3/6 150/3/6 153/3/6
f 150/1/6 151/1/6 154/1/6
f 153/3/6 150/3/6 154/3/6
f 151/3/6 152/3/6 155/3/6
f 154/1/6 151/1/6 155/1/6
f 155/3/6 152/3/6 156/3/6
f 157/3/6 158/3/6 161/3/6
f 158/1/6 159/1/6 162/1/6
f 161/3/6 158/3/6 162/3/6
f 159/3/6 160/3/6 163/3/6
f 162/1/6 159/1/6 163/1/6
f 163/3/6 160/3/6 164/3/6
f 165/3/6 166/3/6 169/3/6
f 166/1/6 167/1/6 170/1/6
f 169/3/6 166/3/6 170/3/6
f 167/3/6 168/3/6 171/3/6
f 170/1/6 167/1/6 171/1/6
f 171/3/6 168/3/6 172/3/6
