# MagicaVoxel @ Ephtracy

# group
o 

# material
mtllib Mushroom Green.mtl
usemtl palette

# normals
vn -1 0 0
vn 1 0 0
vn 0 0 1
vn 0 0 -1
vn 0 -1 0
vn 0 1 0

# texcoords
vt 0.0253906 0.5
vt 0.0566406 0.5
vt 0.0644531 0.5
vt 0.0917969 0.5
vt 0.111328 0.5

# verts
v -0.0999999 0.2 0.2
v -0.0999999 0.2 0.0999999
v -0.0999999 0.2 -0.1
v -0.0999999 0.3 0.2
v -0.0999999 0.3 0.0999999
v -0.0999999 0.4 0.2
v -0.0999999 0.4 -0.1
v 7.45058e-08 0 0.0999999
v 7.45058e-08 0 -5.96046e-08
v 7.45058e-08 0.1 0.0999999
v 7.45058e-08 0.1 -5.96046e-08
v 7.45058e-08 0.2 0.0999999
v 7.45058e-08 0.2 -5.96046e-08
v 0.1 0 0.0999999
v 0.1 0 -5.96046e-08
v 0.1 0.1 0.0999999
v 0.1 0.1 -5.96046e-08
v 0.1 0.2 0.0999999
v 0.1 0.2 -5.96046e-08
v 0.2 0.2 0.2
v 0.2 0.2 -0.1
v 0.2 0.3 0.2
v 0.2 0.3 0.0999999
v 0.2 0.4 0.2
v 0.2 0.4 0.0999999
v 0.2 0.4 -0.1
v -0.0999999 0.2 0.2
v -0.0999999 0.3 0.2
v -0.0999999 0.4 0.2
v 7.45058e-08 0.2 0.2
v 7.45058e-08 0.3 0.2
v 0.1 0.3 0.2
v 0.1 0.4 0.2
v 0.2 0.2 0.2
v 0.2 0.3 0.2
v 0.2 0.4 0.2
v 7.45058e-08 0 0.0999999
v 7.45058e-08 0.1 0.0999999
v 7.45058e-08 0.2 0.0999999
v 0.1 0 0.0999999
v 0.1 0.1 0.0999999
v 0.1 0.2 0.0999999
v 7.45058e-08 0 -5.96046e-08
v 7.45058e-08 0.1 -5.96046e-08
v 7.45058e-08 0.2 -5.96046e-08
v 0.1 0 -5.96046e-08
v 0.1 0.1 -5.96046e-08
v 0.1 0.2 -5.96046e-08
v -0.0999999 0.2 -0.1
v -0.0999999 0.4 -0.1
v 7.45058e-08 0.3 -0.1
v 7.45058e-08 0.4 -0.1
v 0.1 0.3 -0.1
v 0.1 0.4 -0.1
v 0.2 0.2 -0.1
v 0.2 0.4 -0.1
v 7.45058e-08 0 0.0999999
v 0.1 0 0.0999999
v 7.45058e-08 0 -5.96046e-08
v 0.1 0 -5.96046e-08
v -0.0999999 0.2 0.2
v 7.45058e-08 0.2 0.2
v 0.2 0.2 0.2
v -0.0999999 0.2 0.0999999
v 7.45058e-08 0.2 0.0999999
v 0.1 0.2 0.0999999
v 7.45058e-08 0.2 -5.96046e-08
v 0.1 0.2 -5.96046e-08
v -0.0999999 0.2 -0.1
v 0.2 0.2 -0.1
v -0.0999999 0.4 0.2
v 0.1 0.4 0.2
v 0.2 0.4 0.2
v 0.1 0.4 0.0999999
v 0.2 0.4 0.0999999
v 7.45058e-08 0.4 -5.96046e-08
v 0.1 0.4 -5.96046e-08
v -0.0999999 0.4 -0.1
v 7.45058e-08 0.4 -0.1
v 0.1 0.4 -0.1
v 0.2 0.4 -0.1

# faces
f 4/5/1 2/5/1 1/5/1
f 5/1/1 3/1/1 2/1/1
f 5/5/1 2/5/1 4/5/1
f 6/1/1 5/1/1 4/1/1
f 7/1/1 3/1/1 5/1/1
f 7/1/1 5/1/1 6/1/1
f 10/3/1 9/3/1 8/3/1
f 11/3/1 9/3/1 10/3/1
f 12/2/1 11/2/1 10/2/1
f 13/2/1 11/2/1 12/2/1
f 14/3/2 15/3/2 16/3/2
f 16/3/2 15/3/2 17/3/2
f 16/2/2 17/2/2 18/2/2
f 18/2/2 17/2/2 19/2/2
f 20/1/2 21/1/2 22/1/2
f 22/1/2 21/1/2 23/1/2
f 22/5/2 23/5/2 24/5/2
f 23/1/2 21/1/2 25/1/2
f 24/5/2 23/5/2 25/5/2
f 25/1/2 21/1/2 26/1/2
f 30/5/3 28/5/3 27/5/3
f 31/1/3 29/1/3 28/1/3
f 31/5/3 28/5/3 30/5/3
f 32/1/3 31/1/3 30/1/3
f 32/1/3 29/1/3 31/1/3
f 33/1/3 29/1/3 32/1/3
f 34/1/3 32/1/3 30/1/3
f 35/5/3 33/5/3 32/5/3
f 35/1/3 32/1/3 34/1/3
f 36/5/3 33/5/3 35/5/3
f 40/3/3 38/3/3 37/3/3
f 41/2/3 39/2/3 38/2/3
f 41/3/3 38/3/3 40/3/3
f 42/2/3 39/2/3 41/2/3
f 43/3/4 44/3/4 46/3/4
f 44/2/4 45/2/4 47/2/4
f 46/3/4 44/3/4 47/3/4
f 47/2/4 45/2/4 48/2/4
f 49/1/4 50/1/4 51/1/4
f 51/1/4 50/1/4 52/1/4
f 49/1/4 51/1/4 53/1/4
f 51/5/4 52/5/4 53/5/4
f 53/5/4 52/5/4 54/5/4
f 49/1/4 53/1/4 55/1/4
f 53/1/4 54/1/4 55/1/4
f 55/1/4 54/1/4 56/1/4
f 59/3/5 58/3/5 57/3/5
f 60/3/5 58/3/5 59/3/5
f 64/5/5 62/5/5 61/5/5
f 65/1/5 63/1/5 62/1/5
f 65/5/5 62/5/5 64/5/5
f 66/1/5 63/1/5 65/1/5
f 67/1/5 65/1/5 64/1/5
f 68/1/5 63/1/5 66/1/5
f 69/1/5 67/1/5 64/1/5
f 69/1/5 68/1/5 67/1/5
f 70/1/5 63/1/5 68/1/5
f 70/1/5 68/1/5 69/1/5
f 71/1/6 72/1/6 74/1/6
f 72/5/6 73/5/6 74/5/6
f 74/5/6 73/5/6 75/5/6
f 71/1/6 74/1/6 76/1/6
f 74/1/6 75/1/6 76/1/6
f 76/1/6 75/1/6 77/1/6
f 71/1/6 76/1/6 78/1/6
f 76/5/6 77/5/6 79/5/6
f 78/1/6 76/1/6 79/1/6
f 77/1/6 75/1/6 80/1/6
f 79/5/6 77/5/6 80/5/6
f 80/1/6 75/1/6 81/1/6
