# MagicaVoxel @ Ephtracy

# group
o 

# material
mtllib Wood Pillar.mtl
usemtl palette

# normals
vn -1 0 0
vn 1 0 0
vn 0 0 1
vn 0 0 -1
vn 0 -1 0
vn 0 1 0

# texcoords
vt 0.0527344 0.5
vt 0.0761719 0.5
vt 0.154297 0.5

# verts
v -0.2 0.6 0.0999999
v -0.2 0.6 -0.1
v -0.2 0.8 0.0999999
v -0.2 0.8 -0.1
v -0.2 2.2 0.0999999
v -0.2 2.2 -0.1
v -0.2 2.4 0.0999999
v -0.2 2.4 -0.1
v -0.0999999 0 0.0999999
v -0.0999999 0 -0.1
v -0.0999999 0.4 -5.96046e-08
v -0.0999999 0.4 -0.1
v -0.0999999 0.6 0.2
v -0.0999999 0.6 0.0999999
v -0.0999999 0.6 -5.96046e-08
v -0.0999999 0.6 -0.1
v -0.0999999 0.6 -0.2
v -0.0999999 0.8 0.2
v -0.0999999 0.8 0.0999999
v -0.0999999 0.8 -5.96046e-08
v -0.0999999 0.8 -0.1
v -0.0999999 0.8 -0.2
v -0.0999999 1.1 -5.96046e-08
v -0.0999999 1.1 -0.1
v -0.0999999 1.5 0.0999999
v -0.0999999 1.5 -5.96046e-08
v -0.0999999 2 0.0999999
v -0.0999999 2 -5.96046e-08
v -0.0999999 2.2 0.2
v -0.0999999 2.2 0.0999999
v -0.0999999 2.2 -0.1
v -0.0999999 2.2 -0.2
v -0.0999999 2.4 0.2
v -0.0999999 2.4 0.0999999
v -0.0999999 2.4 -5.96046e-08
v -0.0999999 2.4 -0.1
v -0.0999999 2.4 -0.2
v -0.0999999 2.6 -5.96046e-08
v -0.0999999 2.6 -0.1
v -0.0999999 2.7 0.0999999
v -0.0999999 2.7 -5.96046e-08
v -0.0999999 3 0.0999999
v -0.0999999 3 -5.96046e-08
v -0.0999999 3 -0.1
v 0.1 0 0.0999999
v 0.1 0 -0.1
v 0.1 0.1 -5.96046e-08
v 0.1 0.1 -0.1
v 0.1 0.3 -5.96046e-08
v 0.1 0.3 -0.1
v 0.1 0.6 0.2
v 0.1 0.6 0.0999999
v 0.1 0.6 -0.1
v 0.1 0.6 -0.2
v 0.1 0.8 0.2
v 0.1 0.8 0.0999999
v 0.1 0.8 -5.96046e-08
v 0.1 0.8 -0.1
v 0.1 0.8 -0.2
v 0.1 1.1 0.0999999
v 0.1 1.1 -5.96046e-08
v 0.1 1.7 -5.96046e-08
v 0.1 1.7 -0.1
v 0.1 2 -5.96046e-08
v 0.1 2 -0.1
v 0.1 2.1 0.0999999
v 0.1 2.1 -5.96046e-08
v 0.1 2.2 0.2
v 0.1 2.2 0.0999999
v 0.1 2.2 -5.96046e-08
v 0.1 2.2 -0.1
v 0.1 2.2 -0.2
v 0.1 2.4 0.2
v 0.1 2.4 0.0999999
v 0.1 2.4 -5.96046e-08
v 0.1 2.4 -0.1
v 0.1 2.4 -0.2
v 0.1 2.5 0.0999999
v 0.1 2.5 -5.96046e-08
v 0.1 3 0.0999999
v 0.1 3 -0.1
v 0.2 0.6 0.0999999
v 0.2 0.6 -0.1
v 0.2 0.8 0.0999999
v 0.2 0.8 -0.1
v 0.2 2.2 0.0999999
v 0.2 2.2 -0.1
v 0.2 2.4 0.0999999
v 0.2 2.4 -0.1
v -0.0999999 0.6 0.2
v -0.0999999 0.8 0.2
v -0.0999999 2.2 0.2
v -0.0999999 2.4 0.2
v 0.1 0.6 0.2
v 0.1 0.8 0.2
v 0.1 2.2 0.2
v 0.1 2.4 0.2
v -0.2 0.6 0.0999999
v -0.2 0.8 0.0999999
v -0.2 2.2 0.0999999
v -0.2 2.4 0.0999999
v -0.0999999 0 0.0999999
v -0.0999999 0.6 0.0999999
v -0.0999999 0.8 0.0999999
v -0.0999999 1.5 0.0999999
v -0.0999999 2 0.0999999
v -0.0999999 2.2 0.0999999
v -0.0999999 2.4 0.0999999
v -0.0999999 2.7 0.0999999
v -0.0999999 3 0.0999999
v 5.96046e-08 0.8 0.0999999
v 5.96046e-08 1.1 0.0999999
v 5.96046e-08 1.5 0.0999999
v 5.96046e-08 2 0.0999999
v 5.96046e-08 2.1 0.0999999
v 5.96046e-08 2.2 0.0999999
v 5.96046e-08 2.4 0.0999999
v 5.96046e-08 2.5 0.0999999
v 5.96046e-08 2.7 0.0999999
v 5.96046e-08 3 0.0999999
v 0.1 0 0.0999999
v 0.1 0.6 0.0999999
v 0.1 0.8 0.0999999
v 0.1 1.1 0.0999999
v 0.1 2.1 0.0999999
v 0.1 2.2 0.0999999
v 0.1 2.4 0.0999999
v 0.1 2.5 0.0999999
v 0.1 3 0.0999999
v 0.2 0.6 0.0999999
v 0.2 0.8 0.0999999
v 0.2 2.2 0.0999999
v 0.2 2.4 0.0999999
v -0.2 0.6 -0.1
v -0.2 0.8 -0.1
v -0.2 2.2 -0.1
v -0.2 2.4 -0.1
v -0.0999999 0 -0.1
v -0.0999999 0.4 -0.1
v -0.0999999 0.6 -0.1
v -0.0999999 0.8 -0.1
v -0.0999999 1.1 -0.1
v -0.0999999 2.2 -0.1
v -0.0999999 2.4 -0.1
v -0.0999999 2.6 -0.1
v -0.0999999 3 -0.1
v 5.96046e-08 0.1 -0.1
v 5.96046e-08 0.3 -0.1
v 5.96046e-08 0.4 -0.1
v 5.96046e-08 0.6 -0.1
v 5.96046e-08 0.8 -0.1
v 5.96046e-08 1.1 -0.1
v 5.96046e-08 1.7 -0.1
v 5.96046e-08 2 -0.1
v 5.96046e-08 2.4 -0.1
v 5.96046e-08 2.6 -0.1
v 0.1 0 -0.1
v 0.1 0.1 -0.1
v 0.1 0.3 -0.1
v 0.1 0.6 -0.1
v 0.1 0.8 -0.1
v 0.1 1.7 -0.1
v 0.1 2 -0.1
v 0.1 2.2 -0.1
v 0.1 2.4 -0.1
v 0.1 3 -0.1
v 0.2 0.6 -0.1
v 0.2 0.8 -0.1
v 0.2 2.2 -0.1
v 0.2 2.4 -0.1
v -0.0999999 0.6 -0.2
v -0.0999999 0.8 -0.2
v -0.0999999 2.2 -0.2
v -0.0999999 2.4 -0.2
v 0.1 0.6 -0.2
v 0.1 0.8 -0.2
v 0.1 2.2 -0.2
v 0.1 2.4 -0.2
v -0.0999999 0 0.0999999
v 0.1 0 0.0999999
v -0.0999999 0 -0.1
v 0.1 0 -0.1
v -0.0999999 0.6 0.2
v 0.1 0.6 0.2
v -0.2 0.6 0.0999999
v -0.0999999 0.6 0.0999999
v 0.1 0.6 0.0999999
v 0.2 0.6 0.0999999
v -0.0999999 0.6 -5.96046e-08
v -0.2 0.6 -0.1
v -0.0999999 0.6 -0.1
v 5.96046e-08 0.6 -0.1
v 0.1 0.6 -0.1
v 0.2 0.6 -0.1
v -0.0999999 0.6 -0.2
v 0.1 0.6 -0.2
v -0.0999999 2.2 0.2
v 0.1 2.2 0.2
v -0.2 2.2 0.0999999
v -0.0999999 2.2 0.0999999
v 5.96046e-08 2.2 0.0999999
v 0.1 2.2 0.0999999
v 0.2 2.2 0.0999999
v 0.1 2.2 -5.96046e-08
v -0.2 2.2 -0.1
v -0.0999999 2.2 -0.1
v 0.1 2.2 -0.1
v 0.2 2.2 -0.1
v -0.0999999 2.2 -0.2
v 0.1 2.2 -0.2
v -0.0999999 0.8 0.2
v 0.1 0.8 0.2
v -0.2 0.8 0.0999999
v -0.0999999 0.8 0.0999999
v 5.96046e-08 0.8 0.0999999
v 0.1 0.8 0.0999999
v 0.2 0.8 0.0999999
v -0.0999999 0.8 -5.96046e-08
v 0.1 0.8 -5.96046e-08
v -0.2 0.8 -0.1
v -0.0999999 0.8 -0.1
v 5.96046e-08 0.8 -0.1
v 0.1 0.8 -0.1
v 0.2 0.8 -0.1
v -0.0999999 0.8 -0.2
v 0.1 0.8 -0.2
v -0.0999999 2.4 0.2
v 0.1 2.4 0.2
v -0.2 2.4 0.0999999
v -0.0999999 2.4 0.0999999
v 5.96046e-08 2.4 0.0999999
v 0.1 2.4 0.0999999
v 0.2 2.4 0.0999999
v -0.0999999 2.4 -5.96046e-08
v 0.1 2.4 -5.96046e-08
v -0.2 2.4 -0.1
v -0.0999999 2.4 -0.1
v 5.96046e-08 2.4 -0.1
v 0.1 2.4 -0.1
v 0.2 2.4 -0.1
v -0.0999999 2.4 -0.2
v 0.1 2.4 -0.2
v -0.0999999 3 0.0999999
v 5.96046e-08 3 0.0999999
v 0.1 3 0.0999999
v -0.0999999 3 -5.96046e-08
v 5.96046e-08 3 -5.96046e-08
v -0.0999999 3 -0.1
v 0.1 3 -0.1

# faces
f 3/3/1 2/3/1 1/3/1
f 4/3/1 2/3/1 3/3/1
f 7/3/1 6/3/1 5/3/1
f 8/3/1 6/3/1 7/3/1
f 11/2/1 10/2/1 9/2/1
f 12/2/1 10/2/1 11/2/1
f 14/2/1 11/2/1 9/2/1
f 15/1/1 12/1/1 11/1/1
f 15/2/1 11/2/1 14/2/1
f 16/1/1 12/1/1 15/1/1
f 18/3/1 14/3/1 13/3/1
f 19/3/1 14/3/1 18/3/1
f 21/3/1 17/3/1 16/3/1
f 22/3/1 17/3/1 21/3/1
f 23/2/1 20/2/1 19/2/1
f 23/1/1 21/1/1 20/1/1
f 24/1/1 21/1/1 23/1/1
f 25/2/1 23/2/1 19/2/1
f 25/2/1 24/2/1 23/2/1
f 26/2/1 24/2/1 25/2/1
f 27/1/1 26/1/1 25/1/1
f 28/2/1 24/2/1 26/2/1
f 28/1/1 26/1/1 27/1/1
f 30/2/1 28/2/1 27/2/1
f 31/2/1 24/2/1 28/2/1
f 31/2/1 28/2/1 30/2/1
f 33/3/1 30/3/1 29/3/1
f 34/3/1 30/3/1 33/3/1
f 36/3/1 32/3/1 31/3/1
f 37/3/1 32/3/1 36/3/1
f 38/2/1 35/2/1 34/2/1
f 38/1/1 36/1/1 35/1/1
f 39/1/1 36/1/1 38/1/1
f 40/2/1 38/2/1 34/2/1
f 40/2/1 39/2/1 38/2/1
f 41/2/1 39/2/1 40/2/1
f 42/1/1 41/1/1 40/1/1
f 43/2/1 39/2/1 41/2/1
f 43/1/1 41/1/1 42/1/1
f 44/2/1 39/2/1 43/2/1
f 45/2/2 46/2/2 47/2/2
f 47/2/2 46/2/2 48/2/2
f 45/2/2 47/2/2 49/2/2
f 47/1/2 48/1/2 49/1/2
f 49/1/2 48/1/2 50/1/2
f 45/2/2 49/2/2 52/2/2
f 49/2/2 50/2/2 52/2/2
f 52/2/2 50/2/2 53/2/2
f 51/3/2 52/3/2 55/3/2
f 55/3/2 52/3/2 56/3/2
f 53/3/2 54/3/2 58/3/2
f 58/3/2 54/3/2 59/3/2
f 56/1/2 57/1/2 60/1/2
f 57/2/2 58/2/2 61/2/2
f 60/1/2 57/1/2 61/1/2
f 60/2/2 61/2/2 62/2/2
f 61/2/2 58/2/2 62/2/2
f 62/2/2 58/2/2 63/2/2
f 60/2/2 62/2/2 64/2/2
f 62/1/2 63/1/2 64/1/2
f 64/1/2 63/1/2 65/1/2
f 60/2/2 64/2/2 66/2/2
f 64/2/2 65/2/2 66/2/2
f 66/2/2 65/2/2 67/2/2
f 66/1/2 67/1/2 69/1/2
f 67/2/2 65/2/2 70/2/2
f 69/1/2 67/1/2 70/1/2
f 70/2/2 65/2/2 71/2/2
f 68/3/2 69/3/2 73/3/2
f 73/3/2 69/3/2 74/3/2
f 71/3/2 72/3/2 76/3/2
f 76/3/2 72/3/2 77/3/2
f 74/1/2 75/1/2 78/1/2
f 75/2/2 76/2/2 79/2/2
f 78/1/2 75/1/2 79/1/2
f 78/2/2 79/2/2 80/2/2
f 79/2/2 76/2/2 81/2/2
f 80/2/2 79/2/2 81/2/2
f 82/3/2 83/3/2 84/3/2
f 84/3/2 83/3/2 85/3/2
f 86/3/2 87/3/2 88/3/2
f 88/3/2 87/3/2 89/3/2
f 94/3/3 91/3/3 90/3/3
f 95/3/3 91/3/3 94/3/3
f 96/3/3 93/3/3 92/3/3
f 97/3/3 93/3/3 96/3/3
f 103/3/3 99/3/3 98/3/3
f 104/3/3 99/3/3 103/3/3
f 107/3/3 101/3/3 100/3/3
f 108/3/3 101/3/3 107/3/3
f 111/2/3 105/2/3 104/2/3
f 112/2/3 105/2/3 111/2/3
f 113/1/3 106/1/3 105/1/3
f 113/2/3 105/2/3 112/2/3
f 114/2/3 107/2/3 106/2/3
f 114/1/3 106/1/3 113/1/3
f 115/2/3 107/2/3 114/2/3
f 116/2/3 107/2/3 115/2/3
f 117/2/3 109/2/3 108/2/3
f 118/2/3 109/2/3 117/2/3
f 119/1/3 110/1/3 109/1/3
f 119/2/3 109/2/3 118/2/3
f 120/1/3 110/1/3 119/1/3
f 121/2/3 103/2/3 102/2/3
f 122/2/3 103/2/3 121/2/3
f 123/1/3 112/1/3 111/1/3
f 124/2/3 113/2/3 112/2/3
f 124/2/3 114/2/3 113/2/3
f 124/1/3 112/1/3 123/1/3
f 124/2/3 115/2/3 114/2/3
f 125/1/3 116/1/3 115/1/3
f 125/2/3 115/2/3 124/2/3
f 126/1/3 116/1/3 125/1/3
f 127/1/3 118/1/3 117/1/3
f 128/2/3 119/2/3 118/2/3
f 128/2/3 120/2/3 119/2/3
f 128/1/3 118/1/3 127/1/3
f 129/2/3 120/2/3 128/2/3
f 130/3/3 123/3/3 122/3/3
f 131/3/3 123/3/3 130/3/3
f 132/3/3 127/3/3 126/3/3
f 133/3/3 127/3/3 132/3/3
f 134/3/4 135/3/4 140/3/4
f 140/3/4 135/3/4 141/3/4
f 136/3/4 137/3/4 143/3/4
f 143/3/4 137/3/4 144/3/4
f 138/2/4 139/2/4 147/2/4
f 147/2/4 139/2/4 148/2/4
f 139/1/4 140/1/4 149/1/4
f 148/2/4 139/2/4 149/2/4
f 149/1/4 140/1/4 150/1/4
f 141/1/4 142/1/4 151/1/4
f 142/2/4 143/2/4 152/2/4
f 151/1/4 142/1/4 152/1/4
f 152/2/4 143/2/4 153/2/4
f 153/2/4 143/2/4 154/2/4
f 144/1/4 145/1/4 155/1/4
f 145/2/4 146/2/4 156/2/4
f 155/1/4 145/1/4 156/1/4
f 138/2/4 147/2/4 157/2/4
f 147/1/4 148/1/4 158/1/4
f 157/2/4 147/2/4 158/2/4
f 149/2/4 150/2/4 159/2/4
f 158/1/4 148/1/4 159/1/4
f 148/2/4 149/2/4 159/2/4
f 159/2/4 150/2/4 160/2/4
f 151/2/4 152/2/4 161/2/4
f 152/2/4 153/2/4 161/2/4
f 153/1/4 154/1/4 162/1/4
f 161/2/4 153/2/4 162/2/4
f 154/2/4 143/2/4 163/2/4
f 162/1/4 154/1/4 163/1/4
f 163/2/4 143/2/4 164/2/4
f 155/2/4 156/2/4 165/2/4
f 156/2/4 146/2/4 166/2/4
f 165/2/4 156/2/4 166/2/4
f 160/3/4 161/3/4 167/3/4
f 167/3/4 161/3/4 168/3/4
f 164/3/4 165/3/4 169/3/4
f 169/3/4 165/3/4 170/3/4
f 171/3/4 172/3/4 175/3/4
f 175/3/4 172/3/4 176/3/4
f 173/3/4 174/3/4 177/3/4
f 177/3/4 174/3/4 178/3/4
f 181/2/5 180/2/5 179/2/5
f 182/2/5 180/2/5 181/2/5
f 186/3/5 184/3/5 183/3/5
f 187/3/5 184/3/5 186/3/5
f 189/3/5 186/3/5 185/3/5
f 190/3/5 189/3/5 185/3/5
f 191/3/5 189/3/5 190/3/5
f 193/3/5 188/3/5 187/3/5
f 194/3/5 188/3/5 193/3/5
f 195/3/5 192/3/5 191/3/5
f 195/3/5 193/3/5 192/3/5
f 196/3/5 193/3/5 195/3/5
f 200/3/5 198/3/5 197/3/5
f 201/3/5 198/3/5 200/3/5
f 202/3/5 198/3/5 201/3/5
f 204/3/5 203/3/5 202/3/5
f 205/3/5 200/3/5 199/3/5
f 206/3/5 200/3/5 205/3/5
f 207/3/5 203/3/5 204/3/5
f 208/3/5 203/3/5 207/3/5
f 209/3/5 207/3/5 206/3/5
f 210/3/5 207/3/5 209/3/5
f 211/3/6 212/3/6 214/3/6
f 214/3/6 212/3/6 215/3/6
f 215/3/6 212/3/6 216/3/6
f 213/3/6 214/3/6 218/3/6
f 216/3/6 217/3/6 219/3/6
f 213/3/6 218/3/6 220/3/6
f 220/3/6 218/3/6 221/3/6
f 219/3/6 217/3/6 223/3/6
f 223/3/6 217/3/6 224/3/6
f 221/3/6 222/3/6 225/3/6
f 222/3/6 223/3/6 225/3/6
f 225/3/6 223/3/6 226/3/6
f 227/3/6 228/3/6 230/3/6
f 230/3/6 228/3/6 231/3/6
f 231/3/6 228/3/6 232/3/6
f 229/3/6 230/3/6 234/3/6
f 232/3/6 233/3/6 235/3/6
f 229/3/6 234/3/6 236/3/6
f 236/3/6 234/3/6 237/3/6
f 235/3/6 233/3/6 239/3/6
f 239/3/6 233/3/6 240/3/6
f 237/3/6 238/3/6 241/3/6
f 238/3/6 239/3/6 241/3/6
f 241/3/6 239/3/6 242/3/6
f 243/1/6 244/1/6 246/1/6
f 244/2/6 245/2/6 247/2/6
f 246/1/6 244/1/6 247/1/6
f 246/2/6 247/2/6 248/2/6
f 247/2/6 245/2/6 249/2/6
f 248/2/6 247/2/6 249/2/6
