# Blender v3.2.2 OBJ File: 'Dungeon Voxel Assets.blend'
# www.blender.org
mtllib Trap_Ground_Small_Active.mtl
o Trap_Ground_Small_Active_Trap_Ground_Small_Active.001
v -0.400000 -0.190909 0.300000
v -0.400000 -0.290909 0.300000
v -0.400000 -0.190909 0.200000
v -0.300000 -0.190909 0.400000
v -0.300000 -0.290909 0.400000
v -0.300000 -0.190909 0.200000
v -0.300000 0.209091 0.200000
v -0.300000 0.209091 0.400000
v -0.300000 0.309091 0.300000
v -0.300000 0.309091 0.100000
v -0.300000 0.409091 0.300000
v -0.200000 -0.190909 -0.100000
v -0.200000 -0.290909 -0.200000
v -0.200000 -0.190909 -0.200000
v -0.200000 -0.190909 -0.400000
v -0.200000 0.309091 -0.200000
v 0.000000 -0.190909 0.300000
v 0.000000 -0.290909 0.300000
v 0.100000 -0.290909 0.100000
v 0.100000 -0.290909 0.200000
v 0.100000 -0.290909 -0.200000
v 0.100000 0.309091 0.200000
v 0.200000 -0.290909 -0.100000
v 0.200000 -0.190909 -0.200000
v 0.200000 -0.290909 -0.300000
v 0.200000 -0.190909 -0.400000
v 0.200000 0.209091 -0.400000
v 0.200000 0.309091 -0.300000
v -0.200000 -0.190909 0.400000
v -0.200000 -0.190909 0.300000
v -0.200000 0.209091 0.200000
v -0.200000 0.309091 0.100000
v -0.200000 0.409091 0.300000
v -0.200000 0.409091 0.200000
v -0.100000 -0.190909 0.200000
v -0.100000 -0.190909 -0.100000
v -0.100000 -0.290909 -0.300000
v -0.100000 -0.290909 -0.400000
v -0.100000 0.309091 -0.200000
v -0.100000 0.309091 -0.300000
v -0.100000 0.409091 -0.200000
v 0.000000 -0.290909 -0.200000
v 0.000000 -0.290909 -0.300000
v 0.000000 0.309091 -0.300000
v 0.200000 -0.290909 0.400000
v 0.200000 -0.290909 0.100000
v 0.200000 -0.190909 0.100000
v 0.200000 0.209091 0.300000
v 0.200000 0.309091 0.200000
v 0.300000 -0.190909 0.300000
v 0.300000 -0.190909 -0.200000
v 0.300000 -0.190909 -0.300000
v 0.300000 0.209091 0.300000
v 0.300000 0.209091 0.200000
v 0.300000 0.209091 -0.400000
v 0.300000 0.309091 -0.100000
v 0.300000 0.309091 -0.200000
v 0.400000 -0.290909 -0.300000
v 0.400000 -0.190909 -0.200000
v -0.200000 0.209091 0.400000
v -0.300000 0.309091 0.400000
v -0.200000 0.309091 0.400000
v 0.100000 -0.190909 0.400000
v -0.300000 -0.190909 0.300000
v -0.200000 -0.290909 0.300000
v 0.100000 0.209091 0.300000
v 0.000000 0.209091 0.300000
v 0.100000 0.409091 0.300000
v 0.200000 -0.290909 0.300000
v 0.300000 0.309091 0.300000
v -0.200000 -0.290909 -0.100000
v 0.300000 -0.290909 -0.100000
v 0.200000 -0.190909 -0.100000
v -0.300000 -0.190909 -0.200000
v -0.300000 -0.290909 -0.200000
v -0.100000 -0.290909 -0.200000
v 0.000000 -0.190909 -0.200000
v 0.000000 0.209091 -0.200000
v 0.000000 0.309091 -0.200000
v 0.100000 -0.190909 -0.200000
v 0.200000 0.209091 -0.200000
v 0.200000 0.409091 -0.200000
v 0.200000 0.309091 -0.200000
v 0.300000 0.409091 -0.200000
v -0.300000 -0.290909 0.200000
v -0.300000 0.309091 0.200000
v -0.300000 0.409091 0.200000
v -0.200000 0.309091 0.200000
v 0.000000 -0.290909 0.200000
v 0.000000 -0.190909 0.200000
v 0.100000 -0.190909 0.200000
v 0.000000 0.209091 0.200000
v 0.000000 0.309091 0.200000
v 0.100000 0.209091 0.200000
v 0.200000 -0.190909 0.200000
v 0.200000 0.209091 0.200000
v 0.300000 -0.190909 0.200000
v 0.300000 0.309091 0.200000
v -0.300000 -0.190909 0.100000
v -0.200000 -0.190909 0.100000
v -0.200000 -0.290909 -0.300000
v -0.300000 0.209091 -0.300000
v -0.200000 0.209091 -0.300000
v -0.200000 0.309091 -0.300000
v -0.200000 0.409091 -0.300000
v -0.100000 0.209091 -0.300000
v -0.100000 0.409091 -0.300000
v 0.100000 -0.290909 -0.300000
v 0.200000 -0.190909 -0.300000
v 0.200000 0.409091 -0.300000
v 0.300000 0.409091 -0.300000
v 0.300000 -0.190909 -0.400000
v 0.200000 0.309091 -0.400000
v 0.300000 0.309091 -0.400000
v -0.300000 -0.290909 0.300000
v -0.200000 -0.290909 0.400000
v 0.100000 -0.290909 0.300000
v 0.100000 -0.290909 0.400000
v -0.400000 -0.290909 0.200000
v -0.100000 -0.290909 0.300000
v -0.200000 -0.290909 0.200000
v -0.100000 -0.290909 0.200000
v 0.300000 -0.290909 0.300000
v 0.200000 -0.290909 0.200000
v 0.300000 -0.290909 0.200000
v -0.300000 -0.290909 0.100000
v -0.200000 -0.290909 0.100000
v -0.100000 -0.290909 -0.100000
v 0.200000 -0.290909 -0.200000
v 0.300000 -0.290909 -0.200000
v -0.300000 -0.290909 -0.300000
v 0.400000 -0.290909 -0.200000
v 0.300000 -0.290909 -0.300000
v -0.200000 -0.290909 -0.400000
v 0.200000 -0.290909 -0.400000
v 0.300000 -0.290909 -0.400000
v -0.300000 0.209091 0.300000
v -0.200000 0.209091 0.300000
v -0.300000 0.209091 0.100000
v -0.200000 0.209091 0.100000
v 0.300000 0.209091 -0.100000
v 0.200000 0.209091 -0.100000
v 0.300000 0.209091 -0.200000
v -0.200000 0.209091 -0.200000
v -0.300000 0.209091 -0.200000
v -0.100000 0.209091 -0.200000
v 0.000000 0.209091 -0.300000
v 0.300000 0.209091 -0.300000
v 0.200000 0.209091 -0.300000
v 0.200000 -0.190909 0.400000
v 0.100000 -0.190909 0.300000
v 0.200000 -0.190909 0.300000
v -0.100000 -0.190909 0.300000
v -0.200000 -0.190909 0.200000
v 0.100000 -0.190909 0.100000
v -0.100000 -0.190909 -0.200000
v 0.300000 -0.190909 -0.100000
v -0.300000 -0.190909 -0.300000
v -0.200000 -0.190909 -0.300000
v -0.100000 -0.190909 -0.300000
v 0.000000 -0.190909 -0.300000
v 0.100000 -0.190909 -0.300000
v 0.400000 -0.190909 -0.300000
v -0.100000 -0.190909 -0.400000
v -0.200000 0.309091 0.300000
v 0.000000 0.309091 0.300000
v 0.100000 0.309091 0.300000
v 0.200000 0.309091 0.300000
v 0.200000 0.309091 -0.100000
v -0.300000 0.309091 -0.200000
v -0.300000 0.309091 -0.300000
v 0.300000 0.309091 -0.300000
v 0.200000 0.409091 0.300000
v 0.100000 0.409091 0.200000
v 0.200000 0.409091 0.200000
v -0.200000 0.409091 -0.200000
vt 0.943939 0.945543
vt 0.888680 0.945543
vt 0.888680 0.890285
vt 0.943939 0.890285
vt 0.202340 0.932855
vt 0.257599 0.932855
vt 0.257599 0.988113
vt 0.202340 0.988113
vt 0.078415 0.703513
vt 0.117489 0.664439
vt 0.156563 0.703513
vt 0.117489 0.742587
vt 0.156562 0.781661
vt 0.117489 0.820735
vt 0.078415 0.781661
vt 0.039341 0.820735
vt 0.000267 0.781661
vt 0.039341 0.742587
vt 0.000267 0.703514
vt 0.039341 0.664440
vt 0.777094 0.665508
vt 0.832353 0.665508
vt 0.832353 0.720767
vt 0.777094 0.720767
vt 0.944473 0.223440
vt 0.999732 0.223440
vt 0.999732 0.278699
vt 0.944473 0.278699
vt 0.000267 0.876528
vt 0.000267 0.821269
vt 0.055526 0.821269
vt 0.055526 0.876528
vt 0.832353 0.944474
vt 0.832353 0.999733
vt 0.777094 0.999733
vt 0.777094 0.944474
vt 0.777094 0.721302
vt 0.832353 0.721302
vt 0.832353 0.776560
vt 0.777094 0.776560
vt 0.721301 0.221836
vt 0.776560 0.221836
vt 0.776560 0.277095
vt 0.721301 0.277095
vt 0.943939 0.278699
vt 0.888681 0.278699
vt 0.888681 0.223440
vt 0.943939 0.223440
vt 0.480771 0.821269
vt 0.480771 0.876527
vt 0.425513 0.876527
vt 0.425513 0.821269
vt 0.369185 0.877062
vt 0.369185 0.932321
vt 0.313927 0.932321
vt 0.313927 0.877062
vt 0.592358 0.877062
vt 0.592358 0.932321
vt 0.537099 0.932321
vt 0.537099 0.877062
vt 0.944473 0.443940
vt 0.999732 0.443940
vt 0.999732 0.499198
vt 0.944473 0.499198
vt 0.592358 0.932855
vt 0.592358 0.988113
vt 0.537099 0.988113
vt 0.537099 0.932855
vt 0.832887 0.443939
vt 0.888146 0.443939
vt 0.888146 0.499198
vt 0.832887 0.499198
vt 0.720766 0.774956
vt 0.665508 0.774956
vt 0.665508 0.553922
vt 0.720766 0.553922
vt 0.648151 0.821269
vt 0.648151 0.876527
vt 0.592892 0.876527
vt 0.592892 0.821269
vt 0.888146 0.834491
vt 0.888146 0.889750
vt 0.832887 0.889750
vt 0.832887 0.834491
vt 0.110784 0.221301
vt 0.166043 0.221301
vt 0.166043 0.276560
vt 0.110784 0.276560
vt 0.110784 0.331819
vt 0.055526 0.331819
vt 0.055526 0.276560
vt 0.000267 0.276560
vt 0.000267 0.221301
vt 0.055526 0.221301
vt 0.055526 0.000267
vt 0.110784 0.000267
vt 0.943939 0.722905
vt 0.943939 0.778164
vt 0.888680 0.778164
vt 0.888680 0.722905
vt 0.888680 0.778698
vt 0.943939 0.778698
vt 0.943939 0.833957
vt 0.888680 0.833957
vt 0.888681 0.167646
vt 0.943939 0.167646
vt 0.943939 0.222905
vt 0.888681 0.222905
vt 0.777094 0.609715
vt 0.832353 0.609715
vt 0.832353 0.664974
vt 0.777094 0.664974
vt 0.944474 0.000267
vt 0.999733 0.000267
vt 0.999733 0.055526
vt 0.944474 0.055526
vt 0.776560 0.942870
vt 0.776560 0.998129
vt 0.721301 0.998129
vt 0.721301 0.942870
vt 0.944473 0.833957
vt 0.944473 0.778699
vt 0.999732 0.778699
vt 0.999732 0.833957
vt 0.888146 0.499733
vt 0.888146 0.554991
vt 0.832887 0.554991
vt 0.832887 0.499733
vt 0.609715 0.000267
vt 0.609715 0.055526
vt 0.664974 0.055526
vt 0.664974 0.110784
vt 0.609715 0.110784
vt 0.609715 0.331819
vt 0.554457 0.331819
vt 0.554457 0.110784
vt 0.499198 0.110784
vt 0.499198 0.055526
vt 0.554457 0.055526
vt 0.554457 0.000267
vt 0.888146 0.056060
vt 0.888146 0.111319
vt 0.832888 0.111319
vt 0.832888 0.056060
vt 0.480771 0.877062
vt 0.480771 0.932321
vt 0.425513 0.932321
vt 0.425513 0.877062
vt 0.777094 0.777095
vt 0.832353 0.777095
vt 0.832353 0.832353
vt 0.777094 0.832353
vt 0.592358 0.821269
vt 0.592358 0.876527
vt 0.537099 0.876527
vt 0.537099 0.821269
vt 0.777094 0.332353
vt 0.832353 0.332353
vt 0.832353 0.553387
vt 0.777094 0.553387
vt 0.944474 0.167647
vt 0.999733 0.167647
vt 0.999733 0.222905
vt 0.944474 0.222905
vt 0.944473 0.666577
vt 0.944473 0.611319
vt 0.999732 0.611319
vt 0.999732 0.666577
vt 0.888146 0.332353
vt 0.888146 0.387612
vt 0.832887 0.387612
vt 0.832887 0.332353
vt 0.943939 0.388146
vt 0.943939 0.443405
vt 0.888680 0.443405
vt 0.888680 0.388146
vt 0.721301 0.221302
vt 0.721301 0.000267
vt 0.776560 0.000267
vt 0.776560 0.221302
vt 0.777094 0.553922
vt 0.832353 0.553922
vt 0.832353 0.609181
vt 0.777094 0.609181
vt 0.313392 0.821269
vt 0.313392 0.876527
vt 0.258133 0.876527
vt 0.258133 0.821269
vt 0.721301 0.553922
vt 0.776560 0.553922
vt 0.776560 0.774956
vt 0.721301 0.774956
vt 0.888146 0.111854
vt 0.888146 0.167112
vt 0.832888 0.167112
vt 0.832888 0.111854
vt 0.257599 0.821269
vt 0.257599 0.876527
vt 0.202340 0.876527
vt 0.202340 0.821269
vt 0.353001 0.664440
vt 0.392075 0.703513
vt 0.431149 0.664439
vt 0.470222 0.703513
vt 0.431149 0.742587
vt 0.470222 0.781661
vt 0.431148 0.820735
vt 0.392075 0.781661
vt 0.353001 0.820734
vt 0.313927 0.781660
vt 0.353001 0.742587
vt 0.313927 0.703513
vt 0.888146 0.945543
vt 0.832887 0.945543
vt 0.832887 0.890285
vt 0.888146 0.890285
vt 0.000267 0.932856
vt 0.055526 0.932856
vt 0.055526 0.988114
vt 0.000267 0.988114
vt 0.235245 0.781661
vt 0.196171 0.820735
vt 0.157097 0.781661
vt 0.196171 0.742587
vt 0.157097 0.703514
vt 0.196171 0.664440
vt 0.235245 0.703513
vt 0.274319 0.664439
vt 0.313393 0.703513
vt 0.274319 0.742587
vt 0.313392 0.781661
vt 0.274318 0.820735
vt 0.888681 0.555526
vt 0.943939 0.555526
vt 0.943939 0.610785
vt 0.888681 0.610785
vt 0.888146 0.167647
vt 0.888146 0.222905
vt 0.832888 0.222905
vt 0.832888 0.167647
vt 0.648151 0.877062
vt 0.648151 0.932321
vt 0.592892 0.932321
vt 0.592892 0.877062
vt 0.944473 0.167112
vt 0.944473 0.111854
vt 0.999732 0.111854
vt 0.999732 0.167112
vt 0.888680 0.611319
vt 0.943939 0.611319
vt 0.943939 0.666577
vt 0.888680 0.666577
vt 0.721301 0.332353
vt 0.776560 0.332353
vt 0.776560 0.553387
vt 0.721301 0.553387
vt 0.720766 0.942870
vt 0.720766 0.998129
vt 0.665508 0.998129
vt 0.665508 0.942870
vt 0.888146 0.667111
vt 0.888146 0.722370
vt 0.832887 0.722370
vt 0.832887 0.667111
vt 0.888146 0.223440
vt 0.888146 0.278699
vt 0.832888 0.278699
vt 0.832888 0.223440
vt 0.313927 0.932855
vt 0.369185 0.932855
vt 0.369185 0.988113
vt 0.313927 0.988113
vt 0.167112 0.821269
vt 0.167112 0.876528
vt 0.111854 0.876528
vt 0.111854 0.821269
vt 0.944473 0.778164
vt 0.944473 0.722905
vt 0.999732 0.722905
vt 0.999732 0.778164
vt 0.720766 0.831284
vt 0.720766 0.886543
vt 0.665508 0.886543
vt 0.665508 0.831284
vt 0.443405 0.663904
vt 0.388146 0.663904
vt 0.388146 0.442870
vt 0.332888 0.442870
vt 0.332888 0.387612
vt 0.388146 0.387612
vt 0.388146 0.332353
vt 0.443405 0.332353
vt 0.443405 0.387612
vt 0.498664 0.387612
vt 0.498664 0.442870
vt 0.443405 0.442870
vt 0.332353 0.055526
vt 0.332353 0.110784
vt 0.277095 0.110784
vt 0.277095 0.331819
vt 0.221836 0.331819
vt 0.221836 0.110784
vt 0.166578 0.110784
vt 0.166578 0.055526
vt 0.221836 0.055526
vt 0.221836 0.000267
vt 0.277095 0.000267
vt 0.277095 0.055526
vt 0.776560 0.831284
vt 0.776560 0.886543
vt 0.721301 0.886543
vt 0.721301 0.831284
vt 0.111319 0.821269
vt 0.111319 0.876528
vt 0.056060 0.876528
vt 0.056060 0.821269
vt 0.425513 0.932855
vt 0.480771 0.932855
vt 0.480771 0.988113
vt 0.425513 0.988113
vt 0.888681 0.111854
vt 0.943939 0.111854
vt 0.943939 0.167112
vt 0.888681 0.167112
vt 0.111319 0.988114
vt 0.056060 0.988114
vt 0.056060 0.932856
vt 0.111319 0.932856
vt 0.944473 0.945543
vt 0.944473 0.890285
vt 0.999732 0.890285
vt 0.999732 0.945543
vt 0.832887 0.388146
vt 0.888146 0.388146
vt 0.888146 0.443405
vt 0.832887 0.443405
vt 0.888146 0.555526
vt 0.888146 0.610784
vt 0.832887 0.610784
vt 0.832887 0.555526
vt 0.536565 0.877062
vt 0.536565 0.932321
vt 0.481306 0.932321
vt 0.481306 0.877062
vt 0.888681 0.000267
vt 0.943940 0.000267
vt 0.943940 0.055526
vt 0.888681 0.055526
vt 0.944473 0.388146
vt 0.999732 0.388146
vt 0.999732 0.443405
vt 0.944473 0.443405
vt 0.721301 0.775491
vt 0.776560 0.775491
vt 0.776560 0.830749
vt 0.721301 0.830749
vt 0.166577 0.387612
vt 0.221836 0.387612
vt 0.221836 0.332353
vt 0.277095 0.332353
vt 0.277095 0.387612
vt 0.332354 0.387612
vt 0.332354 0.442870
vt 0.277095 0.442870
vt 0.277095 0.663904
vt 0.221836 0.663904
vt 0.221836 0.442870
vt 0.166577 0.442870
vt 0.388146 0.221301
vt 0.388146 0.000267
vt 0.443405 0.000267
vt 0.443405 0.221301
vt 0.498663 0.221301
vt 0.498663 0.276560
vt 0.443405 0.276560
vt 0.443405 0.331819
vt 0.388146 0.331819
vt 0.388146 0.276560
vt 0.332888 0.276560
vt 0.332888 0.221301
vt 0.888680 0.667111
vt 0.943939 0.667111
vt 0.943939 0.722370
vt 0.888680 0.722370
vt 0.944473 0.722371
vt 0.944473 0.667112
vt 0.999732 0.667112
vt 0.999732 0.722371
vt 0.943939 0.443939
vt 0.943939 0.499198
vt 0.888680 0.499198
vt 0.888680 0.443939
vt 0.592893 0.932855
vt 0.648151 0.932855
vt 0.648151 0.988113
vt 0.592893 0.988113
vt 0.888146 0.778698
vt 0.888146 0.833957
vt 0.832887 0.833957
vt 0.832887 0.778698
vt 0.832353 0.832888
vt 0.832353 0.888146
vt 0.777094 0.888146
vt 0.777094 0.832888
vt 0.944473 0.332353
vt 0.999732 0.332353
vt 0.999732 0.387612
vt 0.944473 0.387612
vt 0.257599 0.877062
vt 0.257599 0.932321
vt 0.202340 0.932321
vt 0.202340 0.877062
vt 0.944473 0.056061
vt 0.999732 0.056061
vt 0.999732 0.111319
vt 0.944473 0.111319
vt 0.944473 0.889750
vt 0.944473 0.834492
vt 0.999732 0.834492
vt 0.999732 0.889750
vt 0.777094 0.888680
vt 0.832353 0.888680
vt 0.832353 0.943939
vt 0.777094 0.943939
vt 0.944473 0.499733
vt 0.999732 0.499733
vt 0.999732 0.554991
vt 0.944473 0.554991
vt 0.424978 0.877062
vt 0.424978 0.932321
vt 0.369720 0.932321
vt 0.369720 0.877062
vt 0.888680 0.332353
vt 0.943939 0.332353
vt 0.943939 0.387611
vt 0.888680 0.387611
vt 0.424978 0.988113
vt 0.369720 0.988113
vt 0.369720 0.932855
vt 0.424978 0.932855
vt 0.000267 0.442870
vt 0.000267 0.387612
vt 0.055526 0.387612
vt 0.055526 0.332353
vt 0.110784 0.332353
vt 0.110784 0.387612
vt 0.166043 0.387612
vt 0.166043 0.442870
vt 0.110784 0.442870
vt 0.110784 0.663904
vt 0.055526 0.663904
vt 0.055526 0.442870
vt 0.665508 0.775491
vt 0.720766 0.775491
vt 0.720766 0.830749
vt 0.665508 0.830749
vt 0.721301 0.887077
vt 0.776560 0.887077
vt 0.776560 0.942336
vt 0.721301 0.942336
vt 0.720766 0.942336
vt 0.665508 0.942336
vt 0.665508 0.887077
vt 0.720766 0.887077
vt 0.536565 0.821269
vt 0.536565 0.876527
vt 0.481306 0.876527
vt 0.481306 0.821269
vt 0.944473 0.555526
vt 0.999732 0.555526
vt 0.999732 0.610784
vt 0.944473 0.610784
vt 0.554457 0.387612
vt 0.554457 0.332353
vt 0.609715 0.332353
vt 0.609715 0.387612
vt 0.664974 0.387612
vt 0.664974 0.442870
vt 0.609715 0.442870
vt 0.609715 0.663904
vt 0.554457 0.663904
vt 0.554457 0.442870
vt 0.499198 0.442870
vt 0.499198 0.387612
vt 0.424978 0.821269
vt 0.424978 0.876527
vt 0.369720 0.876527
vt 0.369720 0.821269
vt 0.313927 0.821269
vt 0.369185 0.821269
vt 0.369185 0.876527
vt 0.313927 0.876527
vt 0.627051 0.703514
vt 0.587977 0.742587
vt 0.627051 0.781661
vt 0.587977 0.820735
vt 0.548903 0.781661
vt 0.509830 0.820735
vt 0.470756 0.781661
vt 0.509830 0.742587
vt 0.470757 0.703513
vt 0.509830 0.664439
vt 0.548903 0.703513
vt 0.587977 0.664440
vt 0.665508 0.277095
vt 0.665508 0.221836
vt 0.720767 0.221836
vt 0.720767 0.277095
vt 0.777094 0.000267
vt 0.832353 0.000267
vt 0.832353 0.221301
vt 0.777094 0.221301
vt 0.888146 0.722905
vt 0.888146 0.778164
vt 0.832887 0.778164
vt 0.832887 0.722905
vt 0.888680 0.499733
vt 0.943939 0.499733
vt 0.943939 0.554991
vt 0.888680 0.554991
vt 0.720766 0.332353
vt 0.720766 0.553387
vt 0.665508 0.553387
vt 0.665508 0.332353
vt 0.720767 0.221301
vt 0.665508 0.221301
vt 0.665508 0.000267
vt 0.720767 0.000267
vt 0.777095 0.221836
vt 0.832353 0.221836
vt 0.832353 0.277095
vt 0.777095 0.277095
vt 0.888146 0.666577
vt 0.832887 0.666577
vt 0.832887 0.611319
vt 0.888146 0.611319
vt 0.481306 0.932855
vt 0.536565 0.932855
vt 0.536565 0.988113
vt 0.481306 0.988113
vt 0.055526 0.877062
vt 0.055526 0.932321
vt 0.000267 0.932321
vt 0.000267 0.877062
vt 0.167112 0.932856
vt 0.167112 0.988114
vt 0.111854 0.988114
vt 0.111854 0.932856
vt 0.888680 0.834491
vt 0.943939 0.834491
vt 0.943939 0.889750
vt 0.888680 0.889750
vt 0.832888 0.000267
vt 0.888146 0.000267
vt 0.888146 0.055526
vt 0.832888 0.055526
vt 0.943940 0.056060
vt 0.943940 0.111319
vt 0.888681 0.111319
vt 0.888681 0.056060
vt 0.111319 0.877062
vt 0.111319 0.932321
vt 0.056060 0.932321
vt 0.056060 0.877062
vt 0.167112 0.877062
vt 0.167112 0.932321
vt 0.111854 0.932321
vt 0.111854 0.877062
vt 0.258133 0.932855
vt 0.313392 0.932855
vt 0.313392 0.988113
vt 0.258133 0.988113
vt 0.313392 0.877062
vt 0.313392 0.932321
vt 0.258133 0.932321
vt 0.258133 0.877062
vn 0.0000 -1.0000 0.0000
vn 0.0000 1.0000 0.0000
vn -1.0000 -0.0000 0.0000
vn 0.0000 -0.0000 1.0000
vn 1.0000 0.0000 0.0000
vn 0.0000 0.0000 -1.0000
usemtl Trap_Ground_Small_Active
s off
f 103/1/1 144/2/1 145/3/1 102/4/1
f 16/5/2 104/6/2 171/7/2 170/8/2
f 37/9/1 43/10/1 42/11/1 76/12/1 128/13/1 71/14/1 13/15/1 75/16/1 131/17/1 101/18/1 134/19/1 38/20/1
f 64/21/3 115/22/3 5/23/3 4/24/3
f 36/25/4 12/26/4 71/27/4 128/28/4
f 93/29/3 92/30/3 67/31/3 166/32/3
f 94/33/1 66/34/1 67/35/1 92/36/1
f 99/37/3 126/38/3 85/39/3 6/40/3
f 15/41/3 134/42/3 101/43/3 159/44/3
f 147/45/1 78/46/1 146/47/1 106/48/1
f 43/49/5 161/50/5 77/51/5 42/52/5
f 95/53/6 97/54/6 125/55/6 124/56/6
f 14/57/4 74/58/4 75/59/4 13/60/4
f 154/61/6 35/62/6 122/63/6 121/64/6
f 33/65/4 11/66/4 9/67/4 165/68/4
f 29/69/2 30/70/2 64/71/2 4/72/2
f 91/73/3 151/74/3 66/75/3 94/76/3
f 130/77/5 51/78/5 157/79/5 72/80/5
f 157/81/4 73/82/4 23/83/4 72/84/4
f 137/85/3 8/86/3 61/87/3 9/88/3 11/89/3 87/90/3 86/91/3 10/92/3 139/93/3 7/94/3 6/95/3 64/96/3
f 10/97/6 32/98/6 140/99/6 139/100/6
f 157/101/2 51/102/2 24/103/2 73/104/2
f 77/105/2 161/106/2 160/107/2 156/108/2
f 69/109/5 152/110/5 150/111/5 45/112/5
f 33/113/2 34/114/2 87/115/2 11/116/2
f 87/117/6 34/118/6 88/119/6 86/120/6
f 153/121/2 35/122/2 154/123/2 30/124/2
f 40/125/5 107/126/5 41/127/5 39/128/5
f 68/129/4 167/130/4 166/131/4 67/132/4 66/133/4 151/134/4 152/135/4 48/136/4 53/137/4 70/138/4 168/139/4 173/140/4
f 125/141/5 97/142/5 50/143/5 123/144/5
f 155/145/6 47/146/6 46/147/6 19/148/6
f 127/149/5 100/150/5 154/151/5 121/152/5
f 24/153/3 129/154/3 23/155/3 73/156/3
f 149/157/6 148/158/6 52/159/6 109/160/6
f 15/161/6 164/162/6 38/163/6 134/164/6
f 59/165/2 163/166/2 52/167/2 51/168/2
f 3/169/3 119/170/3 2/171/3 1/172/3
f 62/173/4 61/174/4 8/175/4 60/176/4
f 48/177/5 152/178/5 95/179/5 96/180/5
f 65/181/5 30/182/5 29/183/5 116/184/5
f 136/185/5 112/186/5 52/187/5 133/188/5
f 138/189/4 137/190/4 64/191/4 30/192/4
f 90/193/3 89/194/3 18/195/3 17/196/3
f 38/197/5 164/198/5 160/199/5 37/200/5
f 120/201/1 65/202/1 116/203/1 5/204/1 115/205/1 2/206/1 119/207/1 85/208/1 126/209/1 127/210/1 121/211/1 122/212/1
f 143/213/1 141/214/1 142/215/1 81/216/1
f 64/217/2 6/218/2 3/219/2 1/220/2
f 117/221/1 18/222/1 89/223/1 20/224/1 19/225/1 46/226/1 124/227/1 125/228/1 123/229/1 69/230/1 45/231/1 118/232/1
f 79/233/2 44/234/2 40/235/2 39/236/2
f 122/237/5 35/238/5 153/239/5 120/240/5
f 3/241/6 6/242/6 85/243/6 119/244/6
f 41/245/2 107/246/2 105/247/2 176/248/2
f 172/249/2 114/250/2 113/251/2 28/252/2
f 143/253/4 81/254/4 24/255/4 51/256/4
f 84/257/4 82/258/4 83/259/4 57/260/4
f 26/261/6 112/262/6 136/263/6 135/264/6
f 54/265/5 98/266/5 70/267/5 53/268/5
f 14/269/2 159/270/2 158/271/2 74/272/2
f 76/273/5 156/274/5 36/275/5 128/276/5
f 36/277/2 156/278/2 14/279/2 12/280/2
f 158/281/3 131/282/3 75/283/3 74/284/3
f 14/285/4 156/286/4 146/287/4 78/288/4 79/289/4 39/290/4 41/291/4 176/292/4 16/293/4 170/294/4 145/295/4 144/296/4
f 56/297/5 141/298/5 143/299/5 51/300/5 52/301/5 148/302/5 55/303/5 114/304/5 172/305/5 111/306/5 84/307/5 57/308/5
f 171/309/3 102/310/3 145/311/3 170/312/3
f 162/313/3 108/314/3 21/315/3 80/316/3
f 70/317/2 98/318/2 49/319/2 168/320/2
f 88/321/2 32/322/2 10/323/2 86/324/2
f 54/325/1 53/326/1 48/327/1 96/328/1
f 167/329/2 22/330/2 93/331/2 166/332/2
f 150/333/2 152/334/2 151/335/2 63/336/2
f 105/337/3 104/338/3 16/339/3 176/340/3
f 160/341/6 161/342/6 43/343/6 37/344/6
f 174/345/3 22/346/3 167/347/3 68/348/3
f 52/349/6 163/350/6 58/351/6 133/352/6
f 151/353/3 117/354/3 118/355/3 63/356/3
f 93/357/6 22/358/6 174/359/6 175/360/6 49/361/6 98/362/6 54/363/6 96/364/6 95/365/6 91/366/6 94/367/6 92/368/6
f 149/369/3 109/370/3 24/371/3 81/372/3 142/373/3 169/374/3 83/375/3 82/376/3 110/377/3 28/378/3 113/379/3 27/380/3
f 52/381/2 112/382/2 26/383/2 109/384/2
f 160/385/2 164/386/2 15/387/2 159/388/2
f 113/389/6 114/390/6 55/391/6 27/392/6
f 173/393/2 175/394/2 174/395/2 68/396/2
f 158/397/6 159/398/6 101/399/6 131/400/6
f 29/401/4 4/402/4 5/403/4 116/404/4
f 153/405/4 30/406/4 65/407/4 120/408/4
f 99/409/6 100/410/6 127/411/6 126/412/6
f 59/413/4 51/414/4 130/415/4 132/416/4
f 151/417/2 91/418/2 90/419/2 17/420/2
f 56/421/2 57/422/2 83/423/2 169/424/2
f 151/425/4 17/426/4 18/427/4 117/428/4
f 64/429/4 1/430/4 2/431/4 115/432/4
f 154/433/2 100/434/2 99/435/2 6/436/2
f 138/437/1 60/438/1 8/439/1 137/440/1
f 140/441/5 32/442/5 88/443/5 34/444/5 33/445/5 165/446/5 62/447/5 60/448/5 138/449/5 30/450/5 154/451/5 31/452/5
f 26/453/3 135/454/3 25/455/3 109/456/3
f 95/457/2 47/458/2 155/459/2 91/460/2
f 140/461/1 31/462/1 7/463/1 139/464/1
f 14/465/3 13/466/3 71/467/3 12/468/3
f 90/469/6 91/470/6 20/471/6 89/472/6
f 104/473/6 105/474/6 107/475/6 40/476/6 44/477/6 147/478/6 106/479/6 160/480/6 159/481/6 103/482/6 102/483/6 171/484/6
f 58/485/5 163/486/5 59/487/5 132/488/5
f 46/489/5 47/490/5 95/491/5 124/492/5
f 132/493/1 130/494/1 72/495/1 23/496/1 129/497/1 21/498/1 108/499/1 25/500/1 135/501/1 136/502/1 133/503/1 58/504/1
f 147/505/5 44/506/5 79/507/5 78/508/5
f 7/509/6 31/510/6 154/511/6 6/512/6
f 77/513/4 156/514/4 76/515/4 42/516/4
f 49/517/5 175/518/5 173/519/5 168/520/5
f 160/521/5 106/522/5 146/523/5 156/524/5
f 159/525/3 14/526/3 144/527/3 103/528/3
f 155/529/3 19/530/3 20/531/3 91/532/3
f 55/533/1 148/534/1 149/535/1 27/536/1
f 50/537/2 97/538/2 95/539/2 152/540/2
f 24/541/4 80/542/4 21/543/4 129/544/4
f 110/545/6 111/546/6 172/547/6 28/548/6
f 84/549/2 111/550/2 110/551/2 82/552/2
f 62/553/2 165/554/2 9/555/2 61/556/2
f 56/557/4 169/558/4 142/559/4 141/560/4
f 50/561/4 152/562/4 69/563/4 123/564/4
f 162/565/6 109/566/6 25/567/6 108/568/6
f 24/569/2 109/570/2 162/571/2 80/572/2
f 150/573/4 63/574/4 118/575/4 45/576/4
