# Blender v3.2.2 OBJ File: 'Dungeon Voxel Assets.blend'
# www.blender.org
mtllib Trap_Ground_Small_Deactivated.mtl
o Trap_Ground_Small_Deactivated_Trap_Ground_Small_Deactivated.001
v -0.300000 -0.050000 0.400000
v -0.300000 0.050000 0.300000
v -0.300000 0.050000 0.200000
v -0.300000 -0.050000 0.200000
v -0.300000 0.050000 -0.200000
v -0.300000 -0.050000 -0.300000
v -0.300000 -0.050000 -0.200000
v -0.300000 0.050000 -0.300000
v -0.200000 0.050000 -0.100000
v -0.200000 0.050000 -0.200000
v -0.000000 0.050000 0.300000
v 0.100000 -0.050000 0.200000
v 0.100000 0.050000 -0.200000
v 0.100000 -0.050000 -0.200000
v 0.200000 -0.050000 -0.200000
v 0.200000 -0.050000 -0.400000
v -0.200000 0.050000 0.400000
v -0.200000 0.050000 0.300000
v -0.200000 0.050000 0.200000
v -0.100000 -0.050000 0.300000
v -0.100000 -0.050000 0.200000
v -0.100000 -0.050000 -0.100000
v -0.100000 -0.050000 -0.200000
v -0.100000 0.050000 -0.300000
v -0.100000 0.050000 -0.400000
v -0.000000 -0.050000 -0.200000
v -0.000000 0.050000 -0.300000
v 0.200000 -0.050000 0.300000
v 0.200000 0.050000 0.100000
v 0.300000 -0.050000 0.200000
v 0.300000 -0.050000 -0.300000
v 0.300000 -0.050000 -0.400000
v 0.300000 0.050000 -0.400000
v 0.400000 -0.050000 -0.300000
v 0.400000 0.050000 -0.200000
v 0.400000 0.050000 -0.300000
v -0.200000 -0.050000 0.400000
v 0.100000 -0.050000 0.400000
v -0.300000 -0.050000 0.300000
v -0.400000 0.050000 0.300000
v -0.400000 -0.050000 0.300000
v -0.200000 -0.050000 0.300000
v 0.100000 0.050000 0.300000
v 0.300000 -0.050000 0.300000
v 0.300000 0.050000 0.300000
v -0.200000 -0.050000 -0.100000
v 0.300000 -0.050000 -0.100000
v 0.200000 -0.050000 -0.100000
v 0.300000 0.050000 -0.100000
v -0.200000 -0.050000 -0.200000
v 0.200000 0.050000 -0.200000
v 0.400000 -0.050000 -0.200000
v 0.300000 0.050000 -0.200000
v 0.300000 -0.050000 -0.200000
v -0.400000 -0.050000 0.200000
v -0.400000 0.050000 0.200000
v -0.100000 0.050000 0.200000
v -0.000000 -0.050000 0.200000
v -0.000000 0.050000 0.200000
v 0.100000 0.050000 0.200000
v 0.200000 -0.050000 0.200000
v -0.300000 -0.050000 0.100000
v -0.300000 0.050000 0.100000
v -0.200000 -0.050000 0.100000
v -0.200000 0.050000 0.100000
v 0.100000 -0.050000 0.100000
v 0.100000 0.050000 0.100000
v -0.200000 -0.050000 -0.300000
v -0.200000 0.050000 -0.300000
v 0.100000 0.050000 -0.300000
v 0.200000 0.050000 -0.300000
v 0.300000 0.050000 -0.300000
v 0.200000 0.050000 -0.400000
v 0.100000 -0.050000 0.300000
v 0.200000 -0.050000 0.400000
v -0.200000 -0.050000 0.200000
v -0.000000 -0.050000 0.300000
v 0.200000 -0.050000 0.100000
v -0.100000 -0.050000 -0.300000
v -0.000000 -0.050000 -0.300000
v 0.100000 -0.050000 -0.300000
v 0.200000 -0.050000 -0.300000
v -0.200000 -0.050000 -0.400000
v -0.100000 -0.050000 -0.400000
v -0.300000 0.050000 0.400000
v 0.100000 0.050000 0.400000
v 0.200000 0.050000 0.400000
v 0.200000 0.050000 0.300000
v -0.100000 0.050000 0.300000
v 0.200000 0.050000 0.200000
v 0.300000 0.050000 0.200000
v -0.100000 0.050000 -0.100000
v -0.100000 0.050000 -0.200000
v 0.200000 0.050000 -0.100000
v -0.000000 0.050000 -0.200000
v -0.200000 0.050000 -0.400000
vt 0.912941 0.610891
vt 0.999816 0.610891
vt 0.999816 0.697767
vt 0.912941 0.697767
vt 0.825329 0.349159
vt 0.825329 0.436035
vt 0.738453 0.436035
vt 0.738453 0.349159
vt 0.825329 0.174672
vt 0.825329 0.261548
vt 0.738453 0.261548
vt 0.738453 0.174672
vt 0.825329 0.000184
vt 0.825329 0.087060
vt 0.738453 0.087060
vt 0.738453 0.000184
vt 0.174304 0.666853
vt 0.174304 0.753729
vt 0.087428 0.753729
vt 0.087428 0.666853
vt 0.912573 0.087428
vt 0.912573 0.174304
vt 0.825697 0.174304
vt 0.825697 0.087428
vt 0.087060 0.666853
vt 0.087060 0.753729
vt 0.000184 0.753729
vt 0.000184 0.666853
vt 0.492364 0.825698
vt 0.579240 0.825698
vt 0.579240 0.912574
vt 0.492364 0.912574
vt 0.912941 0.436404
vt 0.999816 0.436404
vt 0.999816 0.523279
vt 0.912941 0.523279
vt 0.000184 0.492365
vt 0.087060 0.492365
vt 0.087060 0.579241
vt 0.000184 0.579241
vt 0.912941 0.261916
vt 0.999816 0.261916
vt 0.999816 0.348791
vt 0.912941 0.348791
vt 0.825329 0.785379
vt 0.825329 0.872255
vt 0.738453 0.872255
vt 0.738453 0.785379
vt 0.912573 0.610891
vt 0.912573 0.697767
vt 0.825697 0.697767
vt 0.825697 0.610891
vt 0.420394 0.825699
vt 0.420394 0.912575
vt 0.333518 0.912575
vt 0.333518 0.825699
vt 0.553795 0.000184
vt 0.615225 0.061615
vt 0.676656 0.000185
vt 0.738086 0.061616
vt 0.676655 0.123046
vt 0.738086 0.184476
vt 0.676655 0.245907
vt 0.615224 0.184476
vt 0.553794 0.245906
vt 0.492364 0.184475
vt 0.553794 0.123045
vt 0.492364 0.061614
vt 0.738453 0.087428
vt 0.825329 0.087428
vt 0.825329 0.174304
vt 0.738453 0.174304
vt 0.912941 0.000184
vt 0.999816 0.000184
vt 0.999816 0.087060
vt 0.912941 0.087060
vt 0.825329 0.261916
vt 0.825329 0.348792
vt 0.738453 0.348792
vt 0.738453 0.261916
vt 0.174304 0.841341
vt 0.174304 0.928217
vt 0.087428 0.928217
vt 0.087428 0.841341
vt 0.825329 0.436403
vt 0.825329 0.523279
vt 0.738453 0.523279
vt 0.738453 0.436403
vt 0.825329 0.523647
vt 0.825329 0.610523
vt 0.738453 0.610523
vt 0.738453 0.523647
vt 0.825697 0.698135
vt 0.912573 0.698135
vt 0.912573 0.785011
vt 0.825697 0.785011
vt 0.307702 0.246276
vt 0.369133 0.307706
vt 0.430564 0.246275
vt 0.491995 0.307706
vt 0.430564 0.369137
vt 0.491994 0.430567
vt 0.430564 0.491997
vt 0.369134 0.430567
vt 0.307704 0.491997
vt 0.246273 0.430567
vt 0.307703 0.369136
vt 0.246273 0.307706
vt 0.912941 0.087428
vt 0.999816 0.087428
vt 0.999816 0.174304
vt 0.912941 0.174304
vt 0.666483 0.738454
vt 0.666483 0.825330
vt 0.579608 0.825330
vt 0.579608 0.738454
vt 0.246274 0.738455
vt 0.333150 0.738455
vt 0.333150 0.825331
vt 0.246274 0.825331
vt 0.912573 0.261916
vt 0.912573 0.348792
vt 0.825697 0.348792
vt 0.825697 0.261916
vt 0.912573 0.349160
vt 0.912573 0.436035
vt 0.825697 0.436035
vt 0.825697 0.349160
vt 0.912941 0.349160
vt 0.999816 0.349160
vt 0.999816 0.436035
vt 0.912941 0.436035
vt 0.246274 0.825699
vt 0.333150 0.825699
vt 0.333150 0.912575
vt 0.246274 0.912575
vt 0.825329 0.698135
vt 0.825329 0.785011
vt 0.738453 0.785011
vt 0.738453 0.698135
vt 0.912941 0.523648
vt 0.999816 0.523648
vt 0.999816 0.610523
vt 0.912941 0.610523
vt 0.000184 0.579609
vt 0.087060 0.579609
vt 0.087060 0.666485
vt 0.000184 0.666485
vt 0.912573 0.174672
vt 0.912573 0.261548
vt 0.825697 0.261548
vt 0.825697 0.174672
vt 0.087060 0.754097
vt 0.087060 0.840973
vt 0.000184 0.840973
vt 0.000184 0.754097
vt 0.174304 0.579609
vt 0.174304 0.666485
vt 0.087428 0.666485
vt 0.087428 0.579609
vt 0.579240 0.738454
vt 0.579240 0.825330
vt 0.492364 0.825330
vt 0.492364 0.738454
vt 0.333518 0.738455
vt 0.420394 0.738455
vt 0.420394 0.825331
vt 0.333518 0.825331
vt 0.174304 0.754097
vt 0.174304 0.840973
vt 0.087428 0.840973
vt 0.087428 0.754097
vt 0.666483 0.825698
vt 0.666483 0.912574
vt 0.579608 0.912574
vt 0.579608 0.825698
vt 0.825329 0.610891
vt 0.825329 0.697767
vt 0.738453 0.697767
vt 0.738453 0.610891
vt 0.184475 0.000184
vt 0.245906 0.061615
vt 0.184476 0.123046
vt 0.245906 0.184476
vt 0.184476 0.245906
vt 0.123046 0.184476
vt 0.061615 0.245907
vt 0.000184 0.184476
vt 0.061615 0.123046
vt 0.000184 0.061616
vt 0.061614 0.000185
vt 0.123045 0.061615
vt 0.825697 0.785379
vt 0.912573 0.785379
vt 0.912573 0.872255
vt 0.825697 0.872255
vt 0.825697 0.872623
vt 0.912572 0.872623
vt 0.912572 0.959499
vt 0.825697 0.959499
vt 0.491995 0.184476
vt 0.430565 0.245907
vt 0.369134 0.184476
vt 0.307703 0.245906
vt 0.246273 0.184475
vt 0.307704 0.123045
vt 0.246273 0.061614
vt 0.307704 0.000184
vt 0.369135 0.061615
vt 0.430565 0.000184
vt 0.491995 0.061615
vt 0.430565 0.123046
vt 0.000184 0.307706
vt 0.061615 0.246275
vt 0.123045 0.307706
vt 0.184475 0.246276
vt 0.245906 0.307706
vt 0.184476 0.369136
vt 0.245907 0.430567
vt 0.184476 0.491997
vt 0.123045 0.430567
vt 0.061615 0.491997
vt 0.000184 0.430567
vt 0.061614 0.369137
vt 0.912573 0.523648
vt 0.912573 0.610523
vt 0.825697 0.610523
vt 0.825697 0.523648
vt 0.738453 0.872623
vt 0.825328 0.872623
vt 0.825328 0.959499
vt 0.738453 0.959499
vt 0.087060 0.841341
vt 0.087060 0.928217
vt 0.000184 0.928217
vt 0.000184 0.841341
vt 0.087428 0.492365
vt 0.174304 0.492365
vt 0.174304 0.579241
vt 0.087428 0.579241
vt 0.912941 0.174672
vt 0.999816 0.174672
vt 0.999816 0.261548
vt 0.912941 0.261548
vt 0.492364 0.553795
vt 0.553795 0.492365
vt 0.615225 0.553796
vt 0.676655 0.492365
vt 0.738086 0.553795
vt 0.676655 0.615225
vt 0.738086 0.676656
vt 0.676655 0.738087
vt 0.615224 0.676656
vt 0.553794 0.738086
vt 0.492364 0.676656
vt 0.553794 0.615226
vt 0.912573 0.000184
vt 0.912573 0.087060
vt 0.825697 0.087060
vt 0.825697 0.000184
vt 0.246274 0.553796
vt 0.307705 0.492365
vt 0.369136 0.553795
vt 0.430566 0.492365
vt 0.491996 0.553796
vt 0.430565 0.615226
vt 0.491996 0.676657
vt 0.430566 0.738088
vt 0.369135 0.676657
vt 0.307705 0.738087
vt 0.246275 0.676656
vt 0.307705 0.615226
vt 0.912573 0.436404
vt 0.912573 0.523279
vt 0.825697 0.523279
vt 0.825697 0.436404
vt 0.738086 0.430565
vt 0.676656 0.491996
vt 0.615225 0.430566
vt 0.553795 0.491997
vt 0.492364 0.430566
vt 0.553794 0.369136
vt 0.492364 0.307706
vt 0.553794 0.246275
vt 0.615224 0.307705
vt 0.676655 0.246274
vt 0.738086 0.307704
vt 0.676655 0.369135
vn 0.0000 0.0000 -1.0000
vn 0.0000 0.0000 1.0000
vn 1.0000 0.0000 0.0000
vn -0.0000 -1.0000 -0.0000
vn -1.0000 0.0000 0.0000
vn 0.0000 1.0000 0.0000
usemtl Trap_Ground_Small_Deactivated
s off
f 90/1/1 91/2/1 30/3/1 61/4/1
f 89/5/2 18/6/2 42/7/2 20/8/2
f 19/9/1 57/10/1 21/11/1 76/12/1
f 35/13/2 53/14/2 54/15/2 52/16/2
f 92/17/2 9/18/2 46/19/2 22/20/2
f 34/21/3 36/22/3 35/23/3 52/24/3
f 51/25/2 13/26/2 14/27/2 15/28/2
f 28/29/3 88/30/3 87/31/3 75/32/3
f 24/33/1 27/34/1 80/35/1 79/36/1
f 64/37/3 65/38/3 19/39/3 76/40/3
f 63/41/1 65/42/1 64/43/1 62/44/1
f 84/45/3 25/46/3 24/47/3 79/48/3
f 23/49/3 93/50/3 92/51/3 22/52/3
f 21/53/3 57/54/3 89/55/3 20/56/3
f 84/57/4 79/58/4 80/59/4 26/60/4 23/61/4 22/62/4 46/63/4 50/64/4 7/65/4 6/66/4 68/67/4 83/68/4
f 73/69/5 16/70/5 82/71/5 71/72/5
f 10/73/2 5/74/2 7/75/2 50/76/2
f 2/77/2 40/78/2 41/79/2 39/80/2
f 56/81/5 55/82/5 41/83/5 40/84/5
f 87/85/2 86/86/2 38/87/2 75/88/2
f 72/89/1 36/90/1 34/91/1 31/92/1
f 43/93/5 74/94/5 38/95/5 86/96/5
f 63/97/6 3/98/6 56/99/6 40/100/6 2/101/6 85/102/6 17/103/6 18/104/6 89/105/6 57/106/6 19/107/6 65/108/6
f 49/109/2 94/110/2 48/111/2 47/112/2
f 59/113/1 60/114/1 12/115/1 58/116/1
f 96/117/5 83/118/5 68/119/5 69/120/5
f 32/121/3 33/122/3 72/123/3 31/124/3
f 80/125/3 27/126/3 95/127/3 26/128/3
f 45/129/2 88/130/2 28/131/2 44/132/2
f 42/133/3 18/134/3 17/135/3 37/136/3
f 70/137/1 71/138/1 82/139/1 81/140/1
f 8/141/1 69/142/1 68/143/1 6/144/1
f 63/145/5 62/146/5 4/147/5 3/148/5
f 70/149/5 81/150/5 14/151/5 13/152/5
f 43/153/2 11/154/2 77/155/2 74/156/2
f 56/157/1 3/158/1 4/159/1 55/160/1
f 96/161/1 25/162/1 84/163/1 83/164/1
f 67/165/5 66/166/5 12/167/5 60/168/5
f 10/169/5 50/170/5 46/171/5 9/172/5
f 30/173/3 91/174/3 45/175/3 44/176/3
f 67/177/1 29/178/1 78/179/1 66/180/1
f 34/181/4 52/182/4 54/183/4 47/184/4 48/185/4 15/186/4 14/187/4 81/188/4 82/189/4 16/190/4 32/191/4 31/192/4
f 2/193/5 39/194/5 1/195/5 85/196/5
f 95/197/2 93/198/2 23/199/2 26/200/2
f 35/201/6 36/202/6 72/203/6 33/204/6 73/205/6 71/206/6 70/207/6 13/208/6 51/209/6 94/210/6 49/211/6 53/212/6
f 45/213/6 91/214/6 90/215/6 29/216/6 67/217/6 60/218/6 59/219/6 11/220/6 43/221/6 86/222/6 87/223/6 88/224/6
f 54/225/3 53/226/3 49/227/3 47/228/3
f 73/229/1 33/230/1 32/231/1 16/232/1
f 59/233/5 58/234/5 77/235/5 11/236/5
f 78/237/3 29/238/3 90/239/3 61/240/3
f 17/241/2 85/242/2 1/243/2 37/244/2
f 21/245/4 20/246/4 42/247/4 37/248/4 1/249/4 39/250/4 41/251/4 55/252/4 4/253/4 62/254/4 64/255/4 76/256/4
f 51/257/5 15/258/5 48/259/5 94/260/5
f 30/261/4 44/262/4 28/263/4 75/264/4 38/265/4 74/266/4 77/267/4 58/268/4 12/269/4 66/270/4 78/271/4 61/272/4
f 8/273/5 6/274/5 7/275/5 5/276/5
f 95/277/6 27/278/6 24/279/6 25/280/6 96/281/6 69/282/6 8/283/6 5/284/6 10/285/6 9/286/6 92/287/6 93/288/6
