# Blender v3.2.2 OBJ File: 'Dungeon Voxel Assets.blend'
# www.blender.org
mtllib Lever_Middle.mtl
o Lever_Middle_Lever_Middle.001
v -0.150000 -0.266667 0.450000
v -0.150000 -0.066667 -0.150000
v -0.150000 -0.066667 -0.350000
v -0.150000 0.033333 0.150000
v -0.050000 0.433333 0.150000
v 0.050000 -0.066667 0.350000
v 0.050000 -0.166667 0.050000
v 0.050000 -0.066667 0.150000
v 0.050000 -0.166667 -0.350000
v 0.050000 -0.066667 -0.150000
v 0.050000 -0.066667 -0.350000
v 0.050000 0.033333 0.050000
v 0.050000 0.033333 -0.150000
v -0.050000 -0.166667 0.050000
v -0.050000 0.033333 -0.050000
v 0.050000 0.333333 -0.050000
v 0.050000 0.333333 0.150000
v 0.150000 -0.266667 0.450000
v 0.150000 -0.166667 0.350000
v 0.150000 -0.266667 -0.450000
v 0.150000 -0.166667 -0.350000
v 0.150000 -0.066667 0.150000
v 0.150000 -0.066667 -0.150000
v 0.150000 -0.066667 -0.350000
v 0.150000 0.033333 0.150000
v 0.150000 -0.166667 0.450000
v -0.050000 -0.166667 0.350000
v -0.150000 -0.066667 0.350000
v -0.150000 -0.166667 0.350000
v -0.050000 -0.066667 0.350000
v 0.050000 -0.166667 0.350000
v -0.050000 0.033333 0.150000
v 0.050000 0.033333 0.150000
v -0.050000 0.333333 0.050000
v 0.050000 0.333333 0.050000
v -0.050000 -0.166667 -0.050000
v -0.150000 0.033333 -0.150000
v -0.050000 0.433333 -0.150000
v 0.050000 0.333333 -0.150000
v 0.050000 0.433333 -0.150000
v -0.150000 -0.166667 -0.350000
v -0.050000 -0.166667 -0.350000
v -0.150000 -0.266667 -0.450000
v -0.050000 0.333333 0.150000
v -0.050000 0.333333 -0.150000
v -0.050000 0.333333 -0.050000
v -0.150000 -0.166667 0.450000
v 0.050000 -0.166667 -0.050000
v -0.150000 -0.166667 -0.450000
v 0.150000 -0.166667 -0.450000
v -0.150000 -0.066667 0.150000
v -0.050000 -0.066667 0.150000
v 0.150000 -0.066667 0.350000
v -0.050000 -0.066667 -0.150000
v -0.050000 -0.066667 -0.350000
v -0.050000 0.033333 0.050000
v 0.050000 0.033333 -0.050000
v -0.050000 0.033333 -0.150000
v 0.150000 0.033333 -0.150000
v 0.050000 0.433333 0.150000
vt 0.333194 0.599413
vt 0.333194 0.799078
vt 0.200084 0.799078
vt 0.200084 0.732523
vt 0.266639 0.732523
vt 0.266639 0.599413
vt 0.933306 0.866191
vt 0.933306 0.932747
vt 0.866751 0.932747
vt 0.866751 0.866191
vt 0.799917 0.932747
vt 0.799917 0.733082
vt 0.866472 0.733082
vt 0.866472 0.932747
vt 0.933305 0.400027
vt 0.933305 0.599692
vt 0.866750 0.599692
vt 0.866750 0.400027
vt 0.933026 0.200084
vt 0.933026 0.399749
vt 0.866472 0.399749
vt 0.866472 0.266639
vt 0.799917 0.266639
vt 0.799917 0.200084
vt 0.533418 0.932467
vt 0.533418 0.999022
vt 0.466863 0.999022
vt 0.466863 0.932467
vt 0.466583 0.799078
vt 0.333474 0.799078
vt 0.333474 0.599413
vt 0.400028 0.599413
vt 0.400028 0.732523
vt 0.466583 0.732523
vt 0.933306 0.933025
vt 0.933306 0.999581
vt 0.866751 0.999581
vt 0.866751 0.933025
vt 0.933306 0.799356
vt 0.933306 0.865912
vt 0.866751 0.865912
vt 0.866751 0.799356
vt 0.799916 0.599693
vt 0.799916 0.400028
vt 0.866471 0.400028
vt 0.866471 0.599693
vt 0.866471 0.732803
vt 0.799916 0.732803
vt 0.933306 0.066974
vt 0.999861 0.066974
vt 0.999861 0.133529
vt 0.933306 0.133529
vt 0.599972 0.532858
vt 0.599972 0.466304
vt 0.666527 0.466304
vt 0.666527 0.266639
vt 0.733082 0.266639
vt 0.733082 0.466304
vt 0.799637 0.466304
vt 0.799637 0.532858
vt 0.799917 0.199804
vt 0.799917 0.000140
vt 0.933026 0.000140
vt 0.933026 0.066695
vt 0.866472 0.066695
vt 0.866472 0.199804
vt 0.666806 0.932747
vt 0.666806 0.799637
vt 0.733362 0.799637
vt 0.733362 0.932747
vt 0.533418 0.799078
vt 0.533418 0.932188
vt 0.466863 0.932188
vt 0.466863 0.799078
vt 0.466863 0.599413
vt 0.533418 0.599413
vt 0.933306 0.732522
vt 0.933306 0.799078
vt 0.866751 0.799078
vt 0.866751 0.732522
vt 0.933305 0.599972
vt 0.933305 0.666528
vt 0.866750 0.666528
vt 0.866750 0.599972
vt 0.399749 0.199804
vt 0.399749 0.399469
vt 0.333194 0.399469
vt 0.333194 0.532579
vt 0.266639 0.532579
vt 0.266639 0.599133
vt 0.200084 0.599133
vt 0.200084 0.000140
vt 0.266639 0.000140
vt 0.266639 0.066695
vt 0.333194 0.066695
vt 0.333194 0.199804
vt 0.333753 0.999022
vt 0.333753 0.799357
vt 0.400308 0.799357
vt 0.400308 0.999022
vt 0.400028 0.599134
vt 0.400028 0.000140
vt 0.599693 0.000140
vt 0.599693 0.599134
vt 0.000139 0.999022
vt 0.000139 0.865912
vt 0.066695 0.865912
vt 0.066695 0.999022
vt 0.666527 0.933026
vt 0.666527 0.999582
vt 0.599972 0.999582
vt 0.599972 0.933026
vt 0.733361 0.933026
vt 0.733361 0.999581
vt 0.666806 0.999581
vt 0.666806 0.933026
vt 0.000139 0.865633
vt 0.000139 0.799078
vt 0.066695 0.799078
vt 0.066695 0.599413
vt 0.133249 0.599413
vt 0.133249 0.799078
vt 0.199804 0.799078
vt 0.199804 0.865633
vt 0.199804 0.399469
vt 0.133250 0.399469
vt 0.133250 0.532579
vt 0.066695 0.532579
vt 0.066695 0.599133
vt 0.000140 0.599133
vt 0.000140 0.000140
vt 0.066695 0.000140
vt 0.066695 0.066695
vt 0.133250 0.066695
vt 0.133250 0.199804
vt 0.199804 0.199804
vt 0.599972 0.799358
vt 0.599972 0.732803
vt 0.666528 0.732803
vt 0.666528 0.533138
vt 0.733082 0.533138
vt 0.733082 0.732803
vt 0.799637 0.732803
vt 0.799637 0.799358
vt 0.933306 0.133809
vt 0.999861 0.133809
vt 0.999861 0.200364
vt 0.933306 0.200364
vt 0.666527 0.199804
vt 0.666527 0.000140
vt 0.733082 0.000140
vt 0.733082 0.199804
vt 0.799637 0.199804
vt 0.799637 0.266359
vt 0.599972 0.266359
vt 0.599972 0.199804
vt 0.866472 0.933025
vt 0.866472 0.999581
vt 0.799917 0.999581
vt 0.799917 0.933025
vt 0.066974 0.999022
vt 0.066974 0.865912
vt 0.133530 0.865912
vt 0.133530 0.999022
vt 0.599972 0.932747
vt 0.599972 0.799637
vt 0.666528 0.799637
vt 0.666528 0.932747
vt 0.266918 0.865912
vt 0.266918 0.799357
vt 0.333474 0.799357
vt 0.333474 0.999022
vt 0.266918 0.999022
vt 0.266918 0.932467
vt 0.200084 0.799357
vt 0.266640 0.799357
vt 0.266640 0.865912
vt 0.266640 0.932467
vt 0.266640 0.999022
vt 0.200084 0.999022
vt 0.999861 0.000140
vt 0.999861 0.066695
vt 0.933306 0.066695
vt 0.933306 0.000140
vn -1.0000 0.0000 0.0000
vn 0.0000 0.0000 -1.0000
vn 0.0000 0.0000 1.0000
vn 1.0000 -0.0000 0.0000
vn 0.0000 1.0000 0.0000
vn 0.0000 -1.0000 -0.0000
usemtl Lever_Middle
s off
f 9/1/1 48/2/1 57/3/1 13/4/1 10/5/1 11/6/1
f 11/7/2 24/8/2 21/9/2 9/10/2
f 26/11/3 47/12/3 1/13/3 18/14/3
f 20/15/2 43/16/2 49/17/2 50/18/2
f 7/19/1 31/20/1 6/21/1 8/22/1 33/23/1 12/24/1
f 37/25/2 58/26/2 54/27/2 2/28/2
f 15/29/4 36/30/4 42/31/4 55/32/4 54/33/4 58/34/4
f 30/35/3 28/36/3 29/37/3 27/38/3
f 25/39/3 33/40/3 8/41/3 22/42/3
f 15/43/2 46/44/2 16/45/2 57/46/2 48/47/2 36/48/2
f 38/49/2 40/50/2 39/51/2 45/52/2
f 38/53/1 45/54/1 46/55/1 15/56/1 56/57/1 34/58/1 44/59/1 5/60/1
f 27/61/4 14/62/4 56/63/4 32/64/4 52/65/4 30/66/4
f 23/67/5 24/68/5 11/69/5 10/70/5
f 56/71/3 14/72/3 7/73/3 12/74/3 35/75/3 34/76/3
f 3/77/2 55/78/2 42/79/2 41/80/2
f 13/81/2 59/82/2 23/83/2 10/84/2
f 4/85/1 37/86/1 2/87/1 3/88/1 41/89/1 49/90/1 43/91/1 1/92/1 47/93/1 29/94/1 28/95/1 51/96/1
f 60/97/5 40/98/5 38/99/5 5/100/5
f 1/101/6 43/102/6 20/103/6 18/104/6
f 53/105/5 22/106/5 8/107/5 6/108/5
f 32/109/3 4/110/3 51/111/3 52/112/3
f 35/113/6 17/114/6 44/115/6 34/116/6
f 26/117/5 19/118/5 31/119/5 7/120/5 14/121/5 27/122/5 29/123/5 47/124/5
f 25/125/4 22/126/4 53/127/4 19/128/4 26/129/4 18/130/4 20/131/4 50/132/4 21/133/4 24/134/4 23/135/4 59/136/4
f 49/137/5 41/138/5 42/139/5 36/140/5 48/141/5 9/142/5 21/143/5 50/144/5
f 60/145/3 5/146/3 44/147/3 17/148/3
f 35/149/4 12/150/4 57/151/4 16/152/4 39/153/4 40/154/4 60/155/4 17/156/4
f 53/157/3 6/158/3 31/159/3 19/160/3
f 30/161/5 52/162/5 51/163/5 28/164/5
f 54/165/5 55/166/5 3/167/5 2/168/5
f 15/169/5 58/170/5 37/171/5 4/172/5 32/173/5 56/174/5
f 59/175/5 13/176/5 57/177/5 12/178/5 33/179/5 25/180/5
f 39/181/6 16/182/6 46/183/6 45/184/6
