# Blender v3.2.2 OBJ File: 'Dungeon Voxel Assets.blend'
# www.blender.org
mtllib Button_Floor_Big_Gray.mtl
o Button_Floor_Big_Gray_Button_Floor_Big_Gray.002
v -0.331579 -0.100000 0.315789
v -0.331579 -0.100000 -0.284211
v -0.331579 0.000000 -0.284211
v 0.168421 -0.000000 0.215789
v 0.168421 0.100000 0.215789
v 0.268421 -0.000000 0.315789
v 0.268421 -0.000000 0.115789
v 0.268421 -0.100000 -0.284211
v 0.268421 0.000000 -0.284211
v -0.231579 0.000000 -0.184211
v -0.231579 0.100000 -0.184211
v 0.168421 0.000000 -0.184211
v 0.268421 -0.100000 0.315789
v -0.331579 -0.000000 0.315789
v -0.231579 -0.000000 0.215789
v 0.168421 0.000000 -0.084211
v 0.068421 0.000000 -0.284211
v -0.231579 0.100000 0.215789
v 0.168421 0.100000 -0.184211
vt 0.166638 0.000084
vt 0.083362 0.083361
vt 0.083362 0.166638
vt 0.000084 0.333193
vt 0.000084 0.000084
vt 0.916470 0.000084
vt 0.916470 0.333193
vt 0.833193 0.333193
vt 0.833193 0.000084
vt 0.499916 0.333362
vt 0.583193 0.333362
vt 0.583193 0.666470
vt 0.583193 0.833024
vt 0.499916 0.833024
vt 0.000084 0.999578
vt 0.000084 0.499915
vt 0.499747 0.499916
vt 0.499747 0.999578
vt 0.916639 0.000084
vt 0.999916 0.000084
vt 0.999916 0.333193
vt 0.916639 0.333193
vt 0.916639 0.083361
vt 0.750085 0.666470
vt 0.750085 0.833024
vt 0.666808 0.833024
vt 0.666808 0.333362
vt 0.750085 0.333362
vt 0.499916 0.000084
vt 0.833024 0.000084
vt 0.833024 0.333193
vt 0.499916 0.333193
vt 0.583362 0.333362
vt 0.666639 0.333362
vt 0.666639 0.833024
vt 0.583362 0.833024
vt 0.916976 0.999747
vt 0.833699 0.999747
vt 0.833699 0.666639
vt 0.916976 0.666639
vt 0.833530 0.333362
vt 0.833530 0.833024
vt 0.750253 0.833024
vt 0.750253 0.333362
vt 0.833699 0.666470
vt 0.833699 0.333362
vt 0.916976 0.333362
vt 0.916976 0.666470
vt 0.499747 0.000084
vt 0.499747 0.499747
vt 0.000084 0.499747
vt 0.083362 0.416470
vt 0.416470 0.416470
vt 0.416470 0.083361
vn 0.0000 1.0000 0.0000
vn 0.0000 0.0000 -1.0000
vn 1.0000 -0.0000 0.0000
vn 0.0000 -1.0000 -0.0000
vn -1.0000 -0.0000 0.0000
vn 0.0000 -0.0000 1.0000
usemtl Button_Floor_Big_Gray
s off
f 17/1/1 12/2/1 16/3/1 7/4/1 9/5/1
f 11/6/2 19/7/2 12/8/2 10/9/2
f 8/10/3 9/11/3 7/12/3 6/13/3 13/14/3
f 1/15/4 2/16/4 8/17/4 13/18/4
f 12/19/3 19/20/3 5/21/3 4/22/3 16/23/3
f 17/24/2 9/25/2 8/26/2 2/27/2 3/28/2
f 5/29/1 19/30/1 11/31/1 18/32/1
f 3/33/5 2/34/5 1/35/5 14/36/5
f 15/37/5 18/38/5 11/39/5 10/40/5
f 6/41/6 14/42/6 1/43/6 13/44/6
f 15/45/6 4/46/6 5/47/6 18/48/6
f 3/49/1 14/50/1 6/51/1 7/4/1 16/3/1 4/52/1 15/53/1 10/54/1 12/2/1 17/1/1
