# Blender v3.2.2 OBJ File: 'Dungeon Voxel Assets.blend'
# www.blender.org
mtllib Chest_Big_Closed.mtl
o Chest_Big_Closed_Chest_Big_Closed.002
v -1.094271 -0.523958 -0.644271
v -1.094271 -0.123958 0.555729
v -1.094271 -0.223958 -0.644271
v -1.094271 0.176042 -0.644271
v -0.994271 -0.423958 0.455729
v -0.994271 -0.423958 -0.544271
v -0.994271 -0.123958 -0.544271
v -0.994271 0.276042 0.355729
v -0.994271 0.276042 -0.544271
v -0.994271 0.376042 0.355729
v -0.994271 0.376042 -0.444271
v -0.994271 0.476042 0.155729
v -0.994271 0.476042 -0.244271
v -0.994271 0.476042 -0.344271
v -0.994271 0.576042 -0.244271
v -0.694271 -0.423958 -0.544271
v -0.694271 -0.423958 0.555729
v -0.694271 -0.223958 0.455729
v -0.694271 -0.223958 -0.544271
v -0.694271 -0.223958 -0.644271
v -0.694271 -0.123958 0.555729
v -0.694271 0.076042 -0.544271
v -0.194270 -0.123958 0.455729
v 0.605729 -0.423958 0.455729
v 0.605729 -0.223958 0.555729
v 0.605729 -0.123958 -0.644271
v 0.905729 -0.423958 0.355729
v 0.905729 -0.423958 -0.444271
v 0.905729 0.076042 0.355729
v 0.905729 0.176042 0.355729
v 0.905729 0.276042 0.255729
v 0.905729 0.176042 -0.444271
v 0.905729 0.276042 -0.444271
v 0.905729 0.376042 0.255729
v 0.905729 0.376042 -0.244271
v -0.894271 0.076042 -0.444271
v -0.894271 0.176042 0.355729
v -0.894271 0.276042 0.355729
v -0.894271 0.376042 -0.344271
v -0.594271 -0.223958 0.555729
v -0.594271 0.076042 0.455729
v -0.594271 0.076042 -0.544271
v -0.594271 0.076042 -0.644271
v 0.205729 -0.123958 0.455729
v 0.705729 -0.423958 0.455729
v 0.705729 -0.223958 0.555729
v 0.705729 -0.123958 0.555729
v 0.705729 -0.123958 -0.544271
v 0.705729 -0.123958 -0.644271
v 0.705729 0.076042 0.555729
v 0.705729 0.076042 -0.544271
v 0.705729 0.076042 -0.644271
v 1.005729 -0.223958 -0.544271
v 1.005729 -0.123958 -0.544271
v 1.005729 0.176042 0.455729
v 1.005729 0.276042 0.355729
v 1.005729 0.176042 -0.544271
v 1.005729 0.376042 0.355729
v 1.005729 0.576042 -0.244271
v 1.105729 -0.423958 0.555729
v 1.105729 -0.223958 -0.644271
v 1.105729 -0.123958 0.555729
v 1.105729 0.176042 -0.644271
v -0.694271 -0.223958 0.555729
v -1.094271 -0.223958 0.555729
v -0.694271 0.076042 0.555729
v -1.094271 0.176042 0.555729
v -0.594271 -0.423958 0.555729
v -0.194270 -0.023958 0.555729
v 0.205729 -0.223958 0.555729
v 0.205729 -0.023958 0.555729
v 0.605729 -0.423958 0.555729
v 0.605729 0.076042 0.555729
v 1.105729 0.076042 0.555729
v 1.105729 0.176042 0.555729
v -0.994271 -0.123958 0.455729
v -0.694271 -0.423958 0.455729
v -0.594271 -0.123958 0.455729
v -0.194270 -0.223958 0.455729
v -0.194270 -0.023958 0.455729
v 0.205729 -0.323958 0.455729
v 0.605729 0.076042 0.455729
v 0.705729 -0.223958 0.455729
v 0.705729 -0.123958 0.455729
v 0.705729 0.076042 0.455729
v 1.005729 -0.223958 0.455729
v 1.005729 0.076042 0.455729
v 1.005729 0.276042 0.455729
v 0.805730 0.276042 0.355729
v -0.594271 0.376042 0.255729
v 1.005729 0.376042 0.255729
v 1.005729 0.476042 0.255729
v 1.005729 0.476042 0.155729
v -0.894271 0.476042 -0.244271
v -0.894271 0.376042 -0.244271
v -0.894271 0.276042 -0.344271
v 0.905729 0.276042 -0.344271
v 0.905729 0.376042 -0.344271
v -0.894271 0.276042 -0.444271
v 0.905729 0.276042 0.355729
v -0.894271 0.276042 0.255729
v -0.894271 0.376042 0.255729
v 0.905729 0.376042 0.155729
v 0.905729 0.476042 0.155729
v 1.005729 0.476042 -0.244271
v 1.005729 0.376042 -0.344271
v -0.994271 0.276042 -0.444271
v 1.005729 0.276042 -0.444271
v -0.994271 0.076042 -0.544271
v -0.594271 -0.423958 -0.544271
v 0.605729 -0.223958 -0.544271
v 0.605729 0.076042 -0.544271
v 0.705729 -0.423958 -0.544271
v 1.005729 -0.423958 -0.544271
v 1.005729 0.076042 -0.544271
v 1.005729 0.276042 -0.544271
v -1.094271 -0.423958 -0.644271
v -1.094271 -0.123958 -0.644271
v -1.094271 0.076042 -0.644271
v -0.694271 0.076042 -0.644271
v -0.594271 -0.423958 -0.644271
v 0.605729 -0.423958 -0.644271
v 0.605729 -0.223958 -0.644271
v 1.105729 -0.423958 -0.644271
v 1.105729 0.076042 -0.644271
v 1.105729 -0.523958 0.555729
v -1.094271 -0.523958 0.555729
v 1.105729 -0.523958 -0.644271
v -0.194270 -0.323958 0.455729
v 0.205729 -0.323958 0.555729
v -0.194270 -0.323958 0.555729
v -0.994271 -0.223958 0.455729
v -0.594271 -0.223958 0.455729
v -0.194270 -0.223958 0.555729
v 0.205729 -0.223958 0.455729
v 0.605729 -0.223958 0.455729
v 1.105729 -0.223958 0.555729
v -0.994271 -0.223958 -0.544271
v -0.594271 -0.223958 -0.644271
v -0.594271 -0.223958 -0.544271
v 0.705729 -0.223958 -0.644271
v 0.705729 -0.223958 -0.544271
v -0.994271 0.076042 0.455729
v -1.094271 0.076042 0.555729
v -0.694271 0.076042 0.455729
v -0.594271 0.076042 0.555729
v -0.894271 0.076042 0.355729
v 0.905729 0.076042 -0.444271
v 0.605729 0.076042 -0.644271
v -0.794271 0.276042 0.355729
v 0.705729 0.276042 -0.444271
v -0.894271 0.376042 0.155729
v 0.705729 0.376042 -0.344271
v -0.794271 0.476042 0.155729
v -0.894271 0.476042 0.155729
v -1.094271 -0.423958 0.555729
v -0.594271 -0.423958 0.455729
v 0.705729 -0.423958 0.555729
v 1.005729 -0.423958 0.455729
v -0.894271 -0.423958 0.355729
v -0.894271 -0.423958 -0.444271
v -0.694271 -0.423958 -0.644271
v 0.605729 -0.423958 -0.544271
v 0.705729 -0.423958 -0.644271
v -0.694271 -0.123958 0.455729
v -0.594271 -0.123958 0.555729
v -0.194270 -0.123958 0.555729
v 0.205729 -0.123958 0.555729
v 0.605729 -0.123958 0.555729
v 0.605729 -0.123958 0.455729
v 1.005729 -0.123958 0.455729
v -0.694271 -0.123958 -0.544271
v -0.694271 -0.123958 -0.644271
v -0.594271 -0.123958 -0.544271
v -0.594271 -0.123958 -0.644271
v 0.605729 -0.123958 -0.544271
v 1.105729 -0.123958 -0.644271
v 0.205729 -0.023958 0.455729
v -0.994271 0.176042 0.455729
v -0.994271 0.176042 -0.444271
v -0.894271 0.176042 -0.444271
v -0.994271 0.176042 -0.544271
v -0.094271 0.176042 -0.544271
v -0.994271 0.276042 0.455729
v -0.994271 0.376042 0.255729
v -0.994271 0.376042 -0.344271
v 1.005729 0.376042 -0.444271
v -0.994271 0.476042 0.255729
v 0.905729 0.476042 -0.244271
v 1.005729 0.476042 -0.344271
v -0.994271 0.576042 0.155729
v 1.005729 0.576042 0.155729
vt 0.836567 0.866621
vt 0.836567 0.700185
vt 0.869854 0.700185
vt 0.869854 0.866621
vt 0.486128 0.833795
vt 0.486128 0.867082
vt 0.469484 0.867082
vt 0.469484 0.833795
vt 0.119508 0.833795
vt 0.119508 0.867082
vt 0.102864 0.867082
vt 0.102864 0.833795
vt 0.067267 0.666897
vt 0.083911 0.666897
vt 0.083911 0.683541
vt 0.100554 0.683541
vt 0.100554 0.700185
vt 0.117198 0.700185
vt 0.117198 0.716828
vt 0.133841 0.716828
vt 0.133841 0.783402
vt 0.117198 0.783402
vt 0.117198 0.800046
vt 0.100554 0.800046
vt 0.100554 0.816689
vt 0.083911 0.816689
vt 0.083911 0.833333
vt 0.067267 0.833333
vt 0.066805 0.666897
vt 0.066805 0.683541
vt 0.066805 0.833333
vt 0.050162 0.833333
vt 0.050162 0.816689
vt 0.033518 0.816689
vt 0.033518 0.800046
vt 0.016875 0.800046
vt 0.016875 0.783402
vt 0.000231 0.783402
vt 0.000231 0.716828
vt 0.016875 0.716828
vt 0.016875 0.700185
vt 0.033518 0.700185
vt 0.033518 0.683541
vt 0.050162 0.683541
vt 0.050162 0.666897
vt 0.202263 0.884188
vt 0.185619 0.884188
vt 0.185619 0.850901
vt 0.202263 0.850901
vt 0.684927 0.300277
vt 0.684927 0.333564
vt 0.668283 0.333564
vt 0.668283 0.300277
vt 0.823157 0.834257
vt 0.823157 0.867544
vt 0.806513 0.867544
vt 0.806513 0.834257
vt 0.385343 0.884188
vt 0.368699 0.884188
vt 0.368699 0.850901
vt 0.385343 0.850901
vt 0.702495 0.334026
vt 0.719138 0.334026
vt 0.719138 0.350670
vt 0.702495 0.350670
vt 0.452379 0.700184
vt 0.469022 0.700184
vt 0.469022 0.766759
vt 0.452379 0.766759
vt 0.452379 0.783402
vt 0.435735 0.783402
vt 0.435735 0.800046
vt 0.419092 0.800046
vt 0.419092 0.666897
vt 0.435735 0.666897
vt 0.435735 0.683541
vt 0.452379 0.683541
vt 0.635458 0.767221
vt 0.652102 0.767221
vt 0.652102 0.966944
vt 0.635458 0.966944
vt 0.517106 0.000231
vt 0.517106 0.366389
vt 0.500462 0.283172
vt 0.500462 0.083448
vt 0.450531 0.066805
vt 0.450531 0.000231
vt 0.467175 0.000231
vt 0.467175 0.066805
vt 0.500462 0.066805
vt 0.500462 0.000231
vt 0.668284 0.334026
vt 0.684927 0.334026
vt 0.684927 0.350670
vt 0.668284 0.350670
vt 0.685389 0.334026
vt 0.702033 0.334026
vt 0.702033 0.350670
vt 0.685389 0.350670
vt 0.785251 0.200416
vt 0.818538 0.200416
vt 0.818538 0.250346
vt 0.785251 0.250346
vt 0.167591 0.850439
vt 0.134303 0.850439
vt 0.134303 0.800508
vt 0.167591 0.800508
vt 0.418630 0.666897
vt 0.418630 0.800046
vt 0.401986 0.800046
vt 0.401986 0.783402
vt 0.385343 0.783402
vt 0.385343 0.766759
vt 0.368699 0.766759
vt 0.368699 0.700184
vt 0.385343 0.700184
vt 0.385343 0.683541
vt 0.401986 0.683541
vt 0.401986 0.666897
vt 0.601709 0.700185
vt 0.601709 0.866621
vt 0.568422 0.866621
vt 0.568422 0.700185
vt 0.102402 0.833795
vt 0.102402 0.867082
vt 0.085758 0.867082
vt 0.085758 0.833795
vt 0.185158 0.850901
vt 0.185158 0.884188
vt 0.168514 0.884188
vt 0.168514 0.850901
vt 0.703880 0.767221
vt 0.720524 0.767221
vt 0.720524 0.966944
vt 0.703880 0.966944
vt 0.669669 0.767221
vt 0.686313 0.767221
vt 0.686313 0.966944
vt 0.669669 0.966944
vt 0.234627 0.867082
vt 0.234627 0.900370
vt 0.217983 0.900370
vt 0.217983 0.867082
vt 0.435735 0.800508
vt 0.435735 0.850439
vt 0.402448 0.850439
vt 0.402448 0.800508
vt 0.417244 0.000231
vt 0.417244 0.066805
vt 0.467175 0.083448
vt 0.467175 0.150023
vt 0.450531 0.083448
vt 0.417244 0.083448
vt 0.417244 0.283172
vt 0.450531 0.283172
vt 0.450531 0.216598
vt 0.467175 0.283172
vt 0.500462 0.366389
vt 0.500462 0.299815
vt 0.467175 0.299815
vt 0.467175 0.366389
vt 0.450531 0.366389
vt 0.450531 0.299815
vt 0.417244 0.299815
vt 0.417244 0.366389
vt 0.400601 0.366389
vt 0.400601 0.000231
vt 0.483818 0.150023
vt 0.483818 0.216598
vt 0.467175 0.216598
vt 0.433888 0.216598
vt 0.433888 0.150023
vt 0.450531 0.150023
vt 0.869392 0.333102
vt 0.852749 0.333102
vt 0.852749 0.000231
vt 0.869392 0.000231
vt 0.719138 0.383495
vt 0.719138 0.549931
vt 0.769069 0.549931
vt 0.769069 0.566575
vt 0.702495 0.566575
vt 0.702495 0.366851
vt 0.769069 0.366851
vt 0.769069 0.383495
vt 0.751502 0.016874
vt 0.701571 0.016874
vt 0.701571 0.000231
vt 0.768145 0.000231
vt 0.768145 0.199954
vt 0.701571 0.199954
vt 0.701571 0.183310
vt 0.751501 0.183310
vt 0.989131 0.299815
vt 0.972487 0.299815
vt 0.972487 0.000231
vt 0.989131 0.000231
vt 0.989131 0.050162
vt 0.904527 0.699722
vt 0.887883 0.699722
vt 0.887883 0.666435
vt 0.887883 0.400138
vt 0.887883 0.366851
vt 0.904527 0.366851
vt 0.869854 0.333102
vt 0.869854 0.283172
vt 0.869854 0.016874
vt 0.869854 0.000231
vt 0.886498 0.000231
vt 0.886498 0.333102
vt 0.553626 0.666898
vt 0.553626 0.966482
vt 0.536982 0.966482
vt 0.536982 0.666898
vt 0.201340 0.800508
vt 0.201340 0.850439
vt 0.168052 0.850439
vt 0.168052 0.800508
vt 0.755197 0.966944
vt 0.755197 0.767221
vt 0.771840 0.767221
vt 0.771840 0.966944
vt 0.502771 0.833333
vt 0.469484 0.833333
vt 0.469484 0.666897
vt 0.502771 0.666897
vt 0.686775 0.767221
vt 0.703418 0.767221
vt 0.703418 0.966944
vt 0.686775 0.966944
vt 0.503233 0.833795
vt 0.503233 0.867082
vt 0.486589 0.867082
vt 0.486589 0.833795
vt 0.789407 0.966944
vt 0.789407 0.767220
vt 0.806051 0.767220
vt 0.806051 0.966944
vt 0.720986 0.767221
vt 0.737629 0.767221
vt 0.737629 0.966944
vt 0.720986 0.966944
vt 0.972025 0.299815
vt 0.955382 0.299815
vt 0.955382 0.000231
vt 0.972025 0.000231
vt 0.972025 0.033518
vt 0.168052 0.850901
vt 0.168052 0.884188
vt 0.151409 0.884188
vt 0.151409 0.850901
vt 0.956305 0.666436
vt 0.956305 0.366851
vt 0.972949 0.366851
vt 0.972949 0.383495
vt 0.972949 0.666436
vt 0.452841 0.867083
vt 0.436197 0.867083
vt 0.436197 0.800508
vt 0.452841 0.800508
vt 0.870316 0.366851
vt 0.870316 0.699723
vt 0.853672 0.699723
vt 0.853672 0.683079
vt 0.853672 0.383495
vt 0.853672 0.366851
vt 0.334488 0.666897
vt 0.334488 0.866621
vt 0.301201 0.866621
vt 0.301201 0.666897
vt 0.401986 0.800508
vt 0.401986 0.850439
vt 0.368699 0.850439
vt 0.368699 0.800508
vt 0.903603 0.333102
vt 0.886960 0.333102
vt 0.886960 0.150023
vt 0.886960 0.000231
vt 0.903603 0.000231
vt 0.134303 0.666897
vt 0.217521 0.666897
vt 0.217521 0.800046
vt 0.134303 0.800046
vt 0.853210 0.699722
vt 0.836567 0.699722
vt 0.836567 0.633148
vt 0.836567 0.383494
vt 0.836567 0.366851
vt 0.853210 0.366851
vt 0.652564 0.767221
vt 0.669207 0.767221
vt 0.669207 0.966944
vt 0.652564 0.966944
vt 0.819461 0.549931
vt 0.819461 0.383495
vt 0.769530 0.383495
vt 0.769530 0.366851
vt 0.836105 0.366851
vt 0.836105 0.566575
vt 0.769530 0.566575
vt 0.769530 0.549931
vt 0.534211 0.083449
vt 0.534211 0.283172
vt 0.517568 0.000231
vt 0.534211 0.000231
vt 0.534211 0.066805
vt 0.567498 0.066805
vt 0.567498 0.000231
vt 0.584142 0.000231
vt 0.584142 0.066805
vt 0.617429 0.066805
vt 0.617429 0.000231
vt 0.634073 0.000231
vt 0.634073 0.366389
vt 0.617429 0.366389
vt 0.617429 0.299815
vt 0.584142 0.299815
vt 0.584142 0.366389
vt 0.567498 0.366389
vt 0.567498 0.299815
vt 0.534211 0.299815
vt 0.617429 0.283172
vt 0.617429 0.083449
vt 0.584142 0.083449
vt 0.567498 0.083449
vt 0.017336 0.900369
vt 0.017336 0.833795
vt 0.033980 0.833795
vt 0.033980 0.900369
vt 0.419553 0.850901
vt 0.419553 0.884188
vt 0.402910 0.884188
vt 0.402910 0.850901
vt 0.000231 0.000231
vt 0.199954 0.000231
vt 0.199954 0.366389
vt 0.000231 0.366389
vt 0.068653 0.867082
vt 0.068653 0.833795
vt 0.085297 0.833795
vt 0.085297 0.867082
vt 0.870316 0.716828
vt 0.870316 0.700185
vt 0.886959 0.700185
vt 0.886959 0.999769
vt 0.870316 0.999769
vt 0.870316 0.983126
vt 0.972949 0.666897
vt 0.972949 0.683541
vt 0.972949 0.949838
vt 0.972949 0.966482
vt 0.956305 0.966482
vt 0.956305 0.666897
vt 0.051086 0.900369
vt 0.034442 0.900369
vt 0.034442 0.833795
vt 0.051086 0.833795
vt 0.887421 0.699722
vt 0.870778 0.699722
vt 0.870778 0.666435
vt 0.870778 0.383494
vt 0.870778 0.366851
vt 0.887421 0.366851
vt 0.835181 0.183310
vt 0.835181 0.199954
vt 0.768607 0.199954
vt 0.768607 0.000231
vt 0.835181 0.000231
vt 0.835181 0.016874
vt 0.785251 0.016874
vt 0.785251 0.183310
vt 0.534211 0.366389
vt 0.517568 0.366389
vt 0.567498 0.283172
vt 0.584142 0.283172
vt 0.634535 0.300277
vt 0.667822 0.300277
vt 0.667822 0.350207
vt 0.634535 0.350207
vt 0.904989 0.899908
vt 0.904989 0.700185
vt 0.921633 0.700185
vt 0.921633 0.899908
vt 0.701571 0.200416
vt 0.784789 0.200416
vt 0.784789 0.333564
vt 0.701571 0.333564
vt 0.990054 0.666435
vt 0.973411 0.666435
vt 0.973411 0.366851
vt 0.990054 0.366851
vt 0.990054 0.400138
vt 0.267452 0.366851
vt 0.400600 0.366851
vt 0.400600 0.666436
vt 0.267452 0.666436
vt 0.702494 0.750115
vt 0.752425 0.750115
vt 0.752425 0.583680
vt 0.702494 0.583680
vt 0.702494 0.567036
vt 0.769068 0.567036
vt 0.769068 0.766759
vt 0.702494 0.766759
vt 0.772302 0.966944
vt 0.772302 0.767220
vt 0.788945 0.767220
vt 0.788945 0.966944
vt 0.334950 0.666897
vt 0.368237 0.666897
vt 0.368237 0.866621
vt 0.334950 0.866621
vt 0.217060 0.349746
vt 0.366851 0.349746
vt 0.200416 0.366389
vt 0.200416 0.000231
vt 0.400139 0.000231
vt 0.400139 0.366389
vt 0.383495 0.199954
vt 0.383495 0.016874
vt 0.217060 0.016874
vt 0.904527 0.700185
vt 0.904527 0.966482
vt 0.904527 0.999769
vt 0.887883 0.999769
vt 0.887883 0.700185
vt 0.973411 0.716828
vt 0.973411 0.666897
vt 0.990054 0.666897
vt 0.990054 0.966482
vt 0.973411 0.966482
vt 0.602171 0.700185
vt 0.618814 0.700185
vt 0.618814 0.966482
vt 0.618814 0.999769
vt 0.602171 0.999769
vt 0.785250 0.250808
vt 0.818538 0.250808
vt 0.818538 0.300738
vt 0.785250 0.300738
vt 0.701109 0.000231
vt 0.701109 0.299815
vt 0.634534 0.299815
vt 0.634534 0.016874
vt 0.634534 0.000231
vt 0.938738 0.899908
vt 0.922094 0.899908
vt 0.922094 0.700185
vt 0.938738 0.700185
vt 0.652102 0.549931
vt 0.702032 0.549931
vt 0.702032 0.566575
vt 0.635458 0.566575
vt 0.635458 0.366851
vt 0.702032 0.366851
vt 0.702032 0.383495
vt 0.652102 0.383495
vt 0.484280 0.666435
vt 0.401062 0.666435
vt 0.401062 0.366851
vt 0.484280 0.366851
vt 0.920709 0.000231
vt 0.920709 0.333102
vt 0.904065 0.333102
vt 0.904065 0.283172
vt 0.904065 0.016874
vt 0.904065 0.000231
vt 0.133379 0.666435
vt 0.000231 0.666435
vt 0.000231 0.366851
vt 0.133379 0.366851
vt 0.150947 0.884188
vt 0.134303 0.884188
vt 0.134303 0.850901
vt 0.150947 0.850901
vt 0.567960 0.366851
vt 0.567960 0.666436
vt 0.484742 0.666436
vt 0.484742 0.366851
vt 0.536521 0.833333
vt 0.503233 0.833333
vt 0.503233 0.666897
vt 0.536521 0.666897
vt 0.016875 0.833795
vt 0.016875 0.900369
vt 0.000231 0.900369
vt 0.000231 0.833795
vt 0.738091 0.966944
vt 0.738091 0.767221
vt 0.754735 0.767221
vt 0.754735 0.966944
vt 0.685390 0.583680
vt 0.635458 0.583680
vt 0.635458 0.567036
vt 0.702032 0.567036
vt 0.702032 0.766759
vt 0.635458 0.766759
vt 0.635458 0.750115
vt 0.685389 0.750115
vt 0.234627 0.800046
vt 0.251270 0.800046
vt 0.251270 0.866621
vt 0.217983 0.866621
vt 0.217983 0.666898
vt 0.251270 0.666898
vt 0.251270 0.733472
vt 0.234627 0.733472
vt 0.954920 0.299815
vt 0.954920 0.333102
vt 0.938276 0.333102
vt 0.938276 0.000231
vt 0.954920 0.000231
vt 0.954920 0.033518
vt 0.786174 0.750115
vt 0.836105 0.750115
vt 0.836105 0.766759
vt 0.769530 0.766759
vt 0.769530 0.567036
vt 0.836105 0.567036
vt 0.836105 0.583680
vt 0.786174 0.583680
vt 0.133841 0.666435
vt 0.133841 0.366851
vt 0.266990 0.366851
vt 0.266990 0.666435
vt 0.051548 0.833795
vt 0.068192 0.833795
vt 0.068192 0.900369
vt 0.051548 0.900369
vt 0.383495 0.349746
vt 0.823157 0.767220
vt 0.823157 0.833795
vt 0.806513 0.833795
vt 0.806513 0.767220
vt 0.835643 0.316459
vt 0.835643 0.050161
vt 0.835643 0.000231
vt 0.852287 0.000231
vt 0.852287 0.333102
vt 0.835643 0.333102
vt 0.921171 0.333102
vt 0.921171 0.000231
vt 0.937814 0.000231
vt 0.937814 0.016874
vt 0.937814 0.266528
vt 0.937814 0.333102
vt 0.904989 0.683079
vt 0.904989 0.416781
vt 0.904989 0.366851
vt 0.921632 0.366851
vt 0.921632 0.699722
vt 0.904989 0.699722
vt 0.267452 0.666898
vt 0.300739 0.666898
vt 0.300739 0.866621
vt 0.267452 0.866621
vt 0.267452 0.800046
vt 0.284095 0.800046
vt 0.284095 0.733472
vt 0.267452 0.733472
vt 0.938738 0.383494
vt 0.938738 0.666435
vt 0.938738 0.699722
vt 0.922094 0.699722
vt 0.922094 0.366851
vt 0.938738 0.366851
vt 0.402448 0.884188
vt 0.385804 0.884188
vt 0.385804 0.850901
vt 0.402448 0.850901
vt 0.520339 0.833795
vt 0.520339 0.867082
vt 0.503695 0.867082
vt 0.503695 0.833795
vt 0.939199 0.366851
vt 0.955843 0.366851
vt 0.955843 0.699722
vt 0.939199 0.699722
vt 0.939199 0.683079
vt 0.939199 0.383494
vt 0.719600 0.334026
vt 0.736244 0.334026
vt 0.736244 0.350670
vt 0.719600 0.350670
vt 0.568422 0.699722
vt 0.568422 0.366851
vt 0.634996 0.366851
vt 0.634996 0.699722
vt 0.785251 0.301201
vt 0.818538 0.301201
vt 0.818538 0.351131
vt 0.785251 0.351131
vn -1.0000 0.0000 0.0000
vn 1.0000 0.0000 0.0000
vn -0.0000 -0.0000 1.0000
vn -0.0000 1.0000 0.0000
vn 0.0000 -1.0000 -0.0000
vn 0.0000 0.0000 -1.0000
usemtl Chest_Big_Closed
s off
f 143/1/1 109/2/1 7/3/1 76/4/1
f 18/5/1 77/6/1 17/7/1 64/8/1
f 45/9/2 83/10/2 46/11/2 158/12/2
f 57/13/2 116/14/2 108/15/2 187/16/2 106/17/2 190/18/2 105/19/2 59/20/2 192/21/2 93/22/2 92/23/2 91/24/2 58/25/2 56/26/2 88/27/2 55/28/2
f 182/29/1 180/30/1 179/31/1 184/32/1 8/33/1 10/34/1 185/35/1 188/36/1 12/37/1 191/38/1 15/39/1 13/40/1 14/41/1 186/42/1 11/43/1 107/44/1 9/45/1
f 26/46/1 176/47/1 112/48/1 149/49/1
f 145/50/1 165/51/1 21/52/1 66/53/1
f 82/54/1 170/55/1 169/56/1 73/57/1
f 122/58/1 163/59/1 111/60/1 123/61/1
f 80/62/1 23/63/1 167/64/1 69/65/1
f 95/66/2 94/67/2 155/68/2 152/69/2 102/70/2 101/71/2 38/72/2 37/73/2 181/74/2 99/75/2 96/76/2 39/77/2
f 128/78/2 124/79/2 60/80/2 126/81/2
f 75/82/3 67/83/3 146/84/3 73/85/3 46/86/3 137/87/3 62/88/3 47/89/3 50/90/3 74/91/3
f 81/92/2 135/93/2 70/94/2 130/95/2
f 44/96/2 178/97/2 71/98/2 168/99/2
f 83/100/3 45/101/3 159/102/3 86/103/3
f 143/104/3 76/105/3 165/106/3 145/107/3
f 32/108/1 30/109/1 100/110/1 31/111/1 34/112/1 103/113/1 104/114/1 189/115/1 35/116/1 98/117/1 97/118/1 33/119/1
f 115/120/2 87/121/2 171/122/2 54/123/2
f 78/124/2 41/125/2 146/126/2 166/127/2
f 164/128/2 141/129/2 142/130/2 113/131/2
f 4/132/1 119/133/1 144/134/1 67/135/1
f 118/136/1 3/137/1 65/138/1 2/139/1
f 175/140/2 43/141/2 42/142/2 174/143/2
f 18/144/3 132/145/3 5/146/3 77/147/3
f 60/148/3 158/149/3 46/86/3 73/85/3 169/150/3 168/151/3 25/152/3 72/153/3 68/154/3 40/155/3 134/156/3 166/157/3 146/84/3 67/83/3 144/158/3 66/159/3 21/160/3 2/161/3 65/162/3 64/163/3 17/164/3 156/165/3 127/166/3 126/167/3
f 71/168/3 69/169/3 167/170/3 166/157/3 134/156/3 131/171/3 130/172/3 70/173/3 25/152/3 168/151/3
f 184/174/3 179/175/3 55/176/3 88/177/3
f 54/178/4 171/179/4 84/180/4 47/181/4 62/182/4 177/183/4 49/184/4 48/185/4
f 115/186/5 51/187/5 52/188/5 125/189/5 74/190/5 50/191/5 85/192/5 87/193/5
f 34/194/6 31/195/6 101/196/6 102/197/6 90/198/6
f 10/199/3 8/200/3 150/201/3 89/202/3 56/203/3 58/204/3
f 106/205/6 153/206/6 39/207/6 186/208/6 14/209/6 190/210/6
f 189/211/3 94/212/3 95/213/3 35/214/3
f 109/215/6 22/216/6 172/217/6 7/218/6
f 112/219/5 42/220/5 43/221/5 149/222/5
f 5/223/1 132/224/1 138/225/1 6/226/1
f 61/227/2 177/228/2 62/229/2 137/230/2
f 157/231/2 133/232/2 40/233/2 68/234/2
f 110/235/4 163/236/4 122/237/4 121/238/4
f 125/239/2 63/240/2 75/241/2 74/242/2
f 99/243/3 181/244/3 32/245/3 33/246/3 151/247/3
f 121/248/2 139/249/2 140/250/2 110/251/2
f 103/252/6 152/253/6 155/254/6 154/255/6 104/256/6
f 79/257/5 134/258/5 40/259/5 133/260/5
f 15/261/6 59/262/6 105/263/6 189/264/6 94/265/6 13/266/6
f 140/267/6 111/268/6 163/269/6 110/270/6
f 138/271/6 19/272/6 16/273/6 6/274/6
f 116/275/6 57/276/6 183/277/6 182/278/6 9/279/6
f 161/280/2 36/281/2 147/282/2 160/283/2
f 188/284/3 185/285/3 90/286/3 34/287/3 91/288/3 92/289/3
f 117/290/1 1/291/1 127/292/1 156/293/1
f 76/294/4 7/295/4 172/296/4 173/297/4 118/298/4 2/299/4 21/300/4 165/301/4
f 121/302/6 122/303/6 1/304/6 117/305/6 162/306/6 20/307/6 3/308/6 118/309/6 173/310/6 120/311/6 119/312/6 4/313/6 63/314/6 125/315/6 52/316/6 49/317/6 177/318/6 61/319/6 141/320/6 164/321/6 149/322/6 43/323/6 175/324/6 139/325/6
f 130/326/5 131/327/5 129/328/5 81/329/5
f 49/330/2 52/331/2 51/332/2 48/333/2
f 127/334/5 1/335/5 128/336/5 126/337/5
f 50/338/2 47/339/2 84/340/2 85/341/2
f 150/342/5 38/343/5 101/344/5 31/345/5 100/346/5 89/347/5
f 38/348/6 150/349/6 89/350/6 100/351/6 30/352/6 37/353/6
f 136/354/5 25/355/5 70/356/5 135/357/5
f 191/358/3 12/359/3 154/360/3 104/361/3 93/362/3 192/363/3
f 18/364/5 64/365/5 65/366/5 3/367/5 20/368/5 19/369/5 138/370/5 132/371/5
f 164/321/6 124/372/6 128/373/6 1/304/6 122/303/6 123/374/6 139/325/6 175/324/6 26/375/6 149/322/6
f 53/376/6 114/377/6 113/378/6 142/379/6
f 73/380/5 146/381/5 41/382/5 82/383/5
f 148/384/1 28/385/1 27/386/1 29/387/1
f 39/388/3 96/389/3 97/390/3 98/391/3 153/392/3
f 147/393/5 36/394/5 148/395/5 29/396/5
f 77/397/4 5/398/4 6/399/4 16/400/4 162/401/4 117/402/4 156/403/4 17/404/4
f 174/405/4 176/406/4 26/407/4 175/408/4
f 174/409/6 42/410/6 112/411/6 176/412/6
f 179/413/4 180/414/4 67/415/4 75/416/4 63/417/4 4/418/4 183/419/4 57/420/4 55/421/4
f 99/422/5 151/423/5 33/424/5 97/425/5 96/426/5
f 90/427/5 102/428/5 152/429/5 103/430/5 34/431/5
f 95/432/5 39/433/5 153/434/5 98/435/5 35/436/5
f 85/437/3 84/438/3 171/439/3 87/440/3
f 94/441/5 189/442/5 104/443/5 154/444/5 155/445/5
f 157/446/4 68/447/4 72/448/4 24/449/4
f 159/450/4 45/451/4 158/452/4 60/453/4 124/454/4 164/455/4 113/456/4 114/457/4
f 36/458/3 161/459/3 28/460/3 148/461/3
f 11/462/6 187/463/6 108/464/6 151/465/6 99/466/6 107/467/6
f 161/468/4 160/469/4 27/470/4 28/471/4
f 173/472/1 172/473/1 22/474/1 120/475/1
f 147/476/6 29/477/6 27/478/6 160/479/6
f 86/480/2 159/481/2 114/482/2 53/483/2
f 170/484/4 44/485/4 168/486/4 169/487/4
f 111/488/5 140/489/5 139/490/5 123/491/5
f 53/492/5 142/493/5 141/494/5 61/495/5 137/496/5 46/497/5 83/498/5 86/499/5
f 129/500/3 79/501/3 133/502/3 157/503/3 24/504/3 136/505/3 135/506/3 81/507/3
f 150/508/4 8/509/4 184/510/4 88/511/4 56/512/4 89/513/4
f 143/514/5 145/515/5 66/516/5 144/517/5 119/518/5 120/519/5 22/520/5 109/521/5
f 37/522/4 30/523/4 32/524/4 181/525/4
f 71/526/4 178/527/4 80/528/4 69/529/4
f 4/418/4 67/415/4 180/414/4 182/530/4 183/419/4
f 23/531/4 78/532/4 166/533/4 167/534/4
f 99/535/4 151/536/4 108/537/4 116/538/4 9/539/4 107/540/4
f 10/541/4 58/542/4 91/543/4 34/544/4 90/545/4 185/546/4
f 39/547/4 153/548/4 106/549/4 187/550/4 11/551/4 186/552/4
f 170/553/3 82/554/3 41/555/3 78/556/3 23/557/3 80/558/3 178/559/3 44/560/3
f 104/561/4 154/562/4 12/563/4 188/564/4 92/565/4 93/566/4
f 162/567/1 16/568/1 19/569/1 20/570/1
f 136/571/1 24/572/1 72/573/1 25/574/1
f 105/575/4 190/576/4 14/577/4 13/578/4 94/579/4 189/580/4
f 79/581/1 129/582/1 131/583/1 134/584/1
f 191/585/4 192/586/4 59/587/4 15/588/4
f 115/589/6 54/590/6 48/591/6 51/592/6
