# Blender v3.2.2 OBJ File: 'Dungeon Voxel Assets.blend'
# www.blender.org
mtllib Button_Wall_Big_Red.mtl
o Button_Wall_Big_Red_Button_Wall_Big_Red.002
v -0.205556 -0.144444 -0.000000
v -0.205556 0.155556 0.000000
v -0.105556 -0.044444 0.000000
v 0.194444 0.155556 0.000000
v 0.194444 0.155556 -0.100000
v -0.105556 0.055556 0.100000
v -0.105556 -0.044444 0.100000
v 0.094445 0.055556 0.100000
v 0.094445 -0.044444 0.000000
v 0.194444 -0.144444 -0.000000
v 0.194444 0.055556 0.000000
v -0.205556 -0.144444 -0.100000
v 0.194444 -0.144444 -0.100000
v -0.105556 -0.144444 -0.000000
v 0.094445 -0.044444 0.100000
v -0.105556 0.055556 0.000000
v 0.094445 0.055556 0.000000
v -0.205556 0.155556 -0.100000
vt 0.875116 0.499923
vt 0.750154 0.499923
vt 0.750154 0.000077
vt 0.875116 0.000077
vt 0.375271 0.874961
vt 0.250309 0.874961
vt 0.250309 0.750000
vt 0.250309 0.500077
vt 0.375271 0.500077
vt 0.250155 0.500077
vt 0.250155 0.874961
vt 0.125193 0.874961
vt 0.125193 0.500077
vt 0.125039 0.999923
vt 0.000077 0.999923
vt 0.000077 0.625039
vt 0.000077 0.500077
vt 0.125039 0.500077
vt 0.750619 0.500077
vt 0.750619 0.750000
vt 0.625657 0.750000
vt 0.625657 0.500077
vt 0.500077 0.125039
vt 0.375116 0.374961
vt 0.375116 0.000077
vt 0.625038 0.000077
vt 0.625038 0.125039
vt 0.500387 0.750155
vt 0.500387 0.875116
vt 0.375426 0.875116
vt 0.375426 0.750155
vt 0.000077 0.499923
vt 0.000077 0.000077
vt 0.374961 0.000077
vt 0.374961 0.499923
vt 0.625503 0.750155
vt 0.625503 0.875116
vt 0.500542 0.875116
vt 0.500542 0.750155
vt 0.500387 0.750000
vt 0.375426 0.750000
vt 0.375426 0.500077
vt 0.500387 0.500077
vt 0.625503 0.500077
vt 0.625503 0.750000
vt 0.500542 0.750000
vt 0.500542 0.500077
vt 0.750000 0.499923
vt 0.375116 0.499923
vt 0.500077 0.374961
vt 0.625038 0.374961
vt 0.750000 0.000077
vn 0.0000 1.0000 0.0000
vn 1.0000 -0.0000 0.0000
vn -1.0000 -0.0000 0.0000
vn 0.0000 -1.0000 -0.0000
vn 0.0000 -0.0000 1.0000
vn 0.0000 0.0000 -1.0000
usemtl Button_Wall_Big_Red
s off
f 18/1/1 2/2/1 4/3/1 5/4/1
f 5/5/2 4/6/2 11/7/2 10/8/2 13/9/2
f 18/10/3 12/11/3 1/12/3 2/13/3
f 13/14/4 10/15/4 14/16/4 1/17/4 12/18/4
f 8/19/5 6/20/5 7/21/5 15/22/5
f 9/23/5 14/24/5 10/25/5 11/26/5 17/27/5
f 16/28/3 3/29/3 7/30/3 6/31/3
f 13/32/6 12/33/6 18/34/6 5/35/6
f 9/36/2 17/37/2 8/38/2 15/39/2
f 9/40/4 15/41/4 7/42/4 3/43/4
f 17/44/1 16/45/1 6/46/1 8/47/1
f 2/48/5 1/49/5 14/24/5 9/23/5 3/50/5 16/51/5 17/27/5 11/26/5 4/52/5
