# Blender v3.2.2 OBJ File: 'Dungeon Voxel Assets.blend'
# www.blender.org
mtllib Bridge_Out.mtl
o Bridge_Out_Bridge_Out.002
v -0.500000 -0.512820 -0.387180
v -0.500000 -0.512820 -0.587180
v -0.500000 -0.112821 0.212821
v 0.400000 0.087180 -0.287179
v 0.400000 -0.012820 -0.287179
v 0.400000 0.087179 0.112820
v -0.400000 -0.012820 -0.287179
v -0.400000 0.087179 0.112820
v -0.400000 0.187180 -0.287179
v -0.400000 0.387179 0.512820
v 0.500000 -0.512820 -0.387180
v 0.500000 -0.512820 -0.587180
v 0.500000 -0.112821 0.412820
v 0.500000 -0.012820 -0.587179
v 0.500000 0.087180 -0.587179
v 0.500000 0.287179 0.412821
v 0.500000 0.387179 0.412821
v -0.500000 0.387179 0.512820
v 0.500000 -0.212821 0.512820
v 0.400000 0.387179 0.512820
v -0.500000 -0.312821 0.212821
v -0.500000 0.187180 0.112820
v -0.400000 0.187180 0.112820
v 0.400000 0.187180 0.112820
v 0.500000 0.187180 0.112820
v 0.500000 -0.412821 -0.087180
v 0.500000 0.087180 -0.287179
v -0.400000 -0.112821 0.412820
v -0.500000 0.387179 0.412821
v -0.400000 0.387179 0.412821
v 0.400000 -0.112821 0.412820
v 0.500000 0.187179 0.412821
v -0.500000 -0.212821 0.212821
v -0.400000 0.287179 0.112820
v 0.500000 0.287179 0.112820
v -0.500000 0.187180 -0.287179
v -0.500000 -0.312820 -0.387180
v -0.500000 -0.012820 -0.587179
v -0.400000 -0.012820 -0.587179
v -0.400000 0.087180 -0.587179
v 0.400000 0.087180 -0.587179
v -0.500000 -0.412821 -0.087180
v -0.500000 -0.312820 -0.087180
v 0.500000 -0.312821 0.212821
v -0.500000 -0.212821 0.512820
v -0.500000 -0.012820 -0.287179
v 0.400000 -0.012820 -0.587179
v 0.500000 -0.012820 -0.287179
v 0.500000 0.087179 0.112820
v -0.500000 0.087179 0.112820
v -0.500000 0.087180 -0.287179
v -0.400000 0.087180 -0.287179
v -0.400000 0.187179 0.412821
v -0.500000 0.187179 0.412821
v 0.400000 0.187179 0.412821
v -0.500000 -0.412820 -0.387180
v 0.500000 -0.412820 -0.387180
v -0.500000 -0.412820 -0.587180
v 0.500000 -0.412820 -0.587180
v 0.500000 -0.312820 -0.087180
v 0.500000 -0.312820 -0.387180
v -0.500000 -0.212821 -0.087180
v 0.500000 -0.212821 0.212821
v 0.500000 -0.212821 -0.087180
v -0.400000 -0.112821 0.512820
v 0.400000 -0.112821 0.512820
v -0.500000 -0.112821 0.412820
v 0.500000 -0.112821 0.212821
v -0.500000 0.087180 -0.587179
v 0.400000 0.187180 -0.287179
v 0.500000 0.187180 -0.287179
v -0.500000 0.287179 0.412821
v -0.400000 0.287179 0.412821
v -0.500000 0.287179 0.112820
v 0.400000 0.287179 0.412821
v 0.400000 0.287179 0.112820
v 0.500000 0.387179 0.512820
v 0.400000 0.387179 0.412821
vt 0.958318 0.166923
vt 0.999807 0.166923
vt 0.999807 0.208413
vt 0.958318 0.208413
vt 0.209183 0.955626
vt 0.209183 0.997116
vt 0.167693 0.997116
vt 0.167693 0.955626
vt 0.958318 0.291010
vt 0.999807 0.291010
vt 0.999807 0.332500
vt 0.958318 0.332500
vt 0.958318 0.000192
vt 0.999807 0.000192
vt 0.999807 0.124663
vt 0.958318 0.124663
vt 0.791586 0.830770
vt 0.833077 0.830770
vt 0.833077 0.955241
vt 0.791586 0.955241
vt 0.041683 0.955626
vt 0.041683 0.997116
vt 0.000192 0.997116
vt 0.000192 0.955626
vt 0.916442 0.332500
vt 0.916442 0.166538
vt 0.957933 0.166538
vt 0.957933 0.332500
vt 0.916827 0.748173
vt 0.958318 0.748173
vt 0.958318 0.914135
vt 0.916827 0.914135
vt 0.291394 0.747789
vt 0.291394 0.872260
vt 0.249904 0.872260
vt 0.249904 0.664808
vt 0.291394 0.664808
vt 0.291394 0.706298
vt 0.415865 0.706298
vt 0.415865 0.747789
vt 0.916442 0.914135
vt 0.874952 0.914135
vt 0.874952 0.748173
vt 0.916443 0.748173
vt 0.333269 0.997116
vt 0.291779 0.997116
vt 0.291779 0.872644
vt 0.333269 0.872644
vt 0.958318 0.125048
vt 0.999807 0.125048
vt 0.999807 0.166538
vt 0.958318 0.166538
vt 0.417018 0.872644
vt 0.417018 0.997116
vt 0.375528 0.997116
vt 0.375528 0.872644
vt 0.916827 0.747788
vt 0.916827 0.581827
vt 0.958318 0.581827
vt 0.958318 0.747788
vt 0.832692 0.415482
vt 0.832692 0.830385
vt 0.791202 0.830385
vt 0.791202 0.415482
vt 0.832693 0.415096
vt 0.832693 0.000193
vt 0.874183 0.000193
vt 0.874183 0.415096
vt 0.707837 0.830770
vt 0.749327 0.830770
vt 0.749327 0.955241
vt 0.707837 0.955241
vt 0.167693 0.830770
vt 0.209184 0.830770
vt 0.209184 0.955241
vt 0.167693 0.955241
vt 0.748943 0.830385
vt 0.665962 0.830385
vt 0.665962 0.415482
vt 0.748943 0.415482
vt 0.375144 0.872644
vt 0.375144 0.997116
vt 0.333653 0.997116
vt 0.333653 0.872644
vt 0.790433 0.415096
vt 0.748943 0.415096
vt 0.748943 0.000193
vt 0.790433 0.000193
vt 0.916827 0.415481
vt 0.958318 0.415481
vt 0.958318 0.581443
vt 0.916827 0.581443
vt 0.500768 0.872644
vt 0.500768 0.997116
vt 0.459278 0.997116
vt 0.459278 0.872644
vt 0.083558 0.955626
vt 0.083558 0.997116
vt 0.042067 0.997116
vt 0.042067 0.955626
vt 0.916827 0.997500
vt 0.916827 0.914519
vt 0.958317 0.914519
vt 0.958317 0.997500
vt 0.916442 0.332885
vt 0.957933 0.332885
vt 0.957933 0.374375
vt 0.916442 0.374375
vt 0.791586 0.955626
vt 0.833076 0.955626
vt 0.833076 0.997116
vt 0.791586 0.997116
vt 0.916443 0.000192
vt 0.957933 0.000192
vt 0.957932 0.166154
vt 0.916443 0.166154
vt 0.540721 0.456971
vt 0.457740 0.456971
vt 0.457740 0.581443
vt 0.582211 0.581443
vt 0.582211 0.622933
vt 0.457740 0.622933
vt 0.457740 0.664423
vt 0.416250 0.664423
vt 0.416250 0.415481
vt 0.540721 0.415481
vt 0.707837 0.955626
vt 0.749327 0.955626
vt 0.749327 0.997116
vt 0.707837 0.997116
vt 0.749711 0.830770
vt 0.791202 0.830770
vt 0.791202 0.955241
vt 0.749711 0.955241
vt 0.916058 0.000193
vt 0.916058 0.415096
vt 0.874567 0.415096
vt 0.874567 0.000193
vt 0.748559 0.000193
vt 0.748559 0.415096
vt 0.624087 0.415096
vt 0.624087 0.000193
vt 0.457740 0.789279
vt 0.582211 0.789279
vt 0.582211 0.830769
vt 0.457740 0.830769
vt 0.457740 0.872260
vt 0.416250 0.872260
vt 0.416250 0.664808
vt 0.457740 0.664808
vt 0.125433 0.955626
vt 0.125433 0.997116
vt 0.083943 0.997116
vt 0.083943 0.955626
vt 0.707452 0.955241
vt 0.665962 0.955241
vt 0.665962 0.830770
vt 0.707452 0.830770
vt 0.167308 0.955626
vt 0.167308 0.997116
vt 0.125818 0.997116
vt 0.125818 0.955626
vt 0.501153 0.997116
vt 0.501153 0.872644
vt 0.542643 0.872644
vt 0.542643 0.997116
vt 0.624472 0.997116
vt 0.624472 0.955626
vt 0.665961 0.955626
vt 0.665961 0.997116
vt 0.124663 0.415482
vt 0.124663 0.830385
vt 0.000192 0.830385
vt 0.000192 0.415482
vt 0.125434 0.955241
vt 0.083943 0.955241
vt 0.083943 0.830770
vt 0.125434 0.830770
vt 0.291394 0.415481
vt 0.291394 0.456971
vt 0.415865 0.456971
vt 0.415865 0.498462
vt 0.291394 0.498462
vt 0.291394 0.622933
vt 0.374375 0.622933
vt 0.374375 0.664423
vt 0.249904 0.664423
vt 0.249904 0.415481
vt 0.624087 0.955626
vt 0.624087 0.997116
vt 0.582596 0.997116
vt 0.582596 0.955626
vt 0.417403 0.997116
vt 0.417403 0.872644
vt 0.458893 0.872644
vt 0.458893 0.997116
vt 0.916443 0.581443
vt 0.874952 0.581443
vt 0.874952 0.415481
vt 0.916443 0.415481
vt 0.790817 0.415482
vt 0.790817 0.830385
vt 0.749327 0.830385
vt 0.749327 0.415482
vt 0.041683 0.830770
vt 0.041683 0.955241
vt 0.000193 0.955241
vt 0.000193 0.830770
vt 0.749712 0.955626
vt 0.791202 0.955626
vt 0.791202 0.997116
vt 0.749712 0.997116
vt 0.041683 0.373606
vt 0.249135 0.373606
vt 0.249135 0.415096
vt 0.000192 0.415096
vt 0.000192 0.000193
vt 0.249135 0.000193
vt 0.249135 0.041682
vt 0.041683 0.041682
vt 0.373991 0.415096
vt 0.249519 0.415096
vt 0.249519 0.000193
vt 0.373991 0.000193
vt 0.249904 0.872644
vt 0.291394 0.872644
vt 0.291394 0.997116
vt 0.249904 0.997116
vt 0.790818 0.415096
vt 0.790818 0.000193
vt 0.832308 0.000193
vt 0.832308 0.415096
vt 0.874567 0.830385
vt 0.833077 0.830385
vt 0.833077 0.415482
vt 0.874567 0.415482
vt 0.498847 0.415096
vt 0.374375 0.415096
vt 0.374375 0.000193
vt 0.498847 0.000193
vt 0.582596 0.830770
vt 0.624087 0.830770
vt 0.624087 0.955241
vt 0.582596 0.955241
vt 0.125048 0.830385
vt 0.125048 0.415482
vt 0.208029 0.415482
vt 0.208029 0.456972
vt 0.249519 0.456972
vt 0.249519 0.788895
vt 0.208029 0.788895
vt 0.208029 0.830385
vt 0.042068 0.955241
vt 0.042068 0.830770
vt 0.083558 0.830770
vt 0.083558 0.955241
vt 0.623703 0.000193
vt 0.623703 0.415096
vt 0.499231 0.415096
vt 0.499231 0.000193
vt 0.874952 0.914519
vt 0.916442 0.914519
vt 0.916442 0.997500
vt 0.874952 0.997500
vt 0.874952 0.747788
vt 0.874952 0.581827
vt 0.916443 0.581827
vt 0.916443 0.747788
vt 0.665577 0.415482
vt 0.665577 0.830385
vt 0.582596 0.830385
vt 0.582596 0.415482
vt 0.125818 0.955241
vt 0.125818 0.830770
vt 0.167309 0.830770
vt 0.167309 0.955241
vn 0.0000 0.0000 -1.0000
vn -1.0000 0.0000 0.0000
vn 0.0000 -1.0000 -0.0000
vn 1.0000 0.0000 0.0000
vn 0.0000 -0.0000 1.0000
vn 0.0000 1.0000 0.0000
usemtl Bridge_Out
s off
f 70/1/1 71/2/1 27/3/1 4/4/1
f 69/5/1 40/6/1 39/7/1 38/8/1
f 78/9/1 17/10/1 16/11/1 75/12/1
f 55/13/1 32/14/1 13/15/1 31/16/1
f 37/17/2 56/18/2 42/19/2 43/20/2
f 74/21/1 34/22/1 23/23/1 22/24/1
f 22/25/2 36/26/2 51/27/2 50/28/2
f 70/29/2 4/30/2 6/31/2 24/32/2
f 55/33/2 31/34/2 66/35/2 20/36/2 78/37/2 75/38/2 76/39/2 24/40/2
f 49/41/3 6/42/3 4/43/3 27/44/3
f 60/45/4 26/46/4 57/47/4 61/48/4
f 41/49/1 15/50/1 14/51/1 47/52/1
f 25/53/3 32/54/3 55/55/3 24/56/3
f 8/57/4 52/58/4 9/59/4 23/60/4
f 3/61/1 68/62/1 63/63/1 33/64/1
f 12/65/1 2/66/1 58/67/1 59/68/1
f 69/69/2 38/70/2 46/71/2 51/72/2
f 54/73/1 53/74/1 28/75/1 67/76/1
f 12/77/3 11/78/3 1/79/3 2/80/3
f 43/81/2 21/82/2 33/83/2 62/84/2
f 43/85/5 42/86/5 26/87/5 60/88/5
f 27/89/4 71/90/4 25/91/4 49/92/4
f 14/93/3 48/94/3 5/95/3 47/96/3
f 36/97/1 9/98/1 52/99/1 51/100/1
f 56/101/2 58/102/2 2/103/2 1/104/2
f 10/105/6 30/106/6 29/107/6 18/108/6
f 25/109/5 24/110/5 6/111/5 49/112/5
f 71/113/6 70/114/6 24/115/6 25/116/6
f 68/117/4 13/118/4 32/119/4 25/120/4 35/121/4 16/122/4 17/123/4 77/124/4 19/125/4 63/126/4
f 76/127/1 35/128/1 25/129/1 24/130/1
f 41/131/2 47/132/2 5/133/2 4/134/2
f 63/135/5 33/136/5 21/137/5 44/138/5
f 43/139/3 60/140/3 44/141/3 21/142/3
f 53/143/4 23/144/4 34/145/4 73/146/4 30/147/4 10/148/4 65/149/4 28/150/4
f 23/151/5 22/152/5 50/153/5 8/154/5
f 52/155/4 7/156/4 39/157/4 40/158/4
f 52/159/5 51/160/5 46/161/5 7/162/5
f 27/163/6 15/164/6 41/165/6 4/166/6
f 77/167/6 17/168/6 78/169/6 20/170/6
f 33/171/3 63/172/3 19/173/3 45/174/3
f 7/175/3 46/176/3 38/177/3 39/178/3
f 29/179/2 72/180/2 74/181/2 22/182/2 54/183/2 67/184/2 3/185/2 33/186/2 45/187/2 18/188/2
f 29/189/1 30/190/1 73/191/1 72/192/1
f 16/193/6 35/194/6 76/195/6 75/196/6
f 8/197/3 50/198/3 51/199/3 52/200/3
f 57/201/5 56/202/5 1/203/5 11/204/5
f 23/205/3 53/206/3 54/207/3 22/208/3
f 27/209/5 4/210/5 5/211/5 48/212/5
f 65/213/5 10/214/5 18/215/5 45/216/5 19/217/5 77/218/5 20/219/5 66/220/5
f 37/221/6 43/222/6 60/223/6 61/224/6
f 60/225/4 64/226/4 63/227/4 44/228/4
f 57/229/1 56/230/1 37/231/1 61/232/1
f 64/233/1 60/234/1 43/235/1 62/236/1
f 62/237/6 33/238/6 63/239/6 64/240/6
f 14/241/4 15/242/4 27/243/4 48/244/4
f 68/245/6 3/246/6 67/247/6 28/248/6 65/249/6 66/250/6 31/251/6 13/252/6
f 52/253/6 40/254/6 69/255/6 51/256/6
f 56/257/3 57/258/3 26/259/3 42/260/3
f 12/261/4 59/262/4 57/263/4 11/264/4
f 23/265/6 9/266/6 36/267/6 22/268/6
f 59/269/6 58/270/6 56/271/6 57/272/6
f 73/273/6 34/274/6 74/275/6 72/276/6
