# Blender v3.2.2 OBJ File: 'Dungeon Voxel Assets.blend'
# www.blender.org
mtllib Bridge_Middle_Large.mtl
o Bridge_Middle_Large_Bridge_Middle_Large.003
v -0.500000 -0.283334 2.100000
v -0.500000 -0.283333 -2.100000
v -0.500000 0.216666 2.100000
v -0.500000 0.116666 2.100000
v 0.400000 0.216666 2.100000
v 0.400000 0.216667 -2.100000
v -0.400000 0.216666 2.100000
v -0.400000 0.216667 -2.100000
v 0.500000 -0.283334 2.100000
v 0.500000 0.216666 2.100000
v -0.500000 -0.383334 2.100000
v 0.500000 -0.383334 2.100000
v -0.500000 0.116667 -2.100000
v -0.500000 0.216667 -2.100000
v -0.400000 0.116667 -2.100000
v -0.500000 -0.383333 -2.100000
v 0.400000 0.116667 -2.100000
v 0.500000 -0.383333 -2.100000
v -0.400000 0.116666 2.100000
v 0.500000 0.116666 2.100000
v 0.400000 0.116666 2.100000
v 0.500000 0.116667 -2.100000
v 0.500000 -0.283333 -2.100000
v 0.500000 0.216667 -2.100000
vt 0.668133 0.999917
vt 0.644327 0.999917
vt 0.644327 0.000083
vt 0.668133 0.000083
vt 0.238138 0.999917
vt 0.000083 0.999917
vt 0.000083 0.000083
vt 0.238139 0.000083
vt 0.740047 0.524468
vt 0.740047 0.548274
vt 0.716242 0.548274
vt 0.716242 0.524468
vt 0.620356 0.999917
vt 0.620356 0.000083
vt 0.644161 0.000083
vt 0.644161 0.999917
vt 0.740047 0.476526
vt 0.740047 0.500332
vt 0.716242 0.500332
vt 0.716242 0.476526
vt 0.668299 0.000083
vt 0.692105 0.000083
vt 0.692104 0.999917
vt 0.668299 0.999917
vt 0.740047 0.238304
vt 0.740047 0.476359
vt 0.716242 0.476359
vt 0.716242 0.238304
vt 0.596218 0.999917
vt 0.572413 0.999917
vt 0.572413 0.000083
vt 0.596218 0.000083
vt 0.740047 0.548440
vt 0.740047 0.572246
vt 0.716242 0.572246
vt 0.716242 0.548440
vt 0.692270 0.000083
vt 0.716076 0.000083
vt 0.716076 0.999917
vt 0.692270 0.999917
vt 0.548275 0.000083
vt 0.548275 0.999917
vt 0.524469 0.999917
vt 0.524469 0.000083
vt 0.740047 0.500497
vt 0.740047 0.524302
vt 0.716242 0.524302
vt 0.716242 0.500497
vt 0.596384 0.000083
vt 0.620190 0.000083
vt 0.620190 0.999917
vt 0.596384 0.999917
vt 0.500332 0.999917
vt 0.476526 0.999917
vt 0.476526 0.000083
vt 0.500332 0.000083
vt 0.716242 0.238138
vt 0.716242 0.000083
vt 0.740047 0.000083
vt 0.740047 0.238138
vt 0.238305 0.000083
vt 0.476361 0.000083
vt 0.476360 0.999917
vt 0.238305 0.999917
vt 0.500498 0.999917
vt 0.500498 0.000083
vt 0.524303 0.000083
vt 0.524303 0.999917
vt 0.572247 0.000083
vt 0.572247 0.999917
vt 0.548441 0.999917
vt 0.548441 0.000083
vn -1.0000 0.0000 0.0000
vn 0.0000 -1.0000 -0.0000
vn 0.0000 0.0000 -1.0000
vn 1.0000 0.0000 0.0000
vn 0.0000 0.0000 1.0000
vn 0.0000 1.0000 0.0000
usemtl Bridge_Middle_Large
s off
f 4/1/1 3/2/1 14/3/1 13/4/1
f 12/5/2 11/6/2 16/7/2 18/8/2
f 6/9/3 24/10/3 22/11/3 17/12/3
f 19/13/4 15/14/4 8/15/4 7/16/4
f 10/17/5 5/18/5 21/19/5 20/20/5
f 18/21/4 23/22/4 9/23/4 12/24/4
f 9/25/5 1/26/5 11/27/5 12/28/5
f 21/29/1 5/30/1 6/31/1 17/32/1
f 14/33/3 8/34/3 15/35/3 13/36/3
f 2/37/1 16/38/1 11/39/1 1/40/1
f 22/41/2 20/42/2 21/43/2 17/44/2
f 7/45/5 3/46/5 4/47/5 19/48/5
f 22/49/4 24/50/4 10/51/4 20/52/4
f 19/53/2 4/54/2 13/55/2 15/56/2
f 18/57/3 16/58/3 2/59/3 23/60/3
f 23/61/6 2/62/6 1/63/6 9/64/6
f 10/65/6 24/66/6 6/67/6 5/68/6
f 14/69/6 3/70/6 7/71/6 8/72/6
